<svg xmlns="http://www.w3.org/2000/svg" width="200" height="150" viewBox="0 0 200 150" preserveAspectRatio="xMidYMid meet" class="hub-svg"><style>.wheel-svg,.hub-svg{background:var(--wheel-svg-background, #ffffff)}.rim-body{fill:var(--wheel-rim-side-fill, #222529);stroke:var(--wheel-rim-stroke, #111111);stroke-width:1;fill-rule:evenodd}.rim-outline{fill:none;stroke:var(--wheel-rim-outline-stroke, #111111);stroke-width:1.5}.rim-highlight{fill:none;stroke:var(--wheel-rim-highlight-stroke, rgba(255,255,255,.18));stroke-width:1}.rim-hole{fill:var(--wheel-rim-hole-fill, #101214);stroke:var(--wheel-rim-hole-stroke, #101214);stroke-width:0.5}.valve-hole-marker{fill:var(--wheel-valve-fill, #2f3438)}.valve-hole-line{stroke:var(--wheel-valve-stroke, #111111);stroke-width:2.5;stroke-linecap:round}.valve-label{font-family:sans-serif;font-size:14px;fill:var(--wheel-valve-label-fill, #495057);font-weight:bold}.wheel-valve-part{fill:var(--wheel-valve-fill, #2f3438);stroke:var(--wheel-valve-stroke, #111111);stroke-width:1}.spoke-nipple{stroke-width:5;stroke-linecap:butt}.spoke-nipple-dot{fill:var(--wheel-nipple-dot-fill, #ffffff);stroke:var(--wheel-nipple-dot-stroke, #111111);stroke-width:1}.nipple-theme-silver .spoke-nipple{stroke:var(--wheel-nipple-silver, #111111)}.nipple-theme-black .spoke-nipple{stroke:var(--wheel-nipple-black, #111111)}.spoke{stroke-width:1.5;stroke-linecap:round}.spoke-theme-color .spoke-left.spoke-pulling{stroke:var(--wheel-spoke-left-pulling, #111111)}.spoke-theme-color .spoke-left.spoke-trailing{stroke:var(--wheel-spoke-left-trailing, #111111)}.spoke-theme-color .spoke-right.spoke-pulling{stroke:var(--wheel-spoke-right-pulling, #111111);stroke-dasharray:4 4}.spoke-theme-color .spoke-right.spoke-trailing{stroke:var(--wheel-spoke-right-trailing, #111111);stroke-dasharray:4 4}.spoke-theme-black .spoke{stroke:var(--wheel-spoke-black, #111111)}.spoke-theme-silver .spoke{stroke:var(--wheel-spoke-silver, #ced4da)}.straight-pull-wheel-spoke{stroke-width:2;stroke-linecap:butt}.straight-pull-spoke-head,.spoke-theme-color .straight-pull-spoke-head,.spoke-theme-black .straight-pull-spoke-head,.spoke-theme-silver .straight-pull-spoke-head{stroke:none !important;stroke-width:0 !important}.spoke-theme-color .straight-pull-spoke-head.spoke-left.spoke-pulling{fill:var(--wheel-spoke-left-pulling, #111111)}.spoke-theme-color .straight-pull-spoke-head.spoke-left.spoke-trailing{fill:var(--wheel-spoke-left-trailing, #111111)}.spoke-theme-color .straight-pull-spoke-head.spoke-right.spoke-pulling{fill:var(--wheel-spoke-right-pulling, #111111)}.spoke-theme-color .straight-pull-spoke-head.spoke-right.spoke-trailing{fill:var(--wheel-spoke-right-trailing, #111111)}.spoke-theme-black .straight-pull-spoke-head{fill:var(--wheel-spoke-black, #111111)}.spoke-theme-silver .straight-pull-spoke-head{fill:var(--wheel-spoke-silver, #ced4da)}.hub-axle,.hub-axle-tip{fill:var(--wheel-hub-axle-fill, #d9dcde);stroke:var(--wheel-hub-axle-stroke, #222222);stroke-width:0.8}.hub-endcap{fill:var(--wheel-hub-endcap-fill, #7d848a);stroke:var(--wheel-hub-endcap-stroke, #25282b);stroke-width:1}.hub-cylinder,.hub-shell-body{fill:var(--wheel-hub-shell-fill, #bfc4c8);stroke:var(--wheel-hub-shell-stroke, #3c4145);stroke-width:1.2;fill-rule:evenodd}.hub-brand-dt-swiss .hub-shell-body{fill:var(--wheel-hub-shell-dt-swiss-fill, #c9ced2)}.hub-brand-industry-nine .hub-shell-body{fill:var(--wheel-hub-shell-industry-nine-fill, #b5bcc1)}.hub-flange-left{fill:var(--wheel-hub-flange-left-fill, #d2d6d9);stroke:var(--wheel-hub-flange-left-stroke, #3c4145);stroke-width:1;fill-rule:evenodd}.hub-flange-right{fill:var(--wheel-hub-flange-right-fill, #aeb5ba);stroke:var(--wheel-hub-flange-right-stroke, #3c4145);stroke-width:1;fill-rule:evenodd}.hub-flange-plate{stroke-width:1.1}.hub-brake-mount,.hub-centerlock-side,.hub-sixbolt-side{fill:var(--wheel-hub-mount-fill, #969da3);stroke:var(--wheel-hub-mount-stroke, #2c3033);stroke-width:1;fill-rule:evenodd}.hub-cylinder-freehub{fill:var(--wheel-hub-freehub-fill, #c8ccd0);stroke:var(--wheel-hub-freehub-stroke, #3c4145);stroke-width:1;fill-rule:evenodd}.hub-cylinder-dark,.hub-bearing-ring,.hub-freehub-inner-shoulder,.hub-freehub-thread-step{fill:var(--wheel-hub-bearing-fill, #6f767c);stroke:var(--wheel-hub-bearing-stroke, #2c3033);stroke-width:1}.hub-flange-cutout,.hub-flange-scallop{fill:var(--wheel-hub-cutout-fill, #f1f2f3);stroke:var(--wheel-hub-cutout-stroke, #3c4145);stroke-width:0.7}.hub-spoke-hole-side{fill:var(--wheel-hub-hole-fill, #111111);stroke:none}.hub-spoke-hole-face{fill:var(--wheel-hub-hole-fill, #111111);stroke:none}.hub-bolt-head-side{fill:var(--wheel-hub-cutout-fill, #f1f2f3);stroke:var(--wheel-hub-detail-stroke, #24272a);stroke-width:0.6}.hub-spline-line,.hub-freehub-spline,.hub-centerlock-tooth,.hub-sixbolt-side-line,.hub-freehub-thread-line,.hub-freehub-final-step-line,.hub-straightpull-slot-side{stroke:var(--wheel-hub-detail-stroke, #24272a);stroke-width:1;stroke-linecap:round;fill:none}.hub-blueprint-line{stroke:var(--wheel-hub-blueprint-stroke, #24272a);stroke-width:0.7;stroke-dasharray:3 3;fill:none;opacity:0.9}.hub-measure-guide{stroke:var(--wheel-hub-blueprint-stroke, #24272a);stroke-width:1.1;fill:none}.hub-measure-dashed{stroke-dasharray:3 3}.hub-shell-flute{stroke:var(--wheel-hub-flute-stroke, #6d747a);stroke-width:0.9;stroke-linecap:round;fill:none}.hub-shell-highlight{stroke:var(--wheel-hub-highlight-stroke, #eceff1);stroke-width:1;stroke-linecap:round}.hub-centerlock-solid-ring,.hub-freehub-xd-center-ring{fill:none;stroke:var(--wheel-hub-detail-stroke, #24272a);stroke-width:1}.hub-centerlock-dashed-ring,.hub-freehub-xd-middle-ring{fill:none;stroke:var(--wheel-hub-detail-stroke, #24272a);stroke-width:1;stroke-dasharray:1 1}</style><g class="hub-side-group hub-brand-dt-swiss hub-shell-smooth-taper hub-render-realistic" data-hub-component="hub-side" data-hub-preset="dt-swiss-350-mtb-boost-rear-6bolt"><path d="M 27.5 65.5 L 34 65.5 L 34 84.5 L 27.5 84.5 L 26 83 L 26 67 Z" class="hub-endcap" fill="var(--wheel-hub-endcap-fill, #7d848a)" stroke="var(--wheel-hub-endcap-stroke, #25282b)" stroke-width="1" data-hub-component="left-endcap"/><path d="M 35.2 57 L 37.8 57 L 39 58.2 L 39 91.8 L 37.8 93 L 35.2 93 L 34 91.8 L 34 58.2 Z" class="hub-brake-mount hub-6bolt-side" fill="var(--wheel-hub-mount-fill, #969da3)" stroke="var(--wheel-hub-mount-stroke, #2c3033)" stroke-width="1" data-hub-component="brake-mount"/><path d="M 39 57 C 43 57 56.4 49 61.4 49 L 65.4 49 C 76.472 49 88.928 62.5 100 62.5 C 106.848 62.5 114.552 53.75 121.4 53.75 L 125.4 53.75 C 129.4 49.75 125 58 129 58 L 129 92 C 125 92 129.4 100.25 125.4 96.25 L 121.4 96.25 C 114.552 96.25 106.848 87.5 100 87.5 C 88.928 87.5 76.472 101 65.4 101 L 61.4 101 C 56.4 101 43 93 39 93 Z" class="hub-cylinder hub-shell-body" fill="var(--wheel-hub-shell-fill, #bfc4c8)" stroke="var(--wheel-hub-shell-stroke, #3c4145)" stroke-width="1.2" data-hub-component="shell"/><path d="M 62.6 45 L 64.2 45 L 65.4 46.2 L 65.4 103.8 L 64.2 105 L 62.6 105 L 61.4 103.8 L 61.4 46.2 Z" class="hub-flange-left hub-flange-plate" fill="var(--wheel-hub-flange-left-fill, #d2d6d9)" stroke="var(--wheel-hub-flange-left-stroke, #3c4145)" stroke-width="1.1" data-hub-component="left-flange"/><path d="M 122.6 49.75 L 124.2 49.75 L 125.4 50.95 L 125.4 99.05 L 124.2 100.25 L 122.6 100.25 L 121.4 99.05 L 121.4 50.95 Z" class="hub-flange-right hub-flange-plate" fill="var(--wheel-hub-flange-right-fill, #aeb5ba)" stroke="var(--wheel-hub-flange-right-stroke, #3c4145)" stroke-width="1.1" data-hub-component="right-flange"/><path d="M 129 58 L 136 58 L 136 59 L 141.5 59 L 141.5 60 L 161 60 L 161 61 L 166 61 L 166 89 L 161 89 L 161 90 L 141.5 90 L 141.5 91 L 136 91 L 136 92 L 129 92 Z" class="hub-cylinder-freehub hub-freehub-xd" fill="var(--wheel-hub-freehub-fill, #c8ccd0)" stroke="var(--wheel-hub-freehub-stroke, #3c4145)" stroke-width="1" data-hub-component="freehub"/><path d="M 166 65.5 L 172.5 65.5 L 174 67 L 174 83 L 172.5 84.5 L 166 84.5 Z" class="hub-endcap" fill="var(--wheel-hub-endcap-fill, #7d848a)" stroke="var(--wheel-hub-endcap-stroke, #25282b)" stroke-width="1" data-hub-component="right-endcap"/><line x1="26" y1="42" x2="26" y2="108" class="hub-measure-guide" data-measure="old" data-measure-part="left-locknut" opacity="0"/><line x1="174" y1="42" x2="174" y2="108" class="hub-measure-guide" data-measure="old" data-measure-part="right-locknut" opacity="0"/><line x1="26" y1="75" x2="174" y2="75" class="hub-measure-guide hub-measure-dashed" data-measure="old" data-measure-part="connector" stroke-dasharray="4 4" opacity="0"/><line x1="26" y1="42" x2="26" y2="108" class="hub-measure-guide" data-measure="left-ftl" data-measure-part="locknut" opacity="0"/><line x1="63.4" y1="42" x2="63.4" y2="108" class="hub-measure-guide" data-measure="left-ftl" data-measure-part="flange-center" opacity="0"/><line x1="26" y1="75" x2="63.4" y2="75" class="hub-measure-guide hub-measure-dashed" data-measure="left-ftl" data-measure-part="connector" stroke-dasharray="4 4" opacity="0"/><line x1="174" y1="42" x2="174" y2="108" class="hub-measure-guide" data-measure="right-ftl" data-measure-part="locknut" opacity="0"/><line x1="123.4" y1="42" x2="123.4" y2="108" class="hub-measure-guide" data-measure="right-ftl" data-measure-part="flange-center" opacity="0"/><line x1="123.4" y1="75" x2="174" y2="75" class="hub-measure-guide hub-measure-dashed" data-measure="right-ftl" data-measure-part="connector" stroke-dasharray="4 4" opacity="0"/><line x1="100" y1="42" x2="100" y2="108" class="hub-measure-guide" data-measure="left-ctf" data-measure-part="centerline" opacity="0"/><line x1="63.4" y1="42" x2="63.4" y2="108" class="hub-measure-guide" data-measure="left-ctf" data-measure-part="flange-center" opacity="0"/><line x1="63.4" y1="75" x2="100" y2="75" class="hub-measure-guide hub-measure-dashed" data-measure="left-ctf" data-measure-part="connector" stroke-dasharray="4 4" opacity="0"/><line x1="100" y1="42" x2="100" y2="108" class="hub-measure-guide" data-measure="right-ctf" data-measure-part="centerline" opacity="0"/><line x1="123.4" y1="42" x2="123.4" y2="108" class="hub-measure-guide" data-measure="right-ctf" data-measure-part="flange-center" opacity="0"/><line x1="100" y1="75" x2="123.4" y2="75" class="hub-measure-guide hub-measure-dashed" data-measure="right-ctf" data-measure-part="connector" stroke-dasharray="4 4" opacity="0"/><defs><clipPath id="hub-mask-dt-swiss-350-mtb-boost-rear-6bolt-realistic"><path d="M 27.5 65.5 L 34 65.5 L 34 84.5 L 27.5 84.5 L 26 83 L 26 67 Z"></path><path d="M 35.2 57 L 37.8 57 L 39 58.2 L 39 91.8 L 37.8 93 L 35.2 93 L 34 91.8 L 34 58.2 Z"></path><path d="M 39 57 C 43 57 56.4 49 61.4 49 L 65.4 49 C 76.472 49 88.928 62.5 100 62.5 C 106.848 62.5 114.552 53.75 121.4 53.75 L 125.4 53.75 C 129.4 49.75 125 58 129 58 L 129 92 C 125 92 129.4 100.25 125.4 96.25 L 121.4 96.25 C 114.552 96.25 106.848 87.5 100 87.5 C 88.928 87.5 76.472 101 65.4 101 L 61.4 101 C 56.4 101 43 93 39 93 Z"></path><path d="M 62.6 45 L 64.2 45 L 65.4 46.2 L 65.4 103.8 L 64.2 105 L 62.6 105 L 61.4 103.8 L 61.4 46.2 Z"></path><path d="M 122.6 49.75 L 124.2 49.75 L 125.4 50.95 L 125.4 99.05 L 124.2 100.25 L 122.6 100.25 L 121.4 99.05 L 121.4 50.95 Z"></path><path d="M 129 58 L 136 58 L 136 59 L 141.5 59 L 141.5 60 L 161 60 L 161 61 L 166 61 L 166 89 L 161 89 L 161 90 L 141.5 90 L 141.5 91 L 136 91 L 136 92 L 129 92 Z"></path><path d="M 166 65.5 L 172.5 65.5 L 174 67 L 174 83 L 172.5 84.5 L 166 84.5 Z"></path></clipPath></defs><line x1="34.7" y1="69" x2="38.3" y2="69" class="hub-sixbolt-side-line" stroke="var(--wheel-hub-detail-stroke, #24272a)" fill="none" stroke-width="0.75" stroke-linecap="round" opacity="0.65"/><line x1="34.7" y1="81" x2="38.3" y2="81" class="hub-sixbolt-side-line" stroke="var(--wheel-hub-detail-stroke, #24272a)" fill="none" stroke-width="0.75" stroke-linecap="round" opacity="0.65"/><line x1="136.7" y1="60" x2="136.7" y2="90" class="hub-freehub-thread-line" stroke="var(--wheel-hub-detail-stroke, #24272a)" fill="none" stroke-width="0.55" stroke-linecap="round" opacity="0.45"/><line x1="137.9" y1="60" x2="137.9" y2="90" class="hub-freehub-thread-line" stroke="var(--wheel-hub-detail-stroke, #24272a)" fill="none" stroke-width="0.55" stroke-linecap="round" opacity="0.45"/><line x1="139.1" y1="60" x2="139.1" y2="90" class="hub-freehub-thread-line" stroke="var(--wheel-hub-detail-stroke, #24272a)" fill="none" stroke-width="0.55" stroke-linecap="round" opacity="0.45"/><line x1="140.3" y1="60" x2="140.3" y2="90" class="hub-freehub-thread-line" stroke="var(--wheel-hub-detail-stroke, #24272a)" fill="none" stroke-width="0.55" stroke-linecap="round" opacity="0.45"/><line x1="141.5" y1="60" x2="141.5" y2="90" class="hub-freehub-thread-line" stroke="var(--wheel-hub-detail-stroke, #24272a)" fill="none" stroke-width="0.55" stroke-linecap="round" opacity="0.45"/><line x1="129.8" y1="62.857" x2="136" y2="62.857" class="hub-freehub-spline" stroke="var(--wheel-hub-detail-stroke, #24272a)" fill="none" stroke-width="0.75" stroke-linecap="round" opacity="0.7"/><line x1="129.8" y1="67.714" x2="136" y2="67.714" class="hub-freehub-spline" stroke="var(--wheel-hub-detail-stroke, #24272a)" fill="none" stroke-width="0.75" stroke-linecap="round" opacity="0.7"/><line x1="129.8" y1="72.571" x2="136" y2="72.571" class="hub-freehub-spline" stroke="var(--wheel-hub-detail-stroke, #24272a)" fill="none" stroke-width="0.75" stroke-linecap="round" opacity="0.7"/><line x1="129.8" y1="77.429" x2="136" y2="77.429" class="hub-freehub-spline" stroke="var(--wheel-hub-detail-stroke, #24272a)" fill="none" stroke-width="0.75" stroke-linecap="round" opacity="0.7"/><line x1="129.8" y1="82.286" x2="136" y2="82.286" class="hub-freehub-spline" stroke="var(--wheel-hub-detail-stroke, #24272a)" fill="none" stroke-width="0.75" stroke-linecap="round" opacity="0.7"/><line x1="129.8" y1="87.143" x2="136" y2="87.143" class="hub-freehub-spline" stroke="var(--wheel-hub-detail-stroke, #24272a)" fill="none" stroke-width="0.75" stroke-linecap="round" opacity="0.7"/><line x1="161" y1="60" x2="161" y2="90" class="hub-freehub-final-step-line" stroke="var(--wheel-hub-detail-stroke, #24272a)" fill="none" stroke-width="0.65" stroke-linecap="round" opacity="0.5"/></g></svg>
