<svg xmlns="http://www.w3.org/2000/svg" width="360" height="360" viewBox="0 0 360 360"><style>
    .wheel-bg{fill:#ffffff}
    .wheel-guide{stroke:#cbd5e1;stroke-width:1}
    .wheel-rim{fill:#334155;stroke:#0f172a;stroke-width:2}
    .wheel-rim-inner{fill:#ffffff;stroke:#0f172a;stroke-width:1}
    .wheel-spoke{fill:none;stroke-linecap:round;stroke-width:2.2}
    .wheel-spoke.left{stroke:#2563eb}
    .wheel-spoke.right{stroke:#f97316}
    .wheel-spoke.muted{stroke:#64748b;opacity:.42}
    .wheel-spoke.trailing{stroke-dasharray:7 5}
    .wheel-hub{fill:#111827;stroke:#020617;stroke-width:2}
    .wheel-hole{fill:#ffffff;stroke:#b91c1c;stroke-width:2}
    .wheel-marker{fill:#b91c1c;stroke:#ffffff;stroke-width:3}
    .wheel-label{fill:#0f172a;font:600 16px system-ui,sans-serif}
    .wheel-dim{stroke:#eab308;stroke-width:3;fill:none;stroke-linecap:round}
    .wheel-dim-text{fill:#0f172a;font:600 14px system-ui,sans-serif}
    .wheel-shell{fill:#111827;stroke:#020617;stroke-width:2}
    .wheel-cassette-slot svg{overflow:visible}
  </style><rect x="0" y="0" width="360" height="360" class="wheel-bg"/><circle cx="180" cy="180" r="72.5" class="wheel-hub left"/><circle cx="180" cy="180" r="65" class="wheel-hub right" opacity=".7"/><circle cx="180" cy="180" r="43.2" class="wheel-shell"/><circle cx="180" cy="180" r="14.4" fill="#ffffff" stroke="#020617" stroke-width="2"/><g class="wheel-hub-face-holes"><circle cx="187.106" cy="107.849" r="4" class="wheel-hole"/><circle cx="214.176" cy="116.061" r="4" class="wheel-hole"/><circle cx="236.043" cy="134.006" r="4" class="wheel-hole"/><circle cx="249.378" cy="158.954" r="4" class="wheel-hole"/><circle cx="252.151" cy="187.106" r="4" class="wheel-hole"/><circle cx="243.939" cy="214.176" r="4" class="wheel-hole"/><circle cx="225.994" cy="236.043" r="4" class="wheel-hole"/><circle cx="201.046" cy="249.378" r="4" class="wheel-hole"/><circle cx="172.894" cy="252.151" r="4" class="wheel-hole"/><circle cx="145.824" cy="243.939" r="4" class="wheel-hole"/><circle cx="123.957" cy="225.994" r="4" class="wheel-hole"/><circle cx="110.622" cy="201.046" r="4" class="wheel-hole"/><circle cx="107.849" cy="172.894" r="4" class="wheel-hole"/><circle cx="116.061" cy="145.824" r="4" class="wheel-hole"/><circle cx="134.006" cy="123.957" r="4" class="wheel-hole"/><circle cx="158.954" cy="110.622" r="4" class="wheel-hole"/><circle cx="198.869" cy="117.799" r="4" class="wheel-hole"/><circle cx="221.236" cy="129.754" r="4" class="wheel-hole"/><circle cx="237.325" cy="149.359" r="4" class="wheel-hole"/><circle cx="244.687" cy="173.629" r="4" class="wheel-hole"/><circle cx="242.201" cy="198.869" r="4" class="wheel-hole"/><circle cx="230.246" cy="221.236" r="4" class="wheel-hole"/><circle cx="210.641" cy="237.325" r="4" class="wheel-hole"/><circle cx="186.371" cy="244.687" r="4" class="wheel-hole"/><circle cx="161.131" cy="242.201" r="4" class="wheel-hole"/><circle cx="138.764" cy="230.246" r="4" class="wheel-hole"/><circle cx="122.675" cy="210.641" r="4" class="wheel-hole"/><circle cx="115.313" cy="186.371" r="4" class="wheel-hole"/><circle cx="117.799" cy="161.131" r="4" class="wheel-hole"/><circle cx="129.754" cy="138.764" r="4" class="wheel-hole"/><circle cx="149.359" cy="122.675" r="4" class="wheel-hole"/><circle cx="173.629" cy="115.313" r="4" class="wheel-hole"/></g><text x="180" y="34" class="wheel-label" text-anchor="middle">32h hub face</text></svg>
