<svg xmlns="http://www.w3.org/2000/svg" width="1200" height="735" viewBox="0 0 1200 735">
  <defs>
    <pattern id="draft-grid" width="20" height="20" patternUnits="userSpaceOnUse">
      <circle cx="1" cy="1" r="1" fill="#e5e7eb"/>
    </pattern>
  </defs>
  <rect width="1200" height="735" fill="#f3f4f6"/>
  <rect width="1200" height="735" fill="url(#draft-grid)"/>
  <text x="600" y="36" text-anchor="middle" font-family="system-ui, sans-serif" font-size="24" font-weight="800" fill="#1f2937">Realistic Hub Appearance Visualizer</text>
  
    <g transform="translate(60 70)">
      <rect x="0" y="0" width="510" height="285" fill="#fff" stroke="#d1d5db" stroke-width="1.2" rx="10"/>
      <text x="255" y="34" text-anchor="middle" font-family="system-ui, sans-serif" font-size="18" font-weight="700" fill="#374151">Rear - DT Swiss 240 EXP Centerlock</text>
      <g transform="translate(100 54) scale(1.55)">
        <g class="hub-side-group hub-brand-dt-swiss hub-shell-smooth-taper hub-render-realistic" data-hub-preset="dt-swiss-240-exp-boost-rear-centerlock"><path d="M 27.5 66 L 34 66 L 34 84 L 27.5 84 L 26 82.5 L 26 67.5 Z" class="hub-endcap" fill="#8f9498" stroke="#111111" stroke-width="1"/><path d="M 35.2 57 L 37.8 57 L 39 58.2 L 39 91.8 L 37.8 93 L 35.2 93 L 34 91.8 L 34 58.2 Z" class="hub-brake-mount hub-centerlock-side" fill="#9fa4a8" stroke="#111111" stroke-width="1"/><path d="M 39 57 C 43 57 55.95 53.8 60.95 53.8 L 64.45 53.8 C 75.115 53.8 89.335 63 100 63 C 106.255 63 114.595 53.8 120.85 53.8 L 124.35 53.8 C 128.35 49.8 125 58.5 129 58.5 L 129 91.5 C 125 91.5 128.35 100.2 124.35 100.2 L 120.85 96.2 C 114.595 96.2 106.255 87 100 87 C 89.335 87 75.115 96.2 64.45 96.2 L 60.95 96.2 C 55.95 96.2 43 93 39 93 Z" class="hub-cylinder hub-shell-body" fill="#c9cdd0" stroke="#111111" stroke-width="1.2"/><path d="M 62.117 49.8 L 63.283 49.8 L 64.45 50.967 L 64.45 99.033 L 63.283 100.2 L 62.117 100.2 L 60.95 99.033 L 60.95 50.967 Z" class="hub-flange-left hub-flange-plate" fill="#d8dadd" stroke="#111111" stroke-width="1.1"/><path d="M 122.017 49.8 L 123.183 49.8 L 124.35 50.967 L 124.35 99.033 L 123.183 100.2 L 122.017 100.2 L 120.85 99.033 L 120.85 50.967 Z" class="hub-flange-right hub-flange-plate" fill="#babfc3" stroke="#111111" stroke-width="1.1"/><path d="M 129 58.5 L 166 58.5 L 166 91.5 L 129 91.5 Z" class="hub-cylinder-freehub hub-freehub-hg" fill="#d7d9dc" stroke="#111111" stroke-width="1"/><path d="M 166 66 L 172.5 66 L 174 67.5 L 174 82.5 L 172.5 84 L 166 84 Z" class="hub-endcap" fill="#8f9498" stroke="#111111" stroke-width="1"/><defs><clipPath id="hub-mask-dt-swiss-240-exp-boost-rear-centerlock-realistic"><path d="M 27.5 66 L 34 66 L 34 84 L 27.5 84 L 26 82.5 L 26 67.5 Z"></path><path d="M 35.2 57 L 37.8 57 L 39 58.2 L 39 91.8 L 37.8 93 L 35.2 93 L 34 91.8 L 34 58.2 Z"></path><path d="M 39 57 C 43 57 55.95 53.8 60.95 53.8 L 64.45 53.8 C 75.115 53.8 89.335 63 100 63 C 106.255 63 114.595 53.8 120.85 53.8 L 124.35 53.8 C 128.35 49.8 125 58.5 129 58.5 L 129 91.5 C 125 91.5 128.35 100.2 124.35 100.2 L 120.85 96.2 C 114.595 96.2 106.255 87 100 87 C 89.335 87 75.115 96.2 64.45 96.2 L 60.95 96.2 C 55.95 96.2 43 93 39 93 Z"></path><path d="M 62.117 49.8 L 63.283 49.8 L 64.45 50.967 L 64.45 99.033 L 63.283 100.2 L 62.117 100.2 L 60.95 99.033 L 60.95 50.967 Z"></path><path d="M 122.017 49.8 L 123.183 49.8 L 124.35 50.967 L 124.35 99.033 L 123.183 100.2 L 122.017 100.2 L 120.85 99.033 L 120.85 50.967 Z"></path><path d="M 129 58.5 L 166 58.5 L 166 91.5 L 129 91.5 Z"></path><path d="M 166 66 L 172.5 66 L 174 67.5 L 174 82.5 L 172.5 84 L 166 84 Z"></path></clipPath></defs><line x1="35.5" y1="58" x2="35.5" y2="92" class="hub-centerlock-tooth" fill="none" stroke="#222222" stroke-width="0.55" stroke-linecap="round" opacity="0.55"/><line x1="37.1" y1="58" x2="37.1" y2="92" class="hub-centerlock-tooth" fill="none" stroke="#222222" stroke-width="0.55" stroke-linecap="round" opacity="0.55"/><line x1="38.7" y1="58" x2="38.7" y2="92" class="hub-centerlock-tooth" fill="none" stroke="#222222" stroke-width="0.55" stroke-linecap="round" opacity="0.55"/><line x1="129" y1="65.1" x2="165" y2="65.1" class="hub-freehub-spline" fill="none" stroke="#222222" stroke-width="0.75" stroke-linecap="round" opacity="0.7"/><line x1="129" y1="71.7" x2="165" y2="71.7" class="hub-freehub-spline" fill="none" stroke="#222222" stroke-width="0.75" stroke-linecap="round" opacity="0.7"/><line x1="129" y1="78.3" x2="165" y2="78.3" class="hub-freehub-spline" fill="none" stroke="#222222" stroke-width="0.75" stroke-linecap="round" opacity="0.7"/><line x1="129" y1="84.9" x2="165" y2="84.9" class="hub-freehub-spline" fill="none" stroke="#222222" stroke-width="0.75" stroke-linecap="round" opacity="0.7"/></g>
      </g>
      <g opacity="0.42" font-family="system-ui, sans-serif" font-size="13" fill="#111">
        <line x1="115" y1="258" x2="395" y2="258" stroke="#111" stroke-width="1" stroke-dasharray="5 5"/>
        <line x1="115" y1="249" x2="115" y2="267" stroke="#111" stroke-width="1"/>
        <line x1="395" y1="249" x2="395" y2="267" stroke="#111" stroke-width="1"/>
        <text x="255" y="252" text-anchor="middle">O.L.D. 148mm</text>
      </g>
    </g>
  
    <g transform="translate(630 70)">
      <rect x="0" y="0" width="510" height="285" fill="#fff" stroke="#d1d5db" stroke-width="1.2" rx="10"/>
      <text x="255" y="34" text-anchor="middle" font-family="system-ui, sans-serif" font-size="18" font-weight="700" fill="#374151">Rear - Industry Nine Hydra2 6-Bolt</text>
      <g transform="translate(100 54) scale(1.55)">
        <g class="hub-side-group hub-brand-industry-nine hub-shell-fluted hub-render-realistic" data-hub-preset="industry-nine-hydra2-boost-rear-6bolt"><path d="M 27.5 65.5 L 34 65.5 L 34 84.5 L 27.5 84.5 L 26 83 L 26 67 Z" class="hub-endcap" fill="#8f9498" stroke="#111111" stroke-width="1"/><path d="M 35.2 57 L 37.8 57 L 39 58.2 L 39 91.8 L 37.8 93 L 35.2 93 L 34 91.8 L 34 58.2 Z" class="hub-brake-mount hub-6bolt-side" fill="#9fa4a8" stroke="#111111" stroke-width="1"/><path d="M 39 57 C 43 57 55.6 50.25 60.6 50.25 L 65.6 50.25 C 80.048 50.25 85.552 61 100 61 C 108.904 61 112.296 49 121.2 49 L 126.2 49 C 130.2 44 125 57 129 57 L 129 93 C 125 93 130.2 106 126.2 106 L 121.2 101 C 112.296 101 108.904 89 100 89 C 85.552 89 80.048 99.75 65.6 99.75 L 60.6 99.75 C 55.6 99.75 43 93 39 93 Z" class="hub-cylinder hub-shell-body" fill="#c9cdd0" stroke="#111111" stroke-width="1.2"/><path d="M 61.8 45.25 L 64.4 45.25 L 65.6 46.45 L 65.6 103.55 L 64.4 104.75 L 61.8 104.75 L 60.6 103.55 L 60.6 46.45 Z" class="hub-flange-left hub-flange-plate" fill="#d8dadd" stroke="#111111" stroke-width="1.1"/><path d="M 122.4 44 L 125 44 L 126.2 45.2 L 126.2 104.8 L 125 106 L 122.4 106 L 121.2 104.8 L 121.2 45.2 Z" class="hub-flange-right hub-flange-plate" fill="#babfc3" stroke="#111111" stroke-width="1.1"/><path d="M 129 57 L 136 57 L 136 58 L 141.5 58 L 141.5 59 L 161 59 L 161 60 L 166 60 L 166 90 L 161 90 L 161 91 L 141.5 91 L 141.5 92 L 136 92 L 136 93 L 129 93 Z" class="hub-cylinder-freehub hub-freehub-xd" fill="#d7d9dc" stroke="#111111" stroke-width="1"/><path d="M 166 65.5 L 172.5 65.5 L 174 67 L 174 83 L 172.5 84.5 L 166 84.5 Z" class="hub-endcap" fill="#8f9498" stroke="#111111" stroke-width="1"/><defs><clipPath id="hub-mask-industry-nine-hydra2-boost-rear-6bolt-realistic"><path d="M 27.5 65.5 L 34 65.5 L 34 84.5 L 27.5 84.5 L 26 83 L 26 67 Z"></path><path d="M 35.2 57 L 37.8 57 L 39 58.2 L 39 91.8 L 37.8 93 L 35.2 93 L 34 91.8 L 34 58.2 Z"></path><path d="M 39 57 C 43 57 55.6 50.25 60.6 50.25 L 65.6 50.25 C 80.048 50.25 85.552 61 100 61 C 108.904 61 112.296 49 121.2 49 L 126.2 49 C 130.2 44 125 57 129 57 L 129 93 C 125 93 130.2 106 126.2 106 L 121.2 101 C 112.296 101 108.904 89 100 89 C 85.552 89 80.048 99.75 65.6 99.75 L 60.6 99.75 C 55.6 99.75 43 93 39 93 Z"></path><path d="M 61.8 45.25 L 64.4 45.25 L 65.6 46.45 L 65.6 103.55 L 64.4 104.75 L 61.8 104.75 L 60.6 103.55 L 60.6 46.45 Z"></path><path d="M 122.4 44 L 125 44 L 126.2 45.2 L 126.2 104.8 L 125 106 L 122.4 106 L 121.2 104.8 L 121.2 45.2 Z"></path><path d="M 129 57 L 136 57 L 136 58 L 141.5 58 L 141.5 59 L 161 59 L 161 60 L 166 60 L 166 90 L 161 90 L 161 91 L 141.5 91 L 141.5 92 L 136 92 L 136 93 L 129 93 Z"></path><path d="M 166 65.5 L 172.5 65.5 L 174 67 L 174 83 L 172.5 84.5 L 166 84.5 Z"></path></clipPath></defs><line x1="34.7" y1="69" x2="38.3" y2="69" class="hub-sixbolt-side-line" fill="none" stroke="#222222" stroke-width="0.75" stroke-linecap="round" opacity="0.65"/><line x1="34.7" y1="81" x2="38.3" y2="81" class="hub-sixbolt-side-line" fill="none" stroke="#222222" stroke-width="0.75" stroke-linecap="round" opacity="0.65"/><line x1="136.7" y1="59" x2="136.7" y2="91" class="hub-freehub-thread-line" fill="none" stroke="#222222" stroke-width="0.55" stroke-linecap="round" opacity="0.45"/><line x1="137.9" y1="59" x2="137.9" y2="91" class="hub-freehub-thread-line" fill="none" stroke="#222222" stroke-width="0.55" stroke-linecap="round" opacity="0.45"/><line x1="139.1" y1="59" x2="139.1" y2="91" class="hub-freehub-thread-line" fill="none" stroke="#222222" stroke-width="0.55" stroke-linecap="round" opacity="0.45"/><line x1="140.3" y1="59" x2="140.3" y2="91" class="hub-freehub-thread-line" fill="none" stroke="#222222" stroke-width="0.55" stroke-linecap="round" opacity="0.45"/><line x1="141.5" y1="59" x2="141.5" y2="91" class="hub-freehub-thread-line" fill="none" stroke="#222222" stroke-width="0.55" stroke-linecap="round" opacity="0.45"/><line x1="129.8" y1="62.143" x2="136" y2="62.143" class="hub-freehub-spline" fill="none" stroke="#222222" stroke-width="0.75" stroke-linecap="round" opacity="0.7"/><line x1="129.8" y1="67.286" x2="136" y2="67.286" class="hub-freehub-spline" fill="none" stroke="#222222" stroke-width="0.75" stroke-linecap="round" opacity="0.7"/><line x1="129.8" y1="72.429" x2="136" y2="72.429" class="hub-freehub-spline" fill="none" stroke="#222222" stroke-width="0.75" stroke-linecap="round" opacity="0.7"/><line x1="129.8" y1="77.571" x2="136" y2="77.571" class="hub-freehub-spline" fill="none" stroke="#222222" stroke-width="0.75" stroke-linecap="round" opacity="0.7"/><line x1="129.8" y1="82.714" x2="136" y2="82.714" class="hub-freehub-spline" fill="none" stroke="#222222" stroke-width="0.75" stroke-linecap="round" opacity="0.7"/><line x1="129.8" y1="87.857" x2="136" y2="87.857" class="hub-freehub-spline" fill="none" stroke="#222222" stroke-width="0.75" stroke-linecap="round" opacity="0.7"/><line x1="161" y1="59" x2="161" y2="91" class="hub-freehub-final-step-line" fill="none" stroke="#222222" stroke-width="0.65" stroke-linecap="round" opacity="0.5"/></g>
      </g>
      <g opacity="0.42" font-family="system-ui, sans-serif" font-size="13" fill="#111">
        <line x1="115" y1="258" x2="395" y2="258" stroke="#111" stroke-width="1" stroke-dasharray="5 5"/>
        <line x1="115" y1="249" x2="115" y2="267" stroke="#111" stroke-width="1"/>
        <line x1="395" y1="249" x2="395" y2="267" stroke="#111" stroke-width="1"/>
        <text x="255" y="252" text-anchor="middle">O.L.D. 148mm</text>
      </g>
    </g>
  
    <g transform="translate(60 400)">
      <rect x="0" y="0" width="510" height="285" fill="#fff" stroke="#d1d5db" stroke-width="1.2" rx="10"/>
      <text x="255" y="34" text-anchor="middle" font-family="system-ui, sans-serif" font-size="18" font-weight="700" fill="#374151">Front - MTB Boost 6-Bolt</text>
      <g transform="translate(100 54) scale(1.55)">
        <g class="hub-side-group hub-brand-generic hub-shell-smooth-taper hub-render-realistic"><path d="M 46.5 65.5 L 53 65.5 L 53 84.5 L 46.5 84.5 L 45 83 L 45 67 Z" class="hub-endcap" fill="#8f9498" stroke="#111111" stroke-width="1"/><path d="M 54.2 57 L 56.8 57 L 58 58.2 L 58 91.8 L 56.8 93 L 54.2 93 L 53 91.8 L 53 58.2 Z" class="hub-brake-mount hub-6bolt-side" fill="#9fa4a8" stroke="#111111" stroke-width="1"/><path d="M 58 57 C 62 57 62 50 67 50 L 71 50 C 81.15 50 89.85 62.5 100 62.5 C 110.85 62.5 120.15 56.5 131 56.5 L 135 56.5 C 139 52.5 143 58 147 58 L 147 92 C 143 92 139 97.5 135 97.5 L 131 93.5 C 120.15 93.5 110.85 87.5 100 87.5 C 89.85 87.5 81.15 100 71 100 L 67 100 C 62 100 62 93 58 93 Z" class="hub-cylinder hub-shell-body" fill="#c9cdd0" stroke="#111111" stroke-width="1.2"/><path d="M 68.2 46 L 69.8 46 L 71 47.2 L 71 102.8 L 69.8 104 L 68.2 104 L 67 102.8 L 67 47.2 Z" class="hub-flange-left hub-flange-plate" fill="#d8dadd" stroke="#111111" stroke-width="1.1"/><path d="M 132.2 52.5 L 133.8 52.5 L 135 53.7 L 135 96.3 L 133.8 97.5 L 132.2 97.5 L 131 96.3 L 131 53.7 Z" class="hub-flange-right hub-flange-plate" fill="#babfc3" stroke="#111111" stroke-width="1.1"/><path d="M 147 58 L 147 58 L 147 92 L 147 92 Z" class="hub-cylinder-freehub hub-freehub-hg" fill="#d7d9dc" stroke="#111111" stroke-width="1"/><path d="M 147 65.5 L 153.5 65.5 L 155 67 L 155 83 L 153.5 84.5 L 147 84.5 Z" class="hub-endcap" fill="#8f9498" stroke="#111111" stroke-width="1"/><defs><clipPath id="hub-mask-custom-realistic"><path d="M 46.5 65.5 L 53 65.5 L 53 84.5 L 46.5 84.5 L 45 83 L 45 67 Z"></path><path d="M 54.2 57 L 56.8 57 L 58 58.2 L 58 91.8 L 56.8 93 L 54.2 93 L 53 91.8 L 53 58.2 Z"></path><path d="M 58 57 C 62 57 62 50 67 50 L 71 50 C 81.15 50 89.85 62.5 100 62.5 C 110.85 62.5 120.15 56.5 131 56.5 L 135 56.5 C 139 52.5 143 58 147 58 L 147 92 C 143 92 139 97.5 135 97.5 L 131 93.5 C 120.15 93.5 110.85 87.5 100 87.5 C 89.85 87.5 81.15 100 71 100 L 67 100 C 62 100 62 93 58 93 Z"></path><path d="M 68.2 46 L 69.8 46 L 71 47.2 L 71 102.8 L 69.8 104 L 68.2 104 L 67 102.8 L 67 47.2 Z"></path><path d="M 132.2 52.5 L 133.8 52.5 L 135 53.7 L 135 96.3 L 133.8 97.5 L 132.2 97.5 L 131 96.3 L 131 53.7 Z"></path><path d="M 147 58 L 147 58 L 147 92 L 147 92 Z"></path><path d="M 147 65.5 L 153.5 65.5 L 155 67 L 155 83 L 153.5 84.5 L 147 84.5 Z"></path></clipPath></defs><line x1="53.7" y1="69" x2="57.3" y2="69" class="hub-sixbolt-side-line" fill="none" stroke="#222222" stroke-width="0.75" stroke-linecap="round" opacity="0.65"/><line x1="53.7" y1="81" x2="57.3" y2="81" class="hub-sixbolt-side-line" fill="none" stroke="#222222" stroke-width="0.75" stroke-linecap="round" opacity="0.65"/><line x1="147" y1="64.8" x2="146" y2="64.8" class="hub-freehub-spline" fill="none" stroke="#222222" stroke-width="0.75" stroke-linecap="round" opacity="0.7"/><line x1="147" y1="71.6" x2="146" y2="71.6" class="hub-freehub-spline" fill="none" stroke="#222222" stroke-width="0.75" stroke-linecap="round" opacity="0.7"/><line x1="147" y1="78.4" x2="146" y2="78.4" class="hub-freehub-spline" fill="none" stroke="#222222" stroke-width="0.75" stroke-linecap="round" opacity="0.7"/><line x1="147" y1="85.2" x2="146" y2="85.2" class="hub-freehub-spline" fill="none" stroke="#222222" stroke-width="0.75" stroke-linecap="round" opacity="0.7"/></g>
      </g>
      <g opacity="0.42" font-family="system-ui, sans-serif" font-size="13" fill="#111">
        <line x1="115" y1="258" x2="395" y2="258" stroke="#111" stroke-width="1" stroke-dasharray="5 5"/>
        <line x1="115" y1="249" x2="115" y2="267" stroke="#111" stroke-width="1"/>
        <line x1="395" y1="249" x2="395" y2="267" stroke="#111" stroke-width="1"/>
        <text x="255" y="252" text-anchor="middle">O.L.D. 110mm</text>
      </g>
    </g>
  
    <g transform="translate(630 400)">
      <rect x="0" y="0" width="510" height="285" fill="#fff" stroke="#d1d5db" stroke-width="1.2" rx="10"/>
      <text x="255" y="34" text-anchor="middle" font-family="system-ui, sans-serif" font-size="18" font-weight="700" fill="#374151">Front - Classic Road Rim Brake</text>
      <g transform="translate(100 54) scale(1.55)">
        <g class="hub-side-group hub-brand-generic hub-shell-smooth-taper hub-render-realistic"><path d="M 51.5 67 L 58 67 L 58 83 L 51.5 83 L 50 81.5 L 50 68.5 Z" class="hub-endcap" fill="#8f9498" stroke="#111111" stroke-width="1"/><path d="M 58 63 C 62 63 59.25 56 64.25 56 L 67.75 56 C 79.037 56 88.713 62.5 100 62.5 C 111.287 62.5 120.963 56 132.25 56 L 135.75 56 C 139.75 52 138 58 142 58 L 142 92 C 138 92 139.75 98 135.75 98 L 132.25 94 C 120.963 94 111.287 87.5 100 87.5 C 88.713 87.5 79.037 94 67.75 94 L 64.25 94 C 59.25 94 62 87 58 87 Z" class="hub-cylinder hub-shell-body" fill="#c9cdd0" stroke="#111111" stroke-width="1.2"/><path d="M 65.417 52 L 66.583 52 L 67.75 53.167 L 67.75 96.833 L 66.583 98 L 65.417 98 L 64.25 96.833 L 64.25 53.167 Z" class="hub-flange-left hub-flange-plate" fill="#d8dadd" stroke="#111111" stroke-width="1.1"/><path d="M 133.417 52 L 134.583 52 L 135.75 53.167 L 135.75 96.833 L 134.583 98 L 133.417 98 L 132.25 96.833 L 132.25 53.167 Z" class="hub-flange-right hub-flange-plate" fill="#babfc3" stroke="#111111" stroke-width="1.1"/><path d="M 142 58 L 142 58 L 142 92 L 142 92 Z" class="hub-cylinder-freehub hub-freehub-hg" fill="#d7d9dc" stroke="#111111" stroke-width="1"/><path d="M 142 67 L 148.5 67 L 150 68.5 L 150 81.5 L 148.5 83 L 142 83 Z" class="hub-endcap" fill="#8f9498" stroke="#111111" stroke-width="1"/><defs><clipPath id="hub-mask-custom-realistic"><path d="M 51.5 67 L 58 67 L 58 83 L 51.5 83 L 50 81.5 L 50 68.5 Z"></path><path d="M 58 63 C 62 63 59.25 56 64.25 56 L 67.75 56 C 79.037 56 88.713 62.5 100 62.5 C 111.287 62.5 120.963 56 132.25 56 L 135.75 56 C 139.75 52 138 58 142 58 L 142 92 C 138 92 139.75 98 135.75 98 L 132.25 94 C 120.963 94 111.287 87.5 100 87.5 C 88.713 87.5 79.037 94 67.75 94 L 64.25 94 C 59.25 94 62 87 58 87 Z"></path><path d="M 65.417 52 L 66.583 52 L 67.75 53.167 L 67.75 96.833 L 66.583 98 L 65.417 98 L 64.25 96.833 L 64.25 53.167 Z"></path><path d="M 133.417 52 L 134.583 52 L 135.75 53.167 L 135.75 96.833 L 134.583 98 L 133.417 98 L 132.25 96.833 L 132.25 53.167 Z"></path><path d="M 142 58 L 142 58 L 142 92 L 142 92 Z"></path><path d="M 142 67 L 148.5 67 L 150 68.5 L 150 81.5 L 148.5 83 L 142 83 Z"></path></clipPath></defs><line x1="142" y1="64.8" x2="141" y2="64.8" class="hub-freehub-spline" fill="none" stroke="#222222" stroke-width="0.75" stroke-linecap="round" opacity="0.7"/><line x1="142" y1="71.6" x2="141" y2="71.6" class="hub-freehub-spline" fill="none" stroke="#222222" stroke-width="0.75" stroke-linecap="round" opacity="0.7"/><line x1="142" y1="78.4" x2="141" y2="78.4" class="hub-freehub-spline" fill="none" stroke="#222222" stroke-width="0.75" stroke-linecap="round" opacity="0.7"/><line x1="142" y1="85.2" x2="141" y2="85.2" class="hub-freehub-spline" fill="none" stroke="#222222" stroke-width="0.75" stroke-linecap="round" opacity="0.7"/></g>
      </g>
      <g opacity="0.42" font-family="system-ui, sans-serif" font-size="13" fill="#111">
        <line x1="115" y1="258" x2="395" y2="258" stroke="#111" stroke-width="1" stroke-dasharray="5 5"/>
        <line x1="115" y1="249" x2="115" y2="267" stroke="#111" stroke-width="1"/>
        <line x1="395" y1="249" x2="395" y2="267" stroke="#111" stroke-width="1"/>
        <text x="255" y="252" text-anchor="middle">O.L.D. 100mm</text>
      </g>
    </g>
  
</svg>
