<svg xmlns="http://www.w3.org/2000/svg" width="150" height="150" viewBox="0 0 150 150" preserveAspectRatio="xMidYMid meet" class="hub-svg"><style>
    :root{--rim-color:#343a40;--spoke-left-pulling:#0d6efd;--spoke-left-trailing:#0dcaf0;--spoke-right-pulling:#fd7e14;--spoke-right-trailing:#ffc107}
    .wheel-svg,.hub-svg{background:#fff}
    .rim-body{fill:#343a40;stroke:#212529;stroke-width:1;fill-rule:evenodd}
    .rim-outline{fill:none;stroke:#111;stroke-width:1.5}
    .rim-highlight{fill:none;stroke:rgba(255,255,255,.15);stroke-width:1}
    .hub-flange-right{fill:#dce8f3;stroke:#244b6f;stroke-width:1;fill-rule:evenodd}
    .hub-flange-left{fill:#e6eef6;stroke:#244b6f;stroke-width:1;fill-rule:evenodd}
    .hub-brake-mount{fill:#d4e1ec;stroke:#244b6f;stroke-width:1;fill-rule:evenodd}
    .hub-cylinder{fill:#eaf1f8;stroke:#244b6f;stroke-width:1;fill-rule:evenodd}
    .hub-cylinder-dark{fill:#d8e4ef;stroke:#244b6f;stroke-width:1;fill-rule:evenodd}
    .hub-cylinder-freehub{fill:#eef3f8;stroke:#244b6f;stroke-width:1;fill-rule:evenodd}
    .hub-axle{fill:#f8fbfd;stroke:#5d7f9e;stroke-width:.8}
    .hub-endcap{fill:#e7eef5;stroke:#315c82;stroke-width:1}
    .hub-axle-tip{fill:#f8fbfd;stroke:#5d7f9e;stroke-width:.8}
    .hub-shell-body{fill:#eaf1f8;stroke:#1f4b72;stroke-width:1.2}
    .hub-brand-dt-swiss .hub-shell-body{fill:#edf3f8}
    .hub-brand-industry-nine .hub-shell-body{fill:#e3edf6}
    .hub-shell-flute{stroke:#7399ba;stroke-width:.9;stroke-linecap:round;fill:none}
    .hub-shell-highlight{stroke:#9ab9d4;stroke-width:1;stroke-linecap:round}
    .hub-bearing-ring{fill:#d2e0ec;stroke:#244b6f;stroke-width:1}
    .hub-flange-plate{stroke-width:1.1}
    .hub-flange-cutout{fill:#fff;stroke:#5d7f9e;stroke-width:.7}
    .hub-spoke-hole-side{fill:#315c82;stroke:none}
    .hub-bolt-head-side{fill:#fff;stroke:#315c82;stroke-width:.6}
    .hub-centerlock-side{fill:#dce8f3}
    .hub-sixbolt-side{fill:#dce8f3}
    .hub-spline-line,.hub-freehub-spline{stroke:#315c82;stroke-width:1;stroke-linecap:round}
    .hub-blueprint-line{stroke:#78a9d4;stroke-width:.7;stroke-dasharray:3 3;fill:none;opacity:.9}
    .rim-hole{fill:#111;stroke:#343a40;stroke-width:.5}
    .valve-hole-marker{fill:#dc3545}
    .valve-hole-line{stroke:#dc3545;stroke-width:2.5;stroke-linecap:round}
    .valve-label{font-family:sans-serif;font-size:14px;fill:#495057;font-weight:bold}
    .spoke-nipple{stroke-width:5;stroke-linecap:butt}
    .nipple-theme-silver .spoke-nipple{stroke:#adb5bd}
    .nipple-theme-black .spoke-nipple{stroke:#212529}
    .spoke{stroke-width:1.5;stroke-linecap:round}
    .spoke-theme-color .spoke-left.spoke-pulling{stroke:#0d6efd}
    .spoke-theme-color .spoke-left.spoke-trailing{stroke:#0dcaf0}
    .spoke-theme-color .spoke-right.spoke-pulling{stroke:#fd7e14;stroke-dasharray:4 4}
    .spoke-theme-color .spoke-right.spoke-trailing{stroke:#ffc107;stroke-dasharray:4 4}
    .spoke-theme-black .spoke{stroke:#212529}
    .spoke-theme-silver .spoke{stroke:#ced4da}
  </style><g class="hub-face-group hub-brand-dt-swiss"><path d="M 90.852 69.747 C 91.433 69.657 94.021 67.066 94.701 66.902 C 95.38 66.738 99.253 67.119 99.914 67.565 C 100.576 68.012 103.249 72.139 103.52 72.857 C 103.79 73.575 103.79 76.425 103.52 77.143 C 103.249 77.861 100.576 81.988 99.914 82.435 C 99.253 82.881 95.38 83.262 94.701 83.098 C 94.021 82.934 91.433 80.343 90.852 80.253 C 90.271 80.163 87.204 81.461 86.951 81.9 C 86.698 82.339 87.107 85.643 87.476 86.102 C 87.844 86.56 91.382 87.505 91.863 88.012 C 92.345 88.519 93.952 92.063 93.896 92.859 C 93.84 93.655 91.603 98.034 91.116 98.627 C 90.629 99.221 88.161 100.645 87.404 100.77 C 86.647 100.895 81.736 100.643 81.018 100.294 C 80.301 99.944 78.035 96.781 77.837 96.11 C 77.639 95.44 78.589 91.903 78.377 91.355 C 78.164 90.807 75.506 88.8 75 88.8 C 74.494 88.8 71.836 90.807 71.623 91.355 C 71.411 91.903 72.361 95.44 72.163 96.11 C 71.965 96.781 69.699 99.944 68.982 100.294 C 68.264 100.643 63.353 100.895 62.596 100.77 C 61.839 100.645 59.371 99.221 58.884 98.627 C 58.397 98.034 56.16 93.655 56.104 92.859 C 56.048 92.063 57.655 88.519 58.137 88.012 C 58.618 87.505 62.156 86.56 62.524 86.102 C 62.893 85.643 63.302 82.339 63.049 81.9 C 62.796 81.461 59.729 80.163 59.148 80.253 C 58.567 80.343 55.979 82.934 55.299 83.098 C 54.62 83.262 50.747 82.881 50.086 82.435 C 49.424 81.988 46.751 77.861 46.48 77.143 C 46.21 76.425 46.21 73.575 46.48 72.857 C 46.751 72.139 49.424 68.012 50.086 67.565 C 50.747 67.119 54.62 66.738 55.299 66.902 C 55.979 67.066 58.567 69.657 59.148 69.747 C 59.729 69.837 62.796 68.539 63.049 68.1 C 63.302 67.661 62.893 64.357 62.524 63.898 C 62.156 63.44 58.618 62.495 58.137 61.988 C 57.655 61.481 56.048 57.937 56.104 57.141 C 56.16 56.345 58.397 51.966 58.884 51.373 C 59.371 50.779 61.839 49.355 62.596 49.23 C 63.353 49.105 68.264 49.357 68.982 49.706 C 69.699 50.056 71.965 53.219 72.163 53.89 C 72.361 54.56 71.411 58.097 71.623 58.645 C 71.836 59.193 74.494 61.2 75 61.2 C 75.506 61.2 78.164 59.193 78.377 58.645 C 78.589 58.097 77.639 54.56 77.837 53.89 C 78.035 53.219 80.301 50.056 81.018 49.706 C 81.736 49.357 86.647 49.105 87.404 49.23 C 88.161 49.355 90.629 50.779 91.116 51.373 C 91.603 51.966 93.84 56.345 93.896 57.141 C 93.952 57.937 92.345 61.481 91.863 61.988 C 91.382 62.495 87.844 63.44 87.476 63.898 C 87.107 64.357 86.698 67.661 86.951 68.1 C 87.204 68.539 90.271 69.837 90.852 69.747 Z M 97 72.2 A 2.8 2.8 0 0 0 97 77.8 A 2.8 2.8 0 0 0 97 72.2 Z M 86 91.253 A 2.8 2.8 0 0 0 86 96.853 A 2.8 2.8 0 0 0 86 91.253 Z M 64 91.253 A 2.8 2.8 0 0 0 64 96.853 A 2.8 2.8 0 0 0 64 91.253 Z M 53 72.2 A 2.8 2.8 0 0 0 53 77.8 A 2.8 2.8 0 0 0 53 72.2 Z M 64 53.147 A 2.8 2.8 0 0 0 64 58.747 A 2.8 2.8 0 0 0 64 53.147 Z M 86 53.147 A 2.8 2.8 0 0 0 86 58.747 A 2.8 2.8 0 0 0 86 53.147 Z M 75 69 A 6 6 0 0 0 75 81 A 6 6 0 0 0 75 69 Z " class="hub-brake-mount" fill="#dce8f3" stroke="#244b6f" stroke-width="1"/><path d="M 75 41 A 34 34 0 0 1 75 109 A 34 34 0 0 1 75 41 Z M 75 43.2 A 1.8 1.8 0 0 0 75 46.8 A 1.8 1.8 0 0 0 75 43.2 Z M 86.481 45.484 A 1.8 1.8 0 0 0 86.481 49.084 A 1.8 1.8 0 0 0 86.481 45.484 Z M 96.213 51.987 A 1.8 1.8 0 0 0 96.213 55.587 A 1.8 1.8 0 0 0 96.213 51.987 Z M 102.716 61.719 A 1.8 1.8 0 0 0 102.716 65.319 A 1.8 1.8 0 0 0 102.716 61.719 Z M 105 73.2 A 1.8 1.8 0 0 0 105 76.8 A 1.8 1.8 0 0 0 105 73.2 Z M 102.716 84.681 A 1.8 1.8 0 0 0 102.716 88.281 A 1.8 1.8 0 0 0 102.716 84.681 Z M 96.213 94.413 A 1.8 1.8 0 0 0 96.213 98.013 A 1.8 1.8 0 0 0 96.213 94.413 Z M 86.481 100.916 A 1.8 1.8 0 0 0 86.481 104.516 A 1.8 1.8 0 0 0 86.481 100.916 Z M 75 103.2 A 1.8 1.8 0 0 0 75 106.8 A 1.8 1.8 0 0 0 75 103.2 Z M 63.519 100.916 A 1.8 1.8 0 0 0 63.519 104.516 A 1.8 1.8 0 0 0 63.519 100.916 Z M 53.787 94.413 A 1.8 1.8 0 0 0 53.787 98.013 A 1.8 1.8 0 0 0 53.787 94.413 Z M 47.284 84.681 A 1.8 1.8 0 0 0 47.284 88.281 A 1.8 1.8 0 0 0 47.284 84.681 Z M 45 73.2 A 1.8 1.8 0 0 0 45 76.8 A 1.8 1.8 0 0 0 45 73.2 Z M 47.284 61.719 A 1.8 1.8 0 0 0 47.284 65.319 A 1.8 1.8 0 0 0 47.284 61.719 Z M 53.787 51.987 A 1.8 1.8 0 0 0 53.787 55.587 A 1.8 1.8 0 0 0 53.787 51.987 Z M 63.519 45.484 A 1.8 1.8 0 0 0 63.519 49.084 A 1.8 1.8 0 0 0 63.519 45.484 Z M 75 69 A 6 6 0 0 0 75 81 A 6 6 0 0 0 75 69 Z " class="hub-flange-right" fill="#dce8f3" stroke="#244b6f" stroke-width="1.1"/><path d="M 75 45.75 A 29.25 29.25 0 0 1 75 104.25 A 29.25 29.25 0 0 1 75 45.75 Z M 79.926 48.435 A 1.8 1.8 0 0 0 79.926 52.035 A 1.8 1.8 0 0 0 79.926 48.435 Z M 89.028 52.205 A 1.8 1.8 0 0 0 89.028 55.805 A 1.8 1.8 0 0 0 89.028 52.205 Z M 95.995 59.172 A 1.8 1.8 0 0 0 95.995 62.772 A 1.8 1.8 0 0 0 95.995 59.172 Z M 99.765 68.274 A 1.8 1.8 0 0 0 99.765 71.874 A 1.8 1.8 0 0 0 99.765 68.274 Z M 99.765 78.126 A 1.8 1.8 0 0 0 99.765 81.726 A 1.8 1.8 0 0 0 99.765 78.126 Z M 95.995 87.228 A 1.8 1.8 0 0 0 95.995 90.828 A 1.8 1.8 0 0 0 95.995 87.228 Z M 89.028 94.195 A 1.8 1.8 0 0 0 89.028 97.795 A 1.8 1.8 0 0 0 89.028 94.195 Z M 79.926 97.965 A 1.8 1.8 0 0 0 79.926 101.565 A 1.8 1.8 0 0 0 79.926 97.965 Z M 70.074 97.965 A 1.8 1.8 0 0 0 70.074 101.565 A 1.8 1.8 0 0 0 70.074 97.965 Z M 60.972 94.195 A 1.8 1.8 0 0 0 60.972 97.795 A 1.8 1.8 0 0 0 60.972 94.195 Z M 54.005 87.228 A 1.8 1.8 0 0 0 54.005 90.828 A 1.8 1.8 0 0 0 54.005 87.228 Z M 50.235 78.126 A 1.8 1.8 0 0 0 50.235 81.726 A 1.8 1.8 0 0 0 50.235 78.126 Z M 50.235 68.274 A 1.8 1.8 0 0 0 50.235 71.874 A 1.8 1.8 0 0 0 50.235 68.274 Z M 54.005 59.172 A 1.8 1.8 0 0 0 54.005 62.772 A 1.8 1.8 0 0 0 54.005 59.172 Z M 60.972 52.205 A 1.8 1.8 0 0 0 60.972 55.805 A 1.8 1.8 0 0 0 60.972 52.205 Z M 70.074 48.435 A 1.8 1.8 0 0 0 70.074 52.035 A 1.8 1.8 0 0 0 70.074 48.435 Z M 75 69 A 6 6 0 0 0 75 81 A 6 6 0 0 0 75 69 Z " class="hub-flange-left" fill="#e6eef6" stroke="#244b6f" stroke-width="1.1"/><circle cx="91.918" cy="75" r="2.2" class="hub-flange-cutout" fill="#ffffff" stroke="#5d7f9e" stroke-width="0.7"/><circle cx="83.459" cy="89.651" r="2.2" class="hub-flange-cutout" fill="#ffffff" stroke="#5d7f9e" stroke-width="0.7"/><circle cx="66.541" cy="89.651" r="2.2" class="hub-flange-cutout" fill="#ffffff" stroke="#5d7f9e" stroke-width="0.7"/><circle cx="58.082" cy="75" r="2.2" class="hub-flange-cutout" fill="#ffffff" stroke="#5d7f9e" stroke-width="0.7"/><circle cx="66.541" cy="60.349" r="2.2" class="hub-flange-cutout" fill="#ffffff" stroke="#5d7f9e" stroke-width="0.7"/><circle cx="83.459" cy="60.349" r="2.2" class="hub-flange-cutout" fill="#ffffff" stroke="#5d7f9e" stroke-width="0.7"/><path d="M 73.172 59.205 L 73.04 58.063 L 73.428 57.621 A 17.45 17.45 0 0 1 76.572 57.621 L 76.96 58.063 L 76.828 59.205 A 15.9 15.9 0 0 1 79.861 59.861 L 80.212 58.766 L 80.748 58.524 A 17.45 17.45 0 0 1 86.302 61.705 L 86.364 62.29 L 85.598 63.147 A 15.9 15.9 0 0 1 88.454 66.527 L 89.428 65.914 L 89.994 66.073 A 17.45 17.45 0 0 1 92.204 72.08 L 91.876 72.568 L 90.737 72.732 A 15.9 15.9 0 0 1 90.753 77.158 L 91.892 77.314 L 92.224 77.8 A 17.45 17.45 0 0 1 90.056 83.822 L 89.491 83.985 L 88.513 83.379 A 15.9 15.9 0 0 1 85.68 86.779 L 86.453 87.631 L 86.395 88.216 A 17.45 17.45 0 0 1 80.863 91.436 L 80.325 91.197 L 79.966 90.105 A 15.9 15.9 0 0 1 75.61 90.888 L 75.655 92.037 L 75.234 92.448 A 17.45 17.45 0 0 1 68.927 91.359 L 68.668 90.831 L 69.095 89.763 A 15.9 15.9 0 0 1 65.255 87.563 L 64.55 88.472 L 63.963 88.517 A 17.45 17.45 0 0 1 59.832 83.628 L 59.974 83.057 L 60.987 82.514 A 15.9 15.9 0 0 1 59.459 78.36 L 58.335 78.603 L 57.857 78.26 A 17.45 17.45 0 0 1 57.835 71.86 L 58.31 71.513 L 59.436 71.749 A 15.9 15.9 0 0 1 60.935 67.584 L 59.918 67.048 L 59.772 66.478 A 17.45 17.45 0 0 1 63.869 61.561 L 64.456 61.601 L 65.167 62.505 A 15.9 15.9 0 0 1 70.034 59.895 Z M 75 60 A 15 15 0 0 0 75 90 A 15 15 0 0 0 75 60 Z " class="hub-cylinder-freehub hub-freehub-xd-face" fill="#eef3f8" stroke="#244b6f" stroke-width="1"/><circle cx="75" cy="75" r="13.5" class="hub-freehub-xd-middle-ring" fill="none" stroke="#315c82" stroke-width="1" stroke-dasharray="1 1"/><circle cx="75" cy="75" r="11.5" class="hub-freehub-xd-center-ring" fill="none" stroke="#315c82" stroke-width="1"/></g></svg>
