<svg xmlns="http://www.w3.org/2000/svg" width="150" height="150" viewBox="0 0 150 150" preserveAspectRatio="xMidYMid meet" class="hub-svg"><style>.wheel-svg,.hub-svg{background:var(--wheel-svg-background, #ffffff)}.rim-body{fill:var(--wheel-rim-side-fill, #222529);stroke:var(--wheel-rim-stroke, #111111);stroke-width:1;fill-rule:evenodd}.rim-outline{fill:none;stroke:var(--wheel-rim-outline-stroke, #111111);stroke-width:1.5}.rim-highlight{fill:none;stroke:var(--wheel-rim-highlight-stroke, rgba(255,255,255,.18));stroke-width:1}.rim-hole{fill:var(--wheel-rim-hole-fill, #101214);stroke:var(--wheel-rim-hole-stroke, #101214);stroke-width:0.5}.valve-hole-marker{fill:var(--wheel-valve-fill, #2f3438)}.valve-hole-line{stroke:var(--wheel-valve-stroke, #111111);stroke-width:2.5;stroke-linecap:round}.valve-label{font-family:sans-serif;font-size:14px;fill:var(--wheel-valve-label-fill, #495057);font-weight:bold}.wheel-valve-part{fill:var(--wheel-valve-fill, #2f3438);stroke:var(--wheel-valve-stroke, #111111);stroke-width:1}.spoke-nipple{stroke-width:5;stroke-linecap:butt}.spoke-nipple-dot{fill:var(--wheel-nipple-dot-fill, #ffffff);stroke:var(--wheel-nipple-dot-stroke, #111111);stroke-width:1}.nipple-theme-silver .spoke-nipple{stroke:var(--wheel-nipple-silver, #111111)}.nipple-theme-black .spoke-nipple{stroke:var(--wheel-nipple-black, #111111)}.spoke{stroke-width:1.5;stroke-linecap:round}.spoke-theme-color .spoke-left.spoke-pulling{stroke:var(--wheel-spoke-left-pulling, #111111)}.spoke-theme-color .spoke-left.spoke-trailing{stroke:var(--wheel-spoke-left-trailing, #111111)}.spoke-theme-color .spoke-right.spoke-pulling{stroke:var(--wheel-spoke-right-pulling, #111111);stroke-dasharray:4 4}.spoke-theme-color .spoke-right.spoke-trailing{stroke:var(--wheel-spoke-right-trailing, #111111);stroke-dasharray:4 4}.spoke-theme-black .spoke{stroke:var(--wheel-spoke-black, #111111)}.spoke-theme-silver .spoke{stroke:var(--wheel-spoke-silver, #ced4da)}.hub-axle,.hub-axle-tip{fill:var(--wheel-hub-axle-fill, #d9dcde);stroke:var(--wheel-hub-axle-stroke, #222222);stroke-width:0.8}.hub-endcap{fill:var(--wheel-hub-endcap-fill, #7d848a);stroke:var(--wheel-hub-endcap-stroke, #25282b);stroke-width:1}.hub-cylinder,.hub-shell-body{fill:var(--wheel-hub-shell-fill, #bfc4c8);stroke:var(--wheel-hub-shell-stroke, #3c4145);stroke-width:1.2;fill-rule:evenodd}.hub-brand-dt-swiss .hub-shell-body{fill:var(--wheel-hub-shell-dt-swiss-fill, #c9ced2)}.hub-brand-industry-nine .hub-shell-body{fill:var(--wheel-hub-shell-industry-nine-fill, #b5bcc1)}.hub-flange-left{fill:var(--wheel-hub-flange-left-fill, #d2d6d9);stroke:var(--wheel-hub-flange-left-stroke, #3c4145);stroke-width:1;fill-rule:evenodd}.hub-flange-right{fill:var(--wheel-hub-flange-right-fill, #aeb5ba);stroke:var(--wheel-hub-flange-right-stroke, #3c4145);stroke-width:1;fill-rule:evenodd}.hub-flange-plate{stroke-width:1.1}.hub-brake-mount,.hub-centerlock-side,.hub-sixbolt-side{fill:var(--wheel-hub-mount-fill, #969da3);stroke:var(--wheel-hub-mount-stroke, #2c3033);stroke-width:1;fill-rule:evenodd}.hub-cylinder-freehub{fill:var(--wheel-hub-freehub-fill, #c8ccd0);stroke:var(--wheel-hub-freehub-stroke, #3c4145);stroke-width:1;fill-rule:evenodd}.hub-cylinder-dark,.hub-bearing-ring,.hub-freehub-inner-shoulder,.hub-freehub-thread-step{fill:var(--wheel-hub-bearing-fill, #6f767c);stroke:var(--wheel-hub-bearing-stroke, #2c3033);stroke-width:1}.hub-flange-cutout,.hub-flange-scallop{fill:var(--wheel-hub-cutout-fill, #f1f2f3);stroke:var(--wheel-hub-cutout-stroke, #3c4145);stroke-width:0.7}.hub-spoke-hole-side{fill:var(--wheel-hub-hole-fill, #111111);stroke:none}.hub-bolt-head-side{fill:var(--wheel-hub-cutout-fill, #f1f2f3);stroke:var(--wheel-hub-detail-stroke, #24272a);stroke-width:0.6}.hub-spline-line,.hub-freehub-spline,.hub-centerlock-tooth,.hub-sixbolt-side-line,.hub-freehub-thread-line,.hub-freehub-final-step-line,.hub-straightpull-slot-side{stroke:var(--wheel-hub-detail-stroke, #24272a);stroke-width:1;stroke-linecap:round;fill:none}.hub-blueprint-line{stroke:var(--wheel-hub-blueprint-stroke, #24272a);stroke-width:0.7;stroke-dasharray:3 3;fill:none;opacity:0.9}.hub-shell-flute{stroke:var(--wheel-hub-flute-stroke, #6d747a);stroke-width:0.9;stroke-linecap:round;fill:none}.hub-shell-highlight{stroke:var(--wheel-hub-highlight-stroke, #eceff1);stroke-width:1;stroke-linecap:round}.hub-centerlock-solid-ring,.hub-freehub-xd-center-ring{fill:none;stroke:var(--wheel-hub-detail-stroke, #24272a);stroke-width:1}.hub-centerlock-dashed-ring,.hub-freehub-xd-middle-ring{fill:none;stroke:var(--wheel-hub-detail-stroke, #24272a);stroke-width:1;stroke-dasharray:1 1}</style><g class="hub-face-group hub-brand-dt-swiss hub-render-realistic"><circle cx="75" cy="75" r="17" class="hub-centerlock-solid-ring" fill="none" stroke="var(--wheel-hub-detail-stroke, #24272a)" stroke-width="1"/><circle cx="75" cy="75" r="17.5" class="hub-centerlock-dashed-ring" fill="none" stroke="var(--wheel-hub-detail-stroke, #24272a)" stroke-width="1" stroke-dasharray="1 1"/><path d="M 75 45.8 A 29.2 29.2 0 0 1 75 104.2 A 29.2 29.2 0 0 1 75 45.8 Z M 75 69 A 6 6 0 0 0 75 81 A 6 6 0 0 0 75 69 Z " class="hub-flange-left" fill="var(--wheel-hub-flange-left-fill, #d2d6d9)" stroke="var(--wheel-hub-flange-left-stroke, #3c4145)" stroke-width="1.1"/><path d="M 75 45.8 A 29.2 29.2 0 0 1 75 104.2 A 29.2 29.2 0 0 1 75 45.8 Z M 75 69 A 6 6 0 0 0 75 81 A 6 6 0 0 0 75 69 Z " class="hub-flange-right" fill="var(--wheel-hub-flange-right-fill, #aeb5ba)" stroke="var(--wheel-hub-flange-right-stroke, #3c4145)" stroke-width="1.1"/><path d="M 73.172 59.205 L 73.04 58.063 L 73.428 57.621 A 17.45 17.45 0 0 1 76.572 57.621 L 76.96 58.063 L 76.828 59.205 A 15.9 15.9 0 0 1 79.861 59.861 L 80.212 58.766 L 80.748 58.524 A 17.45 17.45 0 0 1 86.302 61.705 L 86.364 62.29 L 85.598 63.147 A 15.9 15.9 0 0 1 88.454 66.527 L 89.428 65.914 L 89.994 66.073 A 17.45 17.45 0 0 1 92.204 72.08 L 91.876 72.568 L 90.737 72.732 A 15.9 15.9 0 0 1 90.753 77.158 L 91.892 77.314 L 92.224 77.8 A 17.45 17.45 0 0 1 90.056 83.822 L 89.491 83.985 L 88.513 83.379 A 15.9 15.9 0 0 1 85.68 86.779 L 86.453 87.631 L 86.395 88.216 A 17.45 17.45 0 0 1 80.863 91.436 L 80.325 91.197 L 79.966 90.105 A 15.9 15.9 0 0 1 75.61 90.888 L 75.655 92.037 L 75.234 92.448 A 17.45 17.45 0 0 1 68.927 91.359 L 68.668 90.831 L 69.095 89.763 A 15.9 15.9 0 0 1 65.255 87.563 L 64.55 88.472 L 63.963 88.517 A 17.45 17.45 0 0 1 59.832 83.628 L 59.974 83.057 L 60.987 82.514 A 15.9 15.9 0 0 1 59.459 78.36 L 58.335 78.603 L 57.857 78.26 A 17.45 17.45 0 0 1 57.835 71.86 L 58.31 71.513 L 59.436 71.749 A 15.9 15.9 0 0 1 60.935 67.584 L 59.918 67.048 L 59.772 66.478 A 17.45 17.45 0 0 1 63.869 61.561 L 64.456 61.601 L 65.167 62.505 A 15.9 15.9 0 0 1 70.034 59.895 Z M 75 65 A 10 10 0 0 0 75 85 A 10 10 0 0 0 75 65 Z " class="hub-cylinder-freehub hub-freehub-hg-face" fill="var(--wheel-hub-freehub-fill, #c8ccd0)" stroke="var(--wheel-hub-freehub-stroke, #3c4145)" stroke-width="1"/></g></svg>
