<svg xmlns="http://www.w3.org/2000/svg" width="200" height="150" viewBox="0 0 200 150" preserveAspectRatio="xMidYMid meet" class="hub-svg"><style>
    :root{--rim-color:#343a40;--spoke-left-pulling:#0d6efd;--spoke-left-trailing:#0dcaf0;--spoke-right-pulling:#fd7e14;--spoke-right-trailing:#ffc107}
    .wheel-svg,.hub-svg{background:#fff}
    .rim-body{fill:#343a40;stroke:#212529;stroke-width:1;fill-rule:evenodd}
    .rim-outline{fill:none;stroke:#111;stroke-width:1.5}
    .rim-highlight{fill:none;stroke:rgba(255,255,255,.15);stroke-width:1}
    .hub-flange-right{fill:#dce8f3;stroke:#244b6f;stroke-width:1;fill-rule:evenodd}
    .hub-flange-left{fill:#e6eef6;stroke:#244b6f;stroke-width:1;fill-rule:evenodd}
    .hub-brake-mount{fill:#d4e1ec;stroke:#244b6f;stroke-width:1;fill-rule:evenodd}
    .hub-cylinder{fill:#eaf1f8;stroke:#244b6f;stroke-width:1;fill-rule:evenodd}
    .hub-cylinder-dark{fill:#d8e4ef;stroke:#244b6f;stroke-width:1;fill-rule:evenodd}
    .hub-cylinder-freehub{fill:#eef3f8;stroke:#244b6f;stroke-width:1;fill-rule:evenodd}
    .hub-axle{fill:#f8fbfd;stroke:#5d7f9e;stroke-width:.8}
    .hub-endcap{fill:#e7eef5;stroke:#315c82;stroke-width:1}
    .hub-axle-tip{fill:#f8fbfd;stroke:#5d7f9e;stroke-width:.8}
    .hub-shell-body{fill:#eaf1f8;stroke:#1f4b72;stroke-width:1.2}
    .hub-brand-dt-swiss .hub-shell-body{fill:#edf3f8}
    .hub-brand-industry-nine .hub-shell-body{fill:#e3edf6}
    .hub-shell-flute{stroke:#7399ba;stroke-width:.9;stroke-linecap:round;fill:none}
    .hub-shell-highlight{stroke:#9ab9d4;stroke-width:1;stroke-linecap:round}
    .hub-bearing-ring{fill:#d2e0ec;stroke:#244b6f;stroke-width:1}
    .hub-flange-plate{stroke-width:1.1}
    .hub-flange-cutout{fill:#fff;stroke:#5d7f9e;stroke-width:.7}
    .hub-spoke-hole-side{fill:#315c82;stroke:none}
    .hub-bolt-head-side{fill:#fff;stroke:#315c82;stroke-width:.6}
    .hub-centerlock-side{fill:#dce8f3}
    .hub-sixbolt-side{fill:#dce8f3}
    .hub-spline-line,.hub-freehub-spline{stroke:#315c82;stroke-width:1;stroke-linecap:round}
    .hub-blueprint-line{stroke:#78a9d4;stroke-width:.7;stroke-dasharray:3 3;fill:none;opacity:.9}
    .rim-hole{fill:#111;stroke:#343a40;stroke-width:.5}
    .valve-hole-marker{fill:#dc3545}
    .valve-hole-line{stroke:#dc3545;stroke-width:2.5;stroke-linecap:round}
    .valve-label{font-family:sans-serif;font-size:14px;fill:#495057;font-weight:bold}
    .spoke-nipple{stroke-width:5;stroke-linecap:butt}
    .nipple-theme-silver .spoke-nipple{stroke:#adb5bd}
    .nipple-theme-black .spoke-nipple{stroke:#212529}
    .spoke{stroke-width:1.5;stroke-linecap:round}
    .spoke-theme-color .spoke-left.spoke-pulling{stroke:#0d6efd}
    .spoke-theme-color .spoke-left.spoke-trailing{stroke:#0dcaf0}
    .spoke-theme-color .spoke-right.spoke-pulling{stroke:#fd7e14;stroke-dasharray:4 4}
    .spoke-theme-color .spoke-right.spoke-trailing{stroke:#ffc107;stroke-dasharray:4 4}
    .spoke-theme-black .spoke{stroke:#212529}
    .spoke-theme-silver .spoke{stroke:#ced4da}
  </style><g class="hub-side-group hub-brand-industry-nine hub-shell-fluted hub-render-blueprint" data-hub-preset="industry-nine-hydra2-boost-rear-6bolt"><path d="M 27.5 65.5 L 34 65.5 L 34 84.5 L 27.5 84.5 L 26 83 L 26 67 Z" class="hub-endcap" fill="#e7eef5" stroke="#315c82" stroke-width="1"/><path d="M 35.2 57 L 37.8 57 L 39 58.2 L 39 91.8 L 37.8 93 L 35.2 93 L 34 91.8 L 34 58.2 Z" class="hub-brake-mount hub-6bolt-side" fill="#dce8f3" stroke="#244b6f" stroke-width="1"/><path d="M 39 57 C 43 57 55.6 50.25 60.6 50.25 L 65.6 50.25 C 80.048 50.25 85.552 61 100 61 C 108.904 61 112.296 49 121.2 49 L 126.2 49 C 130.2 44 125 57 129 57 L 129 93 C 125 93 130.2 106 126.2 106 L 121.2 101 C 112.296 101 108.904 89 100 89 C 85.552 89 80.048 99.75 65.6 99.75 L 60.6 99.75 C 55.6 99.75 43 93 39 93 Z" class="hub-cylinder hub-shell-body" fill="#eaf1f8" stroke="#1f4b72" stroke-width="1.2"/><path d="M 61.8 45.25 L 64.4 45.25 L 65.6 46.45 L 65.6 103.55 L 64.4 104.75 L 61.8 104.75 L 60.6 103.55 L 60.6 46.45 Z" class="hub-flange-left hub-flange-plate" fill="#e6eef6" stroke="#244b6f" stroke-width="1.1"/><path d="M 122.4 44 L 125 44 L 126.2 45.2 L 126.2 104.8 L 125 106 L 122.4 106 L 121.2 104.8 L 121.2 45.2 Z" class="hub-flange-right hub-flange-plate" fill="#dce8f3" stroke="#244b6f" stroke-width="1.1"/><path d="M 129 57 L 136 57 L 136 58 L 141.5 58 L 141.5 59 L 161 59 L 161 60 L 166 60 L 166 90 L 161 90 L 161 91 L 141.5 91 L 141.5 92 L 136 92 L 136 93 L 129 93 Z" class="hub-cylinder-freehub hub-freehub-xd" fill="#eef3f8" stroke="#244b6f" stroke-width="1"/><path d="M 166 65.5 L 172.5 65.5 L 174 67 L 174 83 L 172.5 84.5 L 166 84.5 Z" class="hub-endcap" fill="#e7eef5" stroke="#315c82" stroke-width="1"/><line x1="34.7" y1="69" x2="38.3" y2="69" class="hub-sixbolt-side-line" fill="none" stroke="#315c82" stroke-width="0.75" stroke-linecap="round" opacity="0.65"/><line x1="34.7" y1="81" x2="38.3" y2="81" class="hub-sixbolt-side-line" fill="none" stroke="#315c82" stroke-width="0.75" stroke-linecap="round" opacity="0.65"/><line x1="136.7" y1="59" x2="136.7" y2="91" class="hub-freehub-thread-line" fill="none" stroke="#315c82" stroke-width="0.55" stroke-linecap="round" opacity="0.45"/><line x1="137.9" y1="59" x2="137.9" y2="91" class="hub-freehub-thread-line" fill="none" stroke="#315c82" stroke-width="0.55" stroke-linecap="round" opacity="0.45"/><line x1="139.1" y1="59" x2="139.1" y2="91" class="hub-freehub-thread-line" fill="none" stroke="#315c82" stroke-width="0.55" stroke-linecap="round" opacity="0.45"/><line x1="140.3" y1="59" x2="140.3" y2="91" class="hub-freehub-thread-line" fill="none" stroke="#315c82" stroke-width="0.55" stroke-linecap="round" opacity="0.45"/><line x1="141.5" y1="59" x2="141.5" y2="91" class="hub-freehub-thread-line" fill="none" stroke="#315c82" stroke-width="0.55" stroke-linecap="round" opacity="0.45"/><line x1="129.8" y1="62.143" x2="136" y2="62.143" class="hub-freehub-spline" fill="none" stroke="#315c82" stroke-width="0.75" stroke-linecap="round" opacity="0.7"/><line x1="129.8" y1="67.286" x2="136" y2="67.286" class="hub-freehub-spline" fill="none" stroke="#315c82" stroke-width="0.75" stroke-linecap="round" opacity="0.7"/><line x1="129.8" y1="72.429" x2="136" y2="72.429" class="hub-freehub-spline" fill="none" stroke="#315c82" stroke-width="0.75" stroke-linecap="round" opacity="0.7"/><line x1="129.8" y1="77.571" x2="136" y2="77.571" class="hub-freehub-spline" fill="none" stroke="#315c82" stroke-width="0.75" stroke-linecap="round" opacity="0.7"/><line x1="129.8" y1="82.714" x2="136" y2="82.714" class="hub-freehub-spline" fill="none" stroke="#315c82" stroke-width="0.75" stroke-linecap="round" opacity="0.7"/><line x1="129.8" y1="87.857" x2="136" y2="87.857" class="hub-freehub-spline" fill="none" stroke="#315c82" stroke-width="0.75" stroke-linecap="round" opacity="0.7"/><line x1="161" y1="59" x2="161" y2="91" class="hub-freehub-final-step-line" fill="none" stroke="#315c82" stroke-width="0.65" stroke-linecap="round" opacity="0.5"/><line x1="26" y1="130" x2="26" y2="140" class="hub-blueprint-line" fill="none" stroke="#78a9d4" stroke-width="0.7" stroke-dasharray="3 3"/><line x1="174" y1="130" x2="174" y2="140" class="hub-blueprint-line" fill="none" stroke="#78a9d4" stroke-width="0.7" stroke-dasharray="3 3"/></g></svg>
