<svg xmlns="http://www.w3.org/2000/svg" width="150" height="150" viewBox="0 0 150 150" preserveAspectRatio="xMidYMid meet" class="hub-svg"><style>
    :root{--rim-color:#343a40;--spoke-left-pulling:#0d6efd;--spoke-left-trailing:#0dcaf0;--spoke-right-pulling:#fd7e14;--spoke-right-trailing:#ffc107}
    .wheel-svg,.hub-svg{background:#fff}
    .rim-body{fill:#343a40;stroke:#212529;stroke-width:1;fill-rule:evenodd}
    .rim-outline{fill:none;stroke:#111;stroke-width:1.5}
    .rim-highlight{fill:none;stroke:rgba(255,255,255,.15);stroke-width:1}
    .hub-flange-right{fill:#212529;stroke:#111;stroke-width:1;fill-rule:evenodd}
    .hub-flange-left{fill:#343a40;stroke:#1a1e21;stroke-width:1;fill-rule:evenodd}
    .hub-brake-mount{fill:#212529;stroke:#111;stroke-width:1;fill-rule:evenodd}
    .hub-cylinder{fill:#343a40;stroke:#1a1e21;stroke-width:1;fill-rule:evenodd}
    .hub-cylinder-dark{fill:#212529;stroke:#111;stroke-width:1;fill-rule:evenodd}
    .hub-cylinder-freehub{fill:#6c757d;stroke:#343a40;stroke-width:1;fill-rule:evenodd}
    .rim-hole{fill:#111;stroke:#343a40;stroke-width:.5}
    .valve-hole-marker{fill:#dc3545}
    .valve-hole-line{stroke:#dc3545;stroke-width:2.5;stroke-linecap:round}
    .valve-label{font-family:sans-serif;font-size:14px;fill:#495057;font-weight:bold}
    .spoke-nipple{stroke-width:5;stroke-linecap:butt}
    .nipple-theme-silver .spoke-nipple{stroke:#adb5bd}
    .nipple-theme-black .spoke-nipple{stroke:#212529}
    .spoke{stroke-width:1.5;stroke-linecap:round}
    .spoke-theme-color .spoke-left.spoke-pulling{stroke:#0d6efd}
    .spoke-theme-color .spoke-left.spoke-trailing{stroke:#0dcaf0}
    .spoke-theme-color .spoke-right.spoke-pulling{stroke:#fd7e14;stroke-dasharray:4 4}
    .spoke-theme-color .spoke-right.spoke-trailing{stroke:#ffc107;stroke-dasharray:4 4}
    .spoke-theme-black .spoke{stroke:#212529}
    .spoke-theme-silver .spoke{stroke:#ced4da}
  </style><g class="hub-face-group"><path d="M 75.91564380922199 61.029975074659546 L 79.3012854378231 48.34481394583089 A 27 27 0 0 1 95.93342554659957 57.94738451483255 L 86.64057457223562 67.22201673772555 Q 83.66025403784438 70 87.55621838145764 68.80795833693398 L 100.23471098442269 65.39742943099833 A 27 27 0 0 1 100.23471098442269 84.60257056900166 L 87.55621838145764 81.19204166306601 Q 83.6602540378444 80 86.64057457223564 82.77798326227442 L 95.93342554659958 92.05261548516742 A 27 27 0 0 1 79.30128543782311 101.65518605416909 L 75.915643809222 88.97002492534045 Q 75 85 74.084356190778 88.97002492534045 L 70.69871456217689 101.65518605416909 A 27 27 0 0 1 54.06657445340042 92.05261548516744 L 63.359425427764364 82.77798326227443 Q 66.33974596215562 80 62.44378161854237 81.19204166306602 L 49.765289015577316 84.60257056900167 A 27 27 0 0 1 49.76528901557731 65.39742943099833 L 62.44378161854236 68.80795833693398 Q 66.3397459621556 70 63.359425427764364 67.22201673772558 L 54.066574453400406 57.94738451483258 A 27 27 0 0 1 70.69871456217685 48.34481394583091 L 74.08435619077798 61.02997507465955 Q 74.99999999999999 65 75.91564380922199 61.029975074659546 Z M 75 69 A 6 6 0 0 0 75 81 A 6 6 0 0 0 75 69 Z " class="hub-flange-right"/><path d="M 72.2687354917742 61.26900607435478 L 72.25585288906434 48.13981279600711 A 27 27 0 0 1 90.80659471178838 53.11046908640426 L 84.23084141140096 64.47424269529431 Q 82.07106781186548 67.92893218813451 85.52575730470568 65.76915858859903 L 96.88953091359572 59.19340528821159 A 27 27 0 0 1 101.8601872039929 77.74414711093564 L 88.73099392564522 77.73126450822579 Q 84.65925826289069 77.5881904510252 88.25702181293148 79.50015251424426 L 99.63367802453138 86.0535924922045 A 27 27 0 0 1 86.05359249220449 99.63367802453138 L 79.50015251424426 88.25702181293148 Q 77.58819045102521 84.65925826289069 77.7312645082258 88.73099392564522 L 77.74414711093566 101.8601872039929 A 27 27 0 0 1 59.19340528821159 96.88953091359573 L 65.76915858859903 85.52575730470568 Q 67.92893218813452 82.07106781186548 64.47424269529432 84.23084141140096 L 53.110469086404265 90.80659471178839 A 27 27 0 0 1 48.13981279600711 72.25585288906434 L 61.26900607435478 72.26873549177421 Q 65.34074173710931 72.4118095489748 61.742978187068516 70.49984748575575 L 50.36632197546861 63.94640750779553 A 27 27 0 0 1 63.94640750779547 50.36632197546863 L 70.49984748575572 61.74297818706852 Q 72.41180954897479 65.34074173710931 72.2687354917742 61.26900607435478 Z M 75 69 A 6 6 0 0 0 75 81 A 6 6 0 0 0 75 69 Z " class="hub-flange-left"/><path d="M 75 54 A 21 21 0 0 1 75 96 A 21 21 0 0 1 75 54 Z M 75 69 A 6 6 0 0 0 75 81 A 6 6 0 0 0 75 69 Z " class="hub-brake-mount"/><circle cx="75" cy="75" r="18" fill="none" stroke="#6c757d" stroke-width="4" stroke-dasharray="2 2"/><circle cx="75" cy="75" r="16" fill="none" stroke="#212529" stroke-width="1"/><circle cx="75" cy="75" r="9" fill="none" stroke="#212529" stroke-width="6"/></g></svg>
