<svg xmlns="http://www.w3.org/2000/svg" width="150" height="150" viewBox="0 0 150 150" preserveAspectRatio="xMidYMid meet" class="hub-svg"><style>
    :root{--rim-color:#343a40;--spoke-left-pulling:#0d6efd;--spoke-left-trailing:#0dcaf0;--spoke-right-pulling:#fd7e14;--spoke-right-trailing:#ffc107}
    .wheel-svg,.hub-svg{background:#fff}
    .rim-body{fill:#343a40;stroke:#212529;stroke-width:1;fill-rule:evenodd}
    .rim-outline{fill:none;stroke:#111;stroke-width:1.5}
    .rim-highlight{fill:none;stroke:rgba(255,255,255,.15);stroke-width:1}
    .hub-flange-right{fill:#dce8f3;stroke:#244b6f;stroke-width:1;fill-rule:evenodd}
    .hub-flange-left{fill:#e6eef6;stroke:#244b6f;stroke-width:1;fill-rule:evenodd}
    .hub-brake-mount{fill:#d4e1ec;stroke:#244b6f;stroke-width:1;fill-rule:evenodd}
    .hub-cylinder{fill:#eaf1f8;stroke:#244b6f;stroke-width:1;fill-rule:evenodd}
    .hub-cylinder-dark{fill:#d8e4ef;stroke:#244b6f;stroke-width:1;fill-rule:evenodd}
    .hub-cylinder-freehub{fill:#eef3f8;stroke:#244b6f;stroke-width:1;fill-rule:evenodd}
    .hub-axle{fill:#f8fbfd;stroke:#5d7f9e;stroke-width:.8}
    .hub-endcap{fill:#e7eef5;stroke:#315c82;stroke-width:1}
    .hub-axle-tip{fill:#f8fbfd;stroke:#5d7f9e;stroke-width:.8}
    .hub-shell-body{fill:#eaf1f8;stroke:#1f4b72;stroke-width:1.2}
    .hub-brand-dt-swiss .hub-shell-body{fill:#edf3f8}
    .hub-brand-industry-nine .hub-shell-body{fill:#e3edf6}
    .hub-shell-flute{stroke:#7399ba;stroke-width:.9;stroke-linecap:round;fill:none}
    .hub-shell-highlight{stroke:#9ab9d4;stroke-width:1;stroke-linecap:round}
    .hub-bearing-ring{fill:#d2e0ec;stroke:#244b6f;stroke-width:1}
    .hub-flange-plate{stroke-width:1.1}
    .hub-flange-cutout{fill:#fff;stroke:#5d7f9e;stroke-width:.7}
    .hub-spoke-hole-side{fill:#315c82;stroke:none}
    .hub-bolt-head-side{fill:#fff;stroke:#315c82;stroke-width:.6}
    .hub-centerlock-side{fill:#dce8f3}
    .hub-sixbolt-side{fill:#dce8f3}
    .hub-spline-line,.hub-freehub-spline{stroke:#315c82;stroke-width:1;stroke-linecap:round}
    .hub-blueprint-line{stroke:#78a9d4;stroke-width:.7;stroke-dasharray:3 3;fill:none;opacity:.9}
    .rim-hole{fill:#111;stroke:#343a40;stroke-width:.5}
    .valve-hole-marker{fill:#dc3545}
    .valve-hole-line{stroke:#dc3545;stroke-width:2.5;stroke-linecap:round}
    .valve-label{font-family:sans-serif;font-size:14px;fill:#495057;font-weight:bold}
    .spoke-nipple{stroke-width:5;stroke-linecap:butt}
    .nipple-theme-silver .spoke-nipple{stroke:#adb5bd}
    .nipple-theme-black .spoke-nipple{stroke:#212529}
    .spoke{stroke-width:1.5;stroke-linecap:round}
    .spoke-theme-color .spoke-left.spoke-pulling{stroke:#0d6efd}
    .spoke-theme-color .spoke-left.spoke-trailing{stroke:#0dcaf0}
    .spoke-theme-color .spoke-right.spoke-pulling{stroke:#fd7e14;stroke-dasharray:4 4}
    .spoke-theme-color .spoke-right.spoke-trailing{stroke:#ffc107;stroke-dasharray:4 4}
    .spoke-theme-black .spoke{stroke:#212529}
    .spoke-theme-silver .spoke{stroke:#ced4da}
  </style><g class="hub-face-group hub-brand-dt-swiss"><circle cx="75" cy="75" r="17" class="hub-centerlock-solid-ring" fill="none" stroke="#222222" stroke-width="1"/><circle cx="75" cy="75" r="17.5" class="hub-centerlock-dashed-ring" fill="none" stroke="#222222" stroke-width="1" stroke-dasharray="1 1"/><path d="M 75 45.8 A 29.2 29.2 0 0 1 75 104.2 A 29.2 29.2 0 0 1 75 45.8 Z M 75 48 A 1.8 1.8 0 0 0 75 51.6 A 1.8 1.8 0 0 0 75 48 Z M 84.644 49.918 A 1.8 1.8 0 0 0 84.644 53.518 A 1.8 1.8 0 0 0 84.644 49.918 Z M 92.819 55.381 A 1.8 1.8 0 0 0 92.819 58.981 A 1.8 1.8 0 0 0 92.819 55.381 Z M 98.282 63.556 A 1.8 1.8 0 0 0 98.282 67.156 A 1.8 1.8 0 0 0 98.282 63.556 Z M 100.2 73.2 A 1.8 1.8 0 0 0 100.2 76.8 A 1.8 1.8 0 0 0 100.2 73.2 Z M 98.282 82.844 A 1.8 1.8 0 0 0 98.282 86.444 A 1.8 1.8 0 0 0 98.282 82.844 Z M 92.819 91.019 A 1.8 1.8 0 0 0 92.819 94.619 A 1.8 1.8 0 0 0 92.819 91.019 Z M 84.644 96.482 A 1.8 1.8 0 0 0 84.644 100.082 A 1.8 1.8 0 0 0 84.644 96.482 Z M 75 98.4 A 1.8 1.8 0 0 0 75 102 A 1.8 1.8 0 0 0 75 98.4 Z M 65.356 96.482 A 1.8 1.8 0 0 0 65.356 100.082 A 1.8 1.8 0 0 0 65.356 96.482 Z M 57.181 91.019 A 1.8 1.8 0 0 0 57.181 94.619 A 1.8 1.8 0 0 0 57.181 91.019 Z M 51.718 82.844 A 1.8 1.8 0 0 0 51.718 86.444 A 1.8 1.8 0 0 0 51.718 82.844 Z M 49.8 73.2 A 1.8 1.8 0 0 0 49.8 76.8 A 1.8 1.8 0 0 0 49.8 73.2 Z M 51.718 63.556 A 1.8 1.8 0 0 0 51.718 67.156 A 1.8 1.8 0 0 0 51.718 63.556 Z M 57.181 55.381 A 1.8 1.8 0 0 0 57.181 58.981 A 1.8 1.8 0 0 0 57.181 55.381 Z M 65.356 49.918 A 1.8 1.8 0 0 0 65.356 53.518 A 1.8 1.8 0 0 0 65.356 49.918 Z M 75 69 A 6 6 0 0 0 75 81 A 6 6 0 0 0 75 69 Z " class="hub-flange-right" fill="#babfc3" stroke="#111111" stroke-width="1.1"/><path d="M 75 45.8 A 29.2 29.2 0 0 1 75 104.2 A 29.2 29.2 0 0 1 75 45.8 Z M 79.916 48.484 A 1.8 1.8 0 0 0 79.916 52.084 A 1.8 1.8 0 0 0 79.916 48.484 Z M 89 52.247 A 1.8 1.8 0 0 0 89 55.847 A 1.8 1.8 0 0 0 89 52.247 Z M 95.953 59.2 A 1.8 1.8 0 0 0 95.953 62.8 A 1.8 1.8 0 0 0 95.953 59.2 Z M 99.716 68.284 A 1.8 1.8 0 0 0 99.716 71.884 A 1.8 1.8 0 0 0 99.716 68.284 Z M 99.716 78.116 A 1.8 1.8 0 0 0 99.716 81.716 A 1.8 1.8 0 0 0 99.716 78.116 Z M 95.953 87.2 A 1.8 1.8 0 0 0 95.953 90.8 A 1.8 1.8 0 0 0 95.953 87.2 Z M 89 94.153 A 1.8 1.8 0 0 0 89 97.753 A 1.8 1.8 0 0 0 89 94.153 Z M 79.916 97.916 A 1.8 1.8 0 0 0 79.916 101.516 A 1.8 1.8 0 0 0 79.916 97.916 Z M 70.084 97.916 A 1.8 1.8 0 0 0 70.084 101.516 A 1.8 1.8 0 0 0 70.084 97.916 Z M 61 94.153 A 1.8 1.8 0 0 0 61 97.753 A 1.8 1.8 0 0 0 61 94.153 Z M 54.047 87.2 A 1.8 1.8 0 0 0 54.047 90.8 A 1.8 1.8 0 0 0 54.047 87.2 Z M 50.284 78.116 A 1.8 1.8 0 0 0 50.284 81.716 A 1.8 1.8 0 0 0 50.284 78.116 Z M 50.284 68.284 A 1.8 1.8 0 0 0 50.284 71.884 A 1.8 1.8 0 0 0 50.284 68.284 Z M 54.047 59.2 A 1.8 1.8 0 0 0 54.047 62.8 A 1.8 1.8 0 0 0 54.047 59.2 Z M 61 52.247 A 1.8 1.8 0 0 0 61 55.847 A 1.8 1.8 0 0 0 61 52.247 Z M 70.084 48.484 A 1.8 1.8 0 0 0 70.084 52.084 A 1.8 1.8 0 0 0 70.084 48.484 Z M 75 69 A 6 6 0 0 0 75 81 A 6 6 0 0 0 75 69 Z " class="hub-flange-left" fill="#d8dadd" stroke="#111111" stroke-width="1.1"/><circle cx="91.884" cy="75" r="2.2" class="hub-flange-cutout" fill="#f8f8f8" stroke="#222222" stroke-width="0.7"/><circle cx="83.442" cy="89.622" r="2.2" class="hub-flange-cutout" fill="#f8f8f8" stroke="#222222" stroke-width="0.7"/><circle cx="66.558" cy="89.622" r="2.2" class="hub-flange-cutout" fill="#f8f8f8" stroke="#222222" stroke-width="0.7"/><circle cx="58.116" cy="75" r="2.2" class="hub-flange-cutout" fill="#f8f8f8" stroke="#222222" stroke-width="0.7"/><circle cx="66.558" cy="60.378" r="2.2" class="hub-flange-cutout" fill="#f8f8f8" stroke="#222222" stroke-width="0.7"/><circle cx="83.442" cy="60.378" r="2.2" class="hub-flange-cutout" fill="#f8f8f8" stroke="#222222" stroke-width="0.7"/><path d="M 73.172 59.205 L 73.04 58.063 L 73.428 57.621 A 17.45 17.45 0 0 1 76.572 57.621 L 76.96 58.063 L 76.828 59.205 A 15.9 15.9 0 0 1 79.861 59.861 L 80.212 58.766 L 80.748 58.524 A 17.45 17.45 0 0 1 86.302 61.705 L 86.364 62.29 L 85.598 63.147 A 15.9 15.9 0 0 1 88.454 66.527 L 89.428 65.914 L 89.994 66.073 A 17.45 17.45 0 0 1 92.204 72.08 L 91.876 72.568 L 90.737 72.732 A 15.9 15.9 0 0 1 90.753 77.158 L 91.892 77.314 L 92.224 77.8 A 17.45 17.45 0 0 1 90.056 83.822 L 89.491 83.985 L 88.513 83.379 A 15.9 15.9 0 0 1 85.68 86.779 L 86.453 87.631 L 86.395 88.216 A 17.45 17.45 0 0 1 80.863 91.436 L 80.325 91.197 L 79.966 90.105 A 15.9 15.9 0 0 1 75.61 90.888 L 75.655 92.037 L 75.234 92.448 A 17.45 17.45 0 0 1 68.927 91.359 L 68.668 90.831 L 69.095 89.763 A 15.9 15.9 0 0 1 65.255 87.563 L 64.55 88.472 L 63.963 88.517 A 17.45 17.45 0 0 1 59.832 83.628 L 59.974 83.057 L 60.987 82.514 A 15.9 15.9 0 0 1 59.459 78.36 L 58.335 78.603 L 57.857 78.26 A 17.45 17.45 0 0 1 57.835 71.86 L 58.31 71.513 L 59.436 71.749 A 15.9 15.9 0 0 1 60.935 67.584 L 59.918 67.048 L 59.772 66.478 A 17.45 17.45 0 0 1 63.869 61.561 L 64.456 61.601 L 65.167 62.505 A 15.9 15.9 0 0 1 70.034 59.895 Z M 75 65 A 10 10 0 0 0 75 85 A 10 10 0 0 0 75 65 Z " class="hub-cylinder-freehub hub-freehub-hg-face" fill="#d7d9dc" stroke="#111111" stroke-width="1"/></g></svg>
