<svg xmlns="http://www.w3.org/2000/svg" width="200" height="150" viewBox="0 0 200 150" preserveAspectRatio="xMidYMid meet" class="hub-svg"><style>
    :root{--rim-color:#343a40;--spoke-left-pulling:#0d6efd;--spoke-left-trailing:#0dcaf0;--spoke-right-pulling:#fd7e14;--spoke-right-trailing:#ffc107}
    .wheel-svg,.hub-svg{background:#fff}
    .rim-body{fill:#343a40;stroke:#212529;stroke-width:1;fill-rule:evenodd}
    .rim-outline{fill:none;stroke:#111;stroke-width:1.5}
    .rim-highlight{fill:none;stroke:rgba(255,255,255,.15);stroke-width:1}
    .hub-flange-right{fill:#dce8f3;stroke:#244b6f;stroke-width:1;fill-rule:evenodd}
    .hub-flange-left{fill:#e6eef6;stroke:#244b6f;stroke-width:1;fill-rule:evenodd}
    .hub-brake-mount{fill:#d4e1ec;stroke:#244b6f;stroke-width:1;fill-rule:evenodd}
    .hub-cylinder{fill:#eaf1f8;stroke:#244b6f;stroke-width:1;fill-rule:evenodd}
    .hub-cylinder-dark{fill:#d8e4ef;stroke:#244b6f;stroke-width:1;fill-rule:evenodd}
    .hub-cylinder-freehub{fill:#eef3f8;stroke:#244b6f;stroke-width:1;fill-rule:evenodd}
    .hub-axle{fill:#f8fbfd;stroke:#5d7f9e;stroke-width:.8}
    .hub-endcap{fill:#e7eef5;stroke:#315c82;stroke-width:1}
    .hub-axle-tip{fill:#f8fbfd;stroke:#5d7f9e;stroke-width:.8}
    .hub-shell-body{fill:#eaf1f8;stroke:#1f4b72;stroke-width:1.2}
    .hub-brand-dt-swiss .hub-shell-body{fill:#edf3f8}
    .hub-brand-industry-nine .hub-shell-body{fill:#e3edf6}
    .hub-shell-flute{stroke:#7399ba;stroke-width:.9;stroke-linecap:round;fill:none}
    .hub-shell-highlight{stroke:#9ab9d4;stroke-width:1;stroke-linecap:round}
    .hub-bearing-ring{fill:#d2e0ec;stroke:#244b6f;stroke-width:1}
    .hub-flange-plate{stroke-width:1.1}
    .hub-flange-cutout{fill:#fff;stroke:#5d7f9e;stroke-width:.7}
    .hub-spoke-hole-side{fill:#315c82;stroke:none}
    .hub-bolt-head-side{fill:#fff;stroke:#315c82;stroke-width:.6}
    .hub-centerlock-side{fill:#dce8f3}
    .hub-sixbolt-side{fill:#dce8f3}
    .hub-spline-line,.hub-freehub-spline{stroke:#315c82;stroke-width:1;stroke-linecap:round}
    .hub-blueprint-line{stroke:#78a9d4;stroke-width:.7;stroke-dasharray:3 3;fill:none;opacity:.9}
    .rim-hole{fill:#111;stroke:#343a40;stroke-width:.5}
    .valve-hole-marker{fill:#dc3545}
    .valve-hole-line{stroke:#dc3545;stroke-width:2.5;stroke-linecap:round}
    .valve-label{font-family:sans-serif;font-size:14px;fill:#495057;font-weight:bold}
    .spoke-nipple{stroke-width:5;stroke-linecap:butt}
    .nipple-theme-silver .spoke-nipple{stroke:#adb5bd}
    .nipple-theme-black .spoke-nipple{stroke:#212529}
    .spoke{stroke-width:1.5;stroke-linecap:round}
    .spoke-theme-color .spoke-left.spoke-pulling{stroke:#0d6efd}
    .spoke-theme-color .spoke-left.spoke-trailing{stroke:#0dcaf0}
    .spoke-theme-color .spoke-right.spoke-pulling{stroke:#fd7e14;stroke-dasharray:4 4}
    .spoke-theme-color .spoke-right.spoke-trailing{stroke:#ffc107;stroke-dasharray:4 4}
    .spoke-theme-black .spoke{stroke:#212529}
    .spoke-theme-silver .spoke{stroke:#ced4da}
  </style><g class="hub-side-group hub-brand-industry-nine hub-shell-fluted hub-render-realistic" data-hub-preset="industry-nine-solix-road-rear-centerlock"><path d="M 30.5 66 L 36 66 L 36 84 L 30.5 84 L 29 82.5 L 29 67.5 Z" class="hub-endcap" fill="#8f9498" stroke="#111111" stroke-width="1"/><path d="M 37.2 57 L 39.8 57 L 41 58.2 L 41 91.8 L 39.8 93 L 37.2 93 L 36 91.8 L 36 58.2 Z" class="hub-brake-mount hub-centerlock-side" fill="#9fa4a8" stroke="#111111" stroke-width="1"/><path d="M 41 57 C 45 57 59.75 58.5 64.75 58.5 L 69.25 58.5 C 80.935 58.5 88.315 63 100 63 C 106.365 63 110.385 52.5 116.75 52.5 L 121.25 52.5 C 125.25 48.5 123 58 127 58 L 127 92 C 123 92 125.25 101.5 121.25 101.5 L 116.75 97.5 C 110.385 97.5 106.365 87 100 87 C 88.315 87 80.935 91.5 69.25 91.5 L 64.75 91.5 C 59.75 91.5 45 93 41 93 Z" class="hub-cylinder hub-shell-body" fill="#c9cdd0" stroke="#111111" stroke-width="1.2"/><path d="M 65.95 54.5 L 68.05 54.5 L 69.25 55.7 L 69.25 94.3 L 68.05 95.5 L 65.95 95.5 L 64.75 94.3 L 64.75 55.7 Z" class="hub-flange-left hub-flange-plate" fill="#d8dadd" stroke="#111111" stroke-width="1.1"/><path d="M 117.95 48.5 L 120.05 48.5 L 121.25 49.7 L 121.25 100.3 L 120.05 101.5 L 117.95 101.5 L 116.75 100.3 L 116.75 49.7 Z" class="hub-flange-right hub-flange-plate" fill="#babfc3" stroke="#111111" stroke-width="1.1"/><path d="M 127 58 L 134 58 L 134 59 L 139.5 59 L 139.5 60 L 159 60 L 159 61 L 164 61 L 164 89 L 159 89 L 159 90 L 139.5 90 L 139.5 91 L 134 91 L 134 92 L 127 92 Z" class="hub-cylinder-freehub hub-freehub-xd" fill="#d7d9dc" stroke="#111111" stroke-width="1"/><path d="M 164 66 L 169.5 66 L 171 67.5 L 171 82.5 L 169.5 84 L 164 84 Z" class="hub-endcap" fill="#8f9498" stroke="#111111" stroke-width="1"/><defs><clipPath id="hub-mask-industry-nine-solix-road-rear-centerlock-realistic"><path d="M 30.5 66 L 36 66 L 36 84 L 30.5 84 L 29 82.5 L 29 67.5 Z"></path><path d="M 37.2 57 L 39.8 57 L 41 58.2 L 41 91.8 L 39.8 93 L 37.2 93 L 36 91.8 L 36 58.2 Z"></path><path d="M 41 57 C 45 57 59.75 58.5 64.75 58.5 L 69.25 58.5 C 80.935 58.5 88.315 63 100 63 C 106.365 63 110.385 52.5 116.75 52.5 L 121.25 52.5 C 125.25 48.5 123 58 127 58 L 127 92 C 123 92 125.25 101.5 121.25 101.5 L 116.75 97.5 C 110.385 97.5 106.365 87 100 87 C 88.315 87 80.935 91.5 69.25 91.5 L 64.75 91.5 C 59.75 91.5 45 93 41 93 Z"></path><path d="M 65.95 54.5 L 68.05 54.5 L 69.25 55.7 L 69.25 94.3 L 68.05 95.5 L 65.95 95.5 L 64.75 94.3 L 64.75 55.7 Z"></path><path d="M 117.95 48.5 L 120.05 48.5 L 121.25 49.7 L 121.25 100.3 L 120.05 101.5 L 117.95 101.5 L 116.75 100.3 L 116.75 49.7 Z"></path><path d="M 127 58 L 134 58 L 134 59 L 139.5 59 L 139.5 60 L 159 60 L 159 61 L 164 61 L 164 89 L 159 89 L 159 90 L 139.5 90 L 139.5 91 L 134 91 L 134 92 L 127 92 Z"></path><path d="M 164 66 L 169.5 66 L 171 67.5 L 171 82.5 L 169.5 84 L 164 84 Z"></path></clipPath></defs><line x1="37.5" y1="58" x2="37.5" y2="92" class="hub-centerlock-tooth" fill="none" stroke="#222222" stroke-width="0.55" stroke-linecap="round" opacity="0.55"/><line x1="39.1" y1="58" x2="39.1" y2="92" class="hub-centerlock-tooth" fill="none" stroke="#222222" stroke-width="0.55" stroke-linecap="round" opacity="0.55"/><line x1="40.7" y1="58" x2="40.7" y2="92" class="hub-centerlock-tooth" fill="none" stroke="#222222" stroke-width="0.55" stroke-linecap="round" opacity="0.55"/><line x1="134.7" y1="60" x2="134.7" y2="90" class="hub-freehub-thread-line" fill="none" stroke="#222222" stroke-width="0.55" stroke-linecap="round" opacity="0.45"/><line x1="135.9" y1="60" x2="135.9" y2="90" class="hub-freehub-thread-line" fill="none" stroke="#222222" stroke-width="0.55" stroke-linecap="round" opacity="0.45"/><line x1="137.1" y1="60" x2="137.1" y2="90" class="hub-freehub-thread-line" fill="none" stroke="#222222" stroke-width="0.55" stroke-linecap="round" opacity="0.45"/><line x1="138.3" y1="60" x2="138.3" y2="90" class="hub-freehub-thread-line" fill="none" stroke="#222222" stroke-width="0.55" stroke-linecap="round" opacity="0.45"/><line x1="139.5" y1="60" x2="139.5" y2="90" class="hub-freehub-thread-line" fill="none" stroke="#222222" stroke-width="0.55" stroke-linecap="round" opacity="0.45"/><line x1="127.8" y1="62.857" x2="134" y2="62.857" class="hub-freehub-spline" fill="none" stroke="#222222" stroke-width="0.75" stroke-linecap="round" opacity="0.7"/><line x1="127.8" y1="67.714" x2="134" y2="67.714" class="hub-freehub-spline" fill="none" stroke="#222222" stroke-width="0.75" stroke-linecap="round" opacity="0.7"/><line x1="127.8" y1="72.571" x2="134" y2="72.571" class="hub-freehub-spline" fill="none" stroke="#222222" stroke-width="0.75" stroke-linecap="round" opacity="0.7"/><line x1="127.8" y1="77.429" x2="134" y2="77.429" class="hub-freehub-spline" fill="none" stroke="#222222" stroke-width="0.75" stroke-linecap="round" opacity="0.7"/><line x1="127.8" y1="82.286" x2="134" y2="82.286" class="hub-freehub-spline" fill="none" stroke="#222222" stroke-width="0.75" stroke-linecap="round" opacity="0.7"/><line x1="127.8" y1="87.143" x2="134" y2="87.143" class="hub-freehub-spline" fill="none" stroke="#222222" stroke-width="0.75" stroke-linecap="round" opacity="0.7"/><line x1="159" y1="60" x2="159" y2="90" class="hub-freehub-final-step-line" fill="none" stroke="#222222" stroke-width="0.65" stroke-linecap="round" opacity="0.5"/></g></svg>
