<svg xmlns="http://www.w3.org/2000/svg" width="150" height="150" viewBox="0 0 150 150" preserveAspectRatio="xMidYMid meet" class="hub-svg"><style>
    :root{--rim-color:#343a40;--spoke-left-pulling:#0d6efd;--spoke-left-trailing:#0dcaf0;--spoke-right-pulling:#fd7e14;--spoke-right-trailing:#ffc107}
    .wheel-svg,.hub-svg{background:#fff}
    .rim-body{fill:#343a40;stroke:#212529;stroke-width:1;fill-rule:evenodd}
    .rim-outline{fill:none;stroke:#111;stroke-width:1.5}
    .rim-highlight{fill:none;stroke:rgba(255,255,255,.15);stroke-width:1}
    .hub-flange-right{fill:#dce8f3;stroke:#244b6f;stroke-width:1;fill-rule:evenodd}
    .hub-flange-left{fill:#e6eef6;stroke:#244b6f;stroke-width:1;fill-rule:evenodd}
    .hub-brake-mount{fill:#d4e1ec;stroke:#244b6f;stroke-width:1;fill-rule:evenodd}
    .hub-cylinder{fill:#eaf1f8;stroke:#244b6f;stroke-width:1;fill-rule:evenodd}
    .hub-cylinder-dark{fill:#d8e4ef;stroke:#244b6f;stroke-width:1;fill-rule:evenodd}
    .hub-cylinder-freehub{fill:#eef3f8;stroke:#244b6f;stroke-width:1;fill-rule:evenodd}
    .hub-axle{fill:#f8fbfd;stroke:#5d7f9e;stroke-width:.8}
    .hub-endcap{fill:#e7eef5;stroke:#315c82;stroke-width:1}
    .hub-axle-tip{fill:#f8fbfd;stroke:#5d7f9e;stroke-width:.8}
    .hub-shell-body{fill:#eaf1f8;stroke:#1f4b72;stroke-width:1.2}
    .hub-brand-dt-swiss .hub-shell-body{fill:#edf3f8}
    .hub-brand-industry-nine .hub-shell-body{fill:#e3edf6}
    .hub-shell-flute{stroke:#7399ba;stroke-width:.9;stroke-linecap:round;fill:none}
    .hub-shell-highlight{stroke:#9ab9d4;stroke-width:1;stroke-linecap:round}
    .hub-bearing-ring{fill:#d2e0ec;stroke:#244b6f;stroke-width:1}
    .hub-flange-plate{stroke-width:1.1}
    .hub-flange-cutout{fill:#fff;stroke:#5d7f9e;stroke-width:.7}
    .hub-spoke-hole-side{fill:#315c82;stroke:none}
    .hub-bolt-head-side{fill:#fff;stroke:#315c82;stroke-width:.6}
    .hub-centerlock-side{fill:#dce8f3}
    .hub-sixbolt-side{fill:#dce8f3}
    .hub-spline-line,.hub-freehub-spline{stroke:#315c82;stroke-width:1;stroke-linecap:round}
    .hub-blueprint-line{stroke:#78a9d4;stroke-width:.7;stroke-dasharray:3 3;fill:none;opacity:.9}
    .rim-hole{fill:#111;stroke:#343a40;stroke-width:.5}
    .valve-hole-marker{fill:#dc3545}
    .valve-hole-line{stroke:#dc3545;stroke-width:2.5;stroke-linecap:round}
    .valve-label{font-family:sans-serif;font-size:14px;fill:#495057;font-weight:bold}
    .spoke-nipple{stroke-width:5;stroke-linecap:butt}
    .nipple-theme-silver .spoke-nipple{stroke:#adb5bd}
    .nipple-theme-black .spoke-nipple{stroke:#212529}
    .spoke{stroke-width:1.5;stroke-linecap:round}
    .spoke-theme-color .spoke-left.spoke-pulling{stroke:#0d6efd}
    .spoke-theme-color .spoke-left.spoke-trailing{stroke:#0dcaf0}
    .spoke-theme-color .spoke-right.spoke-pulling{stroke:#fd7e14;stroke-dasharray:4 4}
    .spoke-theme-color .spoke-right.spoke-trailing{stroke:#ffc107;stroke-dasharray:4 4}
    .spoke-theme-black .spoke{stroke:#212529}
    .spoke-theme-silver .spoke{stroke:#ced4da}
  </style><g class="hub-face-group hub-brand-generic"><path d="M 75.916 61.03 L 79.301 48.345 A 27 27 0 0 1 95.933 57.947 L 86.641 67.222 Q 83.66 70 87.556 68.808 L 100.235 65.397 A 27 27 0 0 1 100.235 84.603 L 87.556 81.192 Q 83.66 80 86.641 82.778 L 95.933 92.053 A 27 27 0 0 1 79.301 101.655 L 75.916 88.97 Q 75 85 74.084 88.97 L 70.699 101.655 A 27 27 0 0 1 54.067 92.053 L 63.359 82.778 Q 66.34 80 62.444 81.192 L 49.765 84.603 A 27 27 0 0 1 49.765 65.397 L 62.444 68.808 Q 66.34 70 63.359 67.222 L 54.067 57.947 A 27 27 0 0 1 70.699 48.345 L 74.084 61.03 Q 75 65 75.916 61.03 Z M 75 69 A 6 6 0 0 0 75 81 A 6 6 0 0 0 75 69 Z " class="hub-flange-right" fill="#dce8f3" stroke="#244b6f" stroke-width="1.1"/><path d="M 72.269 61.269 L 72.256 48.14 A 27 27 0 0 1 90.807 53.11 L 84.231 64.474 Q 82.071 67.929 85.526 65.769 L 96.89 59.193 A 27 27 0 0 1 101.86 77.744 L 88.731 77.731 Q 84.659 77.588 88.257 79.5 L 99.634 86.054 A 27 27 0 0 1 86.054 99.634 L 79.5 88.257 Q 77.588 84.659 77.731 88.731 L 77.744 101.86 A 27 27 0 0 1 59.193 96.89 L 65.769 85.526 Q 67.929 82.071 64.474 84.231 L 53.11 90.807 A 27 27 0 0 1 48.14 72.256 L 61.269 72.269 Q 65.341 72.412 61.743 70.5 L 50.366 63.946 A 27 27 0 0 1 63.946 50.366 L 70.5 61.743 Q 72.412 65.341 72.269 61.269 Z M 75 69 A 6 6 0 0 0 75 81 A 6 6 0 0 0 75 69 Z " class="hub-flange-left" fill="#e6eef6" stroke="#244b6f" stroke-width="1.1"/><circle cx="75" cy="75" r="17" class="hub-centerlock-solid-ring" fill="none" stroke="#315c82" stroke-width="1"/><circle cx="75" cy="75" r="17.5" class="hub-centerlock-dashed-ring" fill="none" stroke="#315c82" stroke-width="1" stroke-dasharray="1 1"/></g></svg>
