<svg xmlns="http://www.w3.org/2000/svg" width="150" height="150" viewBox="0 0 150 150" preserveAspectRatio="xMidYMid meet" class="hub-svg"><style>.wheel-svg,.hub-svg{background:var(--wheel-svg-background, #ffffff)}.rim-body{fill:var(--wheel-rim-side-fill, #ffffff);stroke:var(--wheel-rim-stroke, #111111);stroke-width:1;fill-rule:evenodd}.rim-outline{fill:none;stroke:var(--wheel-rim-outline-stroke, #111111);stroke-width:1.5}.rim-highlight{fill:none;stroke:var(--wheel-rim-highlight-stroke, rgba(255,255,255,.15));stroke-width:1}.rim-hole{fill:var(--wheel-rim-hole-fill, #111111);stroke:var(--wheel-rim-hole-stroke, #343a40);stroke-width:0.5}.valve-hole-marker{fill:var(--wheel-valve-fill, #ffffff)}.valve-hole-line{stroke:var(--wheel-valve-stroke, #111111);stroke-width:2.5;stroke-linecap:round}.valve-label{font-family:sans-serif;font-size:14px;fill:var(--wheel-valve-label-fill, #495057);font-weight:bold}.wheel-valve-part{fill:var(--wheel-valve-fill, #ffffff);stroke:var(--wheel-valve-stroke, #111111);stroke-width:1}.spoke-nipple{stroke-width:5;stroke-linecap:butt}.spoke-nipple-dot{fill:var(--wheel-nipple-dot-fill, #ffffff);stroke:var(--wheel-nipple-dot-stroke, #111111);stroke-width:1}.nipple-theme-silver .spoke-nipple{stroke:var(--wheel-nipple-silver, #111111)}.nipple-theme-black .spoke-nipple{stroke:var(--wheel-nipple-black, #111111)}.spoke{stroke-width:1.5;stroke-linecap:round}.spoke-theme-color .spoke-left.spoke-pulling{stroke:var(--wheel-spoke-left-pulling, #111111)}.spoke-theme-color .spoke-left.spoke-trailing{stroke:var(--wheel-spoke-left-trailing, #111111)}.spoke-theme-color .spoke-right.spoke-pulling{stroke:var(--wheel-spoke-right-pulling, #111111);stroke-dasharray:4 4}.spoke-theme-color .spoke-right.spoke-trailing{stroke:var(--wheel-spoke-right-trailing, #111111);stroke-dasharray:4 4}.spoke-theme-black .spoke{stroke:var(--wheel-spoke-black, #111111)}.spoke-theme-silver .spoke{stroke:var(--wheel-spoke-silver, #ced4da)}.straight-pull-wheel-spoke{stroke-width:2;stroke-linecap:butt}.straight-pull-spoke-head,.spoke-theme-color .straight-pull-spoke-head,.spoke-theme-black .straight-pull-spoke-head,.spoke-theme-silver .straight-pull-spoke-head{stroke:none !important;stroke-width:0 !important}.spoke-theme-color .straight-pull-spoke-head.spoke-left.spoke-pulling{fill:var(--wheel-spoke-left-pulling, #111111)}.spoke-theme-color .straight-pull-spoke-head.spoke-left.spoke-trailing{fill:var(--wheel-spoke-left-trailing, #111111)}.spoke-theme-color .straight-pull-spoke-head.spoke-right.spoke-pulling{fill:var(--wheel-spoke-right-pulling, #111111)}.spoke-theme-color .straight-pull-spoke-head.spoke-right.spoke-trailing{fill:var(--wheel-spoke-right-trailing, #111111)}.spoke-theme-black .straight-pull-spoke-head{fill:var(--wheel-spoke-black, #111111)}.spoke-theme-silver .straight-pull-spoke-head{fill:var(--wheel-spoke-silver, #ced4da)}.hub-axle,.hub-axle-tip{fill:var(--wheel-hub-axle-fill, #ffffff);stroke:var(--wheel-hub-axle-stroke, #111111);stroke-width:0.8}.hub-endcap{fill:var(--wheel-hub-endcap-fill, #ffffff);stroke:var(--wheel-hub-endcap-stroke, #111111);stroke-width:1}.hub-cylinder,.hub-shell-body{fill:var(--wheel-hub-shell-fill, #ffffff);stroke:var(--wheel-hub-shell-stroke, #111111);stroke-width:1.2;fill-rule:evenodd}.hub-brand-dt-swiss .hub-shell-body{fill:var(--wheel-hub-shell-dt-swiss-fill, #ffffff)}.hub-brand-industry-nine .hub-shell-body{fill:var(--wheel-hub-shell-industry-nine-fill, #ffffff)}.hub-flange-left{fill:var(--wheel-hub-flange-left-fill, #ffffff);stroke:var(--wheel-hub-flange-left-stroke, #111111);stroke-width:1;fill-rule:evenodd}.hub-flange-right{fill:var(--wheel-hub-flange-right-fill, #ffffff);stroke:var(--wheel-hub-flange-right-stroke, #111111);stroke-width:1;fill-rule:evenodd}.hub-flange-plate{stroke-width:1.1}.hub-brake-mount,.hub-centerlock-side,.hub-sixbolt-side{fill:var(--wheel-hub-mount-fill, #ffffff);stroke:var(--wheel-hub-mount-stroke, #111111);stroke-width:1;fill-rule:evenodd}.hub-cylinder-freehub{fill:var(--wheel-hub-freehub-fill, #ffffff);stroke:var(--wheel-hub-freehub-stroke, #111111);stroke-width:1;fill-rule:evenodd}.hub-cylinder-dark,.hub-bearing-ring,.hub-freehub-inner-shoulder,.hub-freehub-thread-step{fill:var(--wheel-hub-bearing-fill, #ffffff);stroke:var(--wheel-hub-bearing-stroke, #111111);stroke-width:1}.hub-flange-cutout,.hub-flange-scallop{fill:var(--wheel-hub-cutout-fill, #ffffff);stroke:var(--wheel-hub-cutout-stroke, #111111);stroke-width:0.7}.hub-spoke-hole-side{fill:var(--wheel-hub-hole-fill, #111111);stroke:none}.hub-spoke-hole-face{fill:var(--wheel-hub-hole-fill, #111111);stroke:none}.hub-bolt-head-side{fill:var(--wheel-hub-cutout-fill, #ffffff);stroke:var(--wheel-hub-detail-stroke, #111111);stroke-width:0.6}.hub-spline-line,.hub-freehub-spline,.hub-centerlock-tooth,.hub-sixbolt-side-line,.hub-freehub-thread-line,.hub-freehub-final-step-line,.hub-straightpull-slot-side{stroke:var(--wheel-hub-detail-stroke, #111111);stroke-width:1;stroke-linecap:round;fill:none}.hub-blueprint-line{stroke:var(--wheel-hub-blueprint-stroke, #6b7280);stroke-width:0.7;stroke-dasharray:3 3;fill:none;opacity:0.9}.hub-measure-guide{stroke:var(--wheel-hub-blueprint-stroke, #6b7280);stroke-width:1.1;fill:none}.hub-measure-dashed{stroke-dasharray:3 3}.hub-shell-flute{stroke:var(--wheel-hub-flute-stroke, #111111);stroke-width:0.9;stroke-linecap:round;fill:none}.hub-shell-highlight{stroke:var(--wheel-hub-highlight-stroke, #111111);stroke-width:1;stroke-linecap:round}.hub-centerlock-solid-ring,.hub-freehub-xd-center-ring{fill:none;stroke:var(--wheel-hub-detail-stroke, #111111);stroke-width:1}.hub-centerlock-dashed-ring,.hub-freehub-xd-middle-ring{fill:none;stroke:var(--wheel-hub-detail-stroke, #111111);stroke-width:1;stroke-dasharray:1 1}</style><g class="hub-face-group hub-brand-dt-swiss hub-render-blueprint" data-hub-component="hub-face"><path d="M 75 45.75 A 29.25 29.25 0 0 1 75 104.25 A 29.25 29.25 0 0 1 75 45.75 Z M 75 69 A 6 6 0 0 0 75 81 A 6 6 0 0 0 75 69 Z " class="hub-flange-right" fill="var(--wheel-hub-flange-right-fill, #ffffff)" stroke="var(--wheel-hub-flange-right-stroke, #111111)" stroke-width="1.1" data-hub-component="right-flange"/><path d="M 75 41 A 34 34 0 0 1 75 109 A 34 34 0 0 1 75 41 Z M 75 69 A 6 6 0 0 0 75 81 A 6 6 0 0 0 75 69 Z " class="hub-flange-left" fill="var(--wheel-hub-flange-left-fill, #ffffff)" stroke="var(--wheel-hub-flange-left-stroke, #111111)" stroke-width="1.1" data-hub-component="left-flange"/><g class="hub-spoke-hole-markers hub-spoke-hole-markers-right" data-hub-component="spoke-hole-group" data-spoke-side="right"><circle cx="79.926" cy="50.235" r="1.3" class="hub-spoke-hole-face hub-spoke-hole-face-right" fill="var(--wheel-hub-hole-fill, #111111)" stroke="none" data-hub-component="spoke-hole" data-spoke-side="right" data-hub-index="0" opacity="0"/><circle cx="89.028" cy="54.005" r="1.3" class="hub-spoke-hole-face hub-spoke-hole-face-right" fill="var(--wheel-hub-hole-fill, #111111)" stroke="none" data-hub-component="spoke-hole" data-spoke-side="right" data-hub-index="1" opacity="0"/><circle cx="95.995" cy="60.972" r="1.3" class="hub-spoke-hole-face hub-spoke-hole-face-right" fill="var(--wheel-hub-hole-fill, #111111)" stroke="none" data-hub-component="spoke-hole" data-spoke-side="right" data-hub-index="2" opacity="0"/><circle cx="99.765" cy="70.074" r="1.3" class="hub-spoke-hole-face hub-spoke-hole-face-right" fill="var(--wheel-hub-hole-fill, #111111)" stroke="none" data-hub-component="spoke-hole" data-spoke-side="right" data-hub-index="3" opacity="0"/><circle cx="99.765" cy="79.926" r="1.3" class="hub-spoke-hole-face hub-spoke-hole-face-right" fill="var(--wheel-hub-hole-fill, #111111)" stroke="none" data-hub-component="spoke-hole" data-spoke-side="right" data-hub-index="4" opacity="0"/><circle cx="95.995" cy="89.028" r="1.3" class="hub-spoke-hole-face hub-spoke-hole-face-right" fill="var(--wheel-hub-hole-fill, #111111)" stroke="none" data-hub-component="spoke-hole" data-spoke-side="right" data-hub-index="5" opacity="0"/><circle cx="89.028" cy="95.995" r="1.3" class="hub-spoke-hole-face hub-spoke-hole-face-right" fill="var(--wheel-hub-hole-fill, #111111)" stroke="none" data-hub-component="spoke-hole" data-spoke-side="right" data-hub-index="6" opacity="0"/><circle cx="79.926" cy="99.765" r="1.3" class="hub-spoke-hole-face hub-spoke-hole-face-right" fill="var(--wheel-hub-hole-fill, #111111)" stroke="none" data-hub-component="spoke-hole" data-spoke-side="right" data-hub-index="7" opacity="0"/><circle cx="70.074" cy="99.765" r="1.3" class="hub-spoke-hole-face hub-spoke-hole-face-right" fill="var(--wheel-hub-hole-fill, #111111)" stroke="none" data-hub-component="spoke-hole" data-spoke-side="right" data-hub-index="8" opacity="0"/><circle cx="60.972" cy="95.995" r="1.3" class="hub-spoke-hole-face hub-spoke-hole-face-right" fill="var(--wheel-hub-hole-fill, #111111)" stroke="none" data-hub-component="spoke-hole" data-spoke-side="right" data-hub-index="9" opacity="0"/><circle cx="54.005" cy="89.028" r="1.3" class="hub-spoke-hole-face hub-spoke-hole-face-right" fill="var(--wheel-hub-hole-fill, #111111)" stroke="none" data-hub-component="spoke-hole" data-spoke-side="right" data-hub-index="10" opacity="0"/><circle cx="50.235" cy="79.926" r="1.3" class="hub-spoke-hole-face hub-spoke-hole-face-right" fill="var(--wheel-hub-hole-fill, #111111)" stroke="none" data-hub-component="spoke-hole" data-spoke-side="right" data-hub-index="11" opacity="0"/><circle cx="50.235" cy="70.074" r="1.3" class="hub-spoke-hole-face hub-spoke-hole-face-right" fill="var(--wheel-hub-hole-fill, #111111)" stroke="none" data-hub-component="spoke-hole" data-spoke-side="right" data-hub-index="12" opacity="0"/><circle cx="54.005" cy="60.972" r="1.3" class="hub-spoke-hole-face hub-spoke-hole-face-right" fill="var(--wheel-hub-hole-fill, #111111)" stroke="none" data-hub-component="spoke-hole" data-spoke-side="right" data-hub-index="13" opacity="0"/><circle cx="60.972" cy="54.005" r="1.3" class="hub-spoke-hole-face hub-spoke-hole-face-right" fill="var(--wheel-hub-hole-fill, #111111)" stroke="none" data-hub-component="spoke-hole" data-spoke-side="right" data-hub-index="14" opacity="0"/><circle cx="70.074" cy="50.235" r="1.3" class="hub-spoke-hole-face hub-spoke-hole-face-right" fill="var(--wheel-hub-hole-fill, #111111)" stroke="none" data-hub-component="spoke-hole" data-spoke-side="right" data-hub-index="15" opacity="0"/></g><g class="hub-spoke-hole-markers hub-spoke-hole-markers-left" data-hub-component="spoke-hole-group" data-spoke-side="left"><circle cx="75" cy="45" r="1.3" class="hub-spoke-hole-face hub-spoke-hole-face-left" fill="var(--wheel-hub-hole-fill, #111111)" stroke="none" data-hub-component="spoke-hole" data-spoke-side="left" data-hub-index="0" opacity="0"/><circle cx="86.481" cy="47.284" r="1.3" class="hub-spoke-hole-face hub-spoke-hole-face-left" fill="var(--wheel-hub-hole-fill, #111111)" stroke="none" data-hub-component="spoke-hole" data-spoke-side="left" data-hub-index="1" opacity="0"/><circle cx="96.213" cy="53.787" r="1.3" class="hub-spoke-hole-face hub-spoke-hole-face-left" fill="var(--wheel-hub-hole-fill, #111111)" stroke="none" data-hub-component="spoke-hole" data-spoke-side="left" data-hub-index="2" opacity="0"/><circle cx="102.716" cy="63.519" r="1.3" class="hub-spoke-hole-face hub-spoke-hole-face-left" fill="var(--wheel-hub-hole-fill, #111111)" stroke="none" data-hub-component="spoke-hole" data-spoke-side="left" data-hub-index="3" opacity="0"/><circle cx="105" cy="75" r="1.3" class="hub-spoke-hole-face hub-spoke-hole-face-left" fill="var(--wheel-hub-hole-fill, #111111)" stroke="none" data-hub-component="spoke-hole" data-spoke-side="left" data-hub-index="4" opacity="0"/><circle cx="102.716" cy="86.481" r="1.3" class="hub-spoke-hole-face hub-spoke-hole-face-left" fill="var(--wheel-hub-hole-fill, #111111)" stroke="none" data-hub-component="spoke-hole" data-spoke-side="left" data-hub-index="5" opacity="0"/><circle cx="96.213" cy="96.213" r="1.3" class="hub-spoke-hole-face hub-spoke-hole-face-left" fill="var(--wheel-hub-hole-fill, #111111)" stroke="none" data-hub-component="spoke-hole" data-spoke-side="left" data-hub-index="6" opacity="0"/><circle cx="86.481" cy="102.716" r="1.3" class="hub-spoke-hole-face hub-spoke-hole-face-left" fill="var(--wheel-hub-hole-fill, #111111)" stroke="none" data-hub-component="spoke-hole" data-spoke-side="left" data-hub-index="7" opacity="0"/><circle cx="75" cy="105" r="1.3" class="hub-spoke-hole-face hub-spoke-hole-face-left" fill="var(--wheel-hub-hole-fill, #111111)" stroke="none" data-hub-component="spoke-hole" data-spoke-side="left" data-hub-index="8" opacity="0"/><circle cx="63.519" cy="102.716" r="1.3" class="hub-spoke-hole-face hub-spoke-hole-face-left" fill="var(--wheel-hub-hole-fill, #111111)" stroke="none" data-hub-component="spoke-hole" data-spoke-side="left" data-hub-index="9" opacity="0"/><circle cx="53.787" cy="96.213" r="1.3" class="hub-spoke-hole-face hub-spoke-hole-face-left" fill="var(--wheel-hub-hole-fill, #111111)" stroke="none" data-hub-component="spoke-hole" data-spoke-side="left" data-hub-index="10" opacity="0"/><circle cx="47.284" cy="86.481" r="1.3" class="hub-spoke-hole-face hub-spoke-hole-face-left" fill="var(--wheel-hub-hole-fill, #111111)" stroke="none" data-hub-component="spoke-hole" data-spoke-side="left" data-hub-index="11" opacity="0"/><circle cx="45" cy="75" r="1.3" class="hub-spoke-hole-face hub-spoke-hole-face-left" fill="var(--wheel-hub-hole-fill, #111111)" stroke="none" data-hub-component="spoke-hole" data-spoke-side="left" data-hub-index="12" opacity="0"/><circle cx="47.284" cy="63.519" r="1.3" class="hub-spoke-hole-face hub-spoke-hole-face-left" fill="var(--wheel-hub-hole-fill, #111111)" stroke="none" data-hub-component="spoke-hole" data-spoke-side="left" data-hub-index="13" opacity="0"/><circle cx="53.787" cy="53.787" r="1.3" class="hub-spoke-hole-face hub-spoke-hole-face-left" fill="var(--wheel-hub-hole-fill, #111111)" stroke="none" data-hub-component="spoke-hole" data-spoke-side="left" data-hub-index="14" opacity="0"/><circle cx="63.519" cy="47.284" r="1.3" class="hub-spoke-hole-face hub-spoke-hole-face-left" fill="var(--wheel-hub-hole-fill, #111111)" stroke="none" data-hub-component="spoke-hole" data-spoke-side="left" data-hub-index="15" opacity="0"/></g><path d="M 90.852 69.747 C 91.433 69.657 94.021 67.066 94.701 66.902 C 95.38 66.738 99.253 67.119 99.914 67.565 C 100.576 68.012 103.249 72.139 103.52 72.857 C 103.79 73.575 103.79 76.425 103.52 77.143 C 103.249 77.861 100.576 81.988 99.914 82.435 C 99.253 82.881 95.38 83.262 94.701 83.098 C 94.021 82.934 91.433 80.343 90.852 80.253 C 90.271 80.163 87.204 81.461 86.951 81.9 C 86.698 82.339 87.107 85.643 87.476 86.102 C 87.844 86.56 91.382 87.505 91.863 88.012 C 92.345 88.519 93.952 92.063 93.896 92.859 C 93.84 93.655 91.603 98.034 91.116 98.627 C 90.629 99.221 88.161 100.645 87.404 100.77 C 86.647 100.895 81.736 100.643 81.018 100.294 C 80.301 99.944 78.035 96.781 77.837 96.11 C 77.639 95.44 78.589 91.903 78.377 91.355 C 78.164 90.807 75.506 88.8 75 88.8 C 74.494 88.8 71.836 90.807 71.623 91.355 C 71.411 91.903 72.361 95.44 72.163 96.11 C 71.965 96.781 69.699 99.944 68.982 100.294 C 68.264 100.643 63.353 100.895 62.596 100.77 C 61.839 100.645 59.371 99.221 58.884 98.627 C 58.397 98.034 56.16 93.655 56.104 92.859 C 56.048 92.063 57.655 88.519 58.137 88.012 C 58.618 87.505 62.156 86.56 62.524 86.102 C 62.893 85.643 63.302 82.339 63.049 81.9 C 62.796 81.461 59.729 80.163 59.148 80.253 C 58.567 80.343 55.979 82.934 55.299 83.098 C 54.62 83.262 50.747 82.881 50.086 82.435 C 49.424 81.988 46.751 77.861 46.48 77.143 C 46.21 76.425 46.21 73.575 46.48 72.857 C 46.751 72.139 49.424 68.012 50.086 67.565 C 50.747 67.119 54.62 66.738 55.299 66.902 C 55.979 67.066 58.567 69.657 59.148 69.747 C 59.729 69.837 62.796 68.539 63.049 68.1 C 63.302 67.661 62.893 64.357 62.524 63.898 C 62.156 63.44 58.618 62.495 58.137 61.988 C 57.655 61.481 56.048 57.937 56.104 57.141 C 56.16 56.345 58.397 51.966 58.884 51.373 C 59.371 50.779 61.839 49.355 62.596 49.23 C 63.353 49.105 68.264 49.357 68.982 49.706 C 69.699 50.056 71.965 53.219 72.163 53.89 C 72.361 54.56 71.411 58.097 71.623 58.645 C 71.836 59.193 74.494 61.2 75 61.2 C 75.506 61.2 78.164 59.193 78.377 58.645 C 78.589 58.097 77.639 54.56 77.837 53.89 C 78.035 53.219 80.301 50.056 81.018 49.706 C 81.736 49.357 86.647 49.105 87.404 49.23 C 88.161 49.355 90.629 50.779 91.116 51.373 C 91.603 51.966 93.84 56.345 93.896 57.141 C 93.952 57.937 92.345 61.481 91.863 61.988 C 91.382 62.495 87.844 63.44 87.476 63.898 C 87.107 64.357 86.698 67.661 86.951 68.1 C 87.204 68.539 90.271 69.837 90.852 69.747 Z M 97 72.2 A 2.8 2.8 0 0 0 97 77.8 A 2.8 2.8 0 0 0 97 72.2 Z M 86 91.253 A 2.8 2.8 0 0 0 86 96.853 A 2.8 2.8 0 0 0 86 91.253 Z M 64 91.253 A 2.8 2.8 0 0 0 64 96.853 A 2.8 2.8 0 0 0 64 91.253 Z M 53 72.2 A 2.8 2.8 0 0 0 53 77.8 A 2.8 2.8 0 0 0 53 72.2 Z M 64 53.147 A 2.8 2.8 0 0 0 64 58.747 A 2.8 2.8 0 0 0 64 53.147 Z M 86 53.147 A 2.8 2.8 0 0 0 86 58.747 A 2.8 2.8 0 0 0 86 53.147 Z M 75 69 A 6 6 0 0 0 75 81 A 6 6 0 0 0 75 69 Z " class="hub-brake-mount" fill="var(--wheel-hub-mount-fill, #ffffff)" stroke="var(--wheel-hub-mount-stroke, #111111)" stroke-width="1" data-hub-component="brake-mount"/></g></svg>
