<svg xmlns="http://www.w3.org/2000/svg" width="200" height="150" viewBox="0 0 200 150" preserveAspectRatio="xMidYMid meet" class="hub-svg"><style>
    :root{--rim-color:#343a40;--spoke-left-pulling:#0d6efd;--spoke-left-trailing:#0dcaf0;--spoke-right-pulling:#fd7e14;--spoke-right-trailing:#ffc107}
    .wheel-svg,.hub-svg{background:#fff}
    .rim-body{fill:#343a40;stroke:#212529;stroke-width:1;fill-rule:evenodd}
    .rim-outline{fill:none;stroke:#111;stroke-width:1.5}
    .rim-highlight{fill:none;stroke:rgba(255,255,255,.15);stroke-width:1}
    .hub-flange-right{fill:#212529;stroke:#111;stroke-width:1;fill-rule:evenodd}
    .hub-flange-left{fill:#343a40;stroke:#1a1e21;stroke-width:1;fill-rule:evenodd}
    .hub-brake-mount{fill:#212529;stroke:#111;stroke-width:1;fill-rule:evenodd}
    .hub-cylinder{fill:#343a40;stroke:#1a1e21;stroke-width:1;fill-rule:evenodd}
    .hub-cylinder-dark{fill:#212529;stroke:#111;stroke-width:1;fill-rule:evenodd}
    .hub-cylinder-freehub{fill:#6c757d;stroke:#343a40;stroke-width:1;fill-rule:evenodd}
    .rim-hole{fill:#111;stroke:#343a40;stroke-width:.5}
    .valve-hole-marker{fill:#dc3545}
    .valve-hole-line{stroke:#dc3545;stroke-width:2.5;stroke-linecap:round}
    .valve-label{font-family:sans-serif;font-size:14px;fill:#495057;font-weight:bold}
    .spoke-nipple{stroke-width:5;stroke-linecap:butt}
    .nipple-theme-silver .spoke-nipple{stroke:#adb5bd}
    .nipple-theme-black .spoke-nipple{stroke:#212529}
    .spoke{stroke-width:1.5;stroke-linecap:round}
    .spoke-theme-color .spoke-left.spoke-pulling{stroke:#0d6efd}
    .spoke-theme-color .spoke-left.spoke-trailing{stroke:#0dcaf0}
    .spoke-theme-color .spoke-right.spoke-pulling{stroke:#fd7e14;stroke-dasharray:4 4}
    .spoke-theme-color .spoke-right.spoke-trailing{stroke:#ffc107;stroke-dasharray:4 4}
    .spoke-theme-black .spoke{stroke:#212529}
    .spoke-theme-silver .spoke{stroke:#ced4da}
  </style><g class="hub-side-group"><rect x="29" y="70" width="142" height="10" class="hub-cylinder-dark"/><rect x="25" y="66" width="8" height="18" class="hub-cylinder"/><rect x="167" y="66" width="8" height="18" class="hub-cylinder"/><rect x="35" y="53" width="6" height="44" class="hub-brake-mount"/><rect x="165" y="57.5" width="0" height="35" class="hub-cylinder-freehub"/><line x1="169" y1="63" x2="161" y2="63" stroke="#343a40" stroke-width="1"/><line x1="169" y1="68" x2="161" y2="68" stroke="#343a40" stroke-width="1"/><line x1="169" y1="73" x2="161" y2="73" stroke="#343a40" stroke-width="1"/><line x1="169" y1="78" x2="161" y2="78" stroke="#343a40" stroke-width="1"/><line x1="169" y1="83" x2="161" y2="83" stroke="#343a40" stroke-width="1"/><line x1="169" y1="88" x2="161" y2="88" stroke="#343a40" stroke-width="1"/><path d="M 43 63 L 60.4 48 L 66.4 48 L 71.4 63 L 115.3 63 L 120.3 51 L 126.3 51 L 163 63 L 163 87 L 126.3 99 L 120.3 99 L 115.3 87 L 71.4 87 L 66.4 102 L 60.4 102 L 43 87 Z" class="hub-cylinder"/><path d="M 63.4 42 L 66.4 42 L 66.4 108 L 63.4 108 Z M 63.4 45.85 L 63.4 46.15 L 66.4 46.15 L 66.4 45.85 Z M 63.4 47.78654178157108 L 63.4 48.62844533277428 L 66.4 48.62844533277428 L 66.4 47.78654178157108 Z M 63.4 53.71608588628492 L 63.4 55.271720804895324 L 66.4 55.271720804895324 L 66.4 53.71608588628492 Z M 63.4 62.88591297564999 L 63.4 64.91844794717481 L 66.4 64.91844794717481 L 66.4 62.88591297564999 Z M 63.4 73.9 L 63.4 76.10000000000001 L 66.4 76.10000000000001 L 66.4 73.9 Z M 63.4 85.08155205282519 L 63.4 87.11408702435001 L 66.4 87.11408702435001 L 66.4 85.08155205282519 Z M 63.4 94.72827919510468 L 63.4 96.28391411371508 L 66.4 96.28391411371508 L 66.4 94.72827919510468 Z M 63.4 101.37155466722572 L 63.4 102.21345821842893 L 66.4 102.21345821842893 L 66.4 101.37155466722572 Z M 63.4 103.85 L 63.4 104.14999999999999 L 66.4 104.14999999999999 L 66.4 103.85 Z M 63.4 101.37155466722572 L 63.4 102.21345821842893 L 66.4 102.21345821842893 L 66.4 101.37155466722572 Z M 63.4 94.72827919510468 L 63.4 96.28391411371508 L 66.4 96.28391411371508 L 66.4 94.72827919510468 Z M 63.4 85.0815520528252 L 63.4 87.11408702435003 L 66.4 87.11408702435003 L 66.4 85.0815520528252 Z M 63.4 73.9 L 63.4 76.10000000000001 L 66.4 76.10000000000001 L 66.4 73.9 Z M 63.4 62.88591297564997 L 63.4 64.9184479471748 L 66.4 64.9184479471748 L 66.4 62.88591297564997 Z M 63.4 53.71608588628492 L 63.4 55.271720804895324 L 66.4 55.271720804895324 L 66.4 53.71608588628492 Z M 63.4 47.78654178157109 L 63.4 48.628445332774284 L 66.4 48.628445332774284 L 66.4 47.78654178157109 Z " class="hub-flange-left"/><path d="M 123.3 45 L 126.3 45 L 126.3 105 L 123.3 105 Z M 123.3 49.284983355298266 L 123.3 49.71418206373375 L 126.3 49.71418206373375 L 126.3 49.284983355298266 Z M 123.3 52.770662823812266 L 123.3 53.99291733645539 L 126.3 53.99291733645539 L 126.3 52.770662823812266 Z M 123.3 59.64055736795755 L 123.3 61.46979051502315 L 126.3 61.46979051502315 L 126.3 59.64055736795755 Z M 123.3 68.84878781913712 L 123.3 71.00651543602422 L 126.3 71.00651543602422 L 126.3 68.84878781913712 Z M 123.3 78.99348456397577 L 123.3 81.15121218086287 L 126.3 81.15121218086287 L 126.3 78.99348456397577 Z M 123.3 88.53020948497687 L 123.3 90.35944263204246 L 126.3 90.35944263204246 L 126.3 88.53020948497687 Z M 123.3 96.00708266354461 L 123.3 97.22933717618773 L 126.3 97.22933717618773 L 126.3 96.00708266354461 Z M 123.3 100.28581793626626 L 123.3 100.71501664470173 L 126.3 100.71501664470173 L 126.3 100.28581793626626 Z M 123.3 100.28581793626626 L 123.3 100.71501664470173 L 126.3 100.71501664470173 L 126.3 100.28581793626626 Z M 123.3 96.00708266354461 L 123.3 97.22933717618773 L 126.3 97.22933717618773 L 126.3 96.00708266354461 Z M 123.3 88.53020948497687 L 123.3 90.35944263204246 L 126.3 90.35944263204246 L 126.3 88.53020948497687 Z M 123.3 78.99348456397578 L 123.3 81.15121218086288 L 126.3 81.15121218086288 L 126.3 78.99348456397578 Z M 123.3 68.8487878191371 L 123.3 71.0065154360242 L 126.3 71.0065154360242 L 126.3 68.8487878191371 Z M 123.3 59.640557367957534 L 123.3 61.469790515023135 L 126.3 61.469790515023135 L 126.3 59.640557367957534 Z M 123.3 52.770662823812266 L 123.3 53.99291733645539 L 126.3 53.99291733645539 L 126.3 52.770662823812266 Z M 123.3 49.28498335529827 L 123.3 49.71418206373376 L 126.3 49.71418206373376 L 126.3 49.28498335529827 Z " class="hub-flange-right"/></g></svg>
