<svg xmlns="http://www.w3.org/2000/svg" width="720" height="380" viewBox="0 0 720 380"><style>
    .wheel-bg{fill:#ffffff}
    .wheel-guide{stroke:#d7dee8;stroke-width:1}
    .wheel-rim{fill:#424c57;stroke:#202832;stroke-width:2}
    .wheel-rim-inner{fill:#ffffff;stroke:#202832;stroke-width:1}
    .wheel-spoke{fill:none;stroke-linecap:round;stroke-width:2.2}
    .wheel-spoke.left{stroke:#2563eb}
    .wheel-spoke.right{stroke:#f97316}
    .wheel-spoke.muted{stroke:#94a3b8;opacity:.42}
    .wheel-spoke.trailing{stroke-dasharray:7 5}
    .wheel-hub{fill:#1f2933;stroke:#0f1720;stroke-width:2}
    .wheel-hole{fill:#ffffff;stroke:#c0392b;stroke-width:2}
    .wheel-marker{fill:#c0392b;stroke:#ffffff;stroke-width:3}
    .wheel-label{fill:#344054;font:600 16px system-ui,sans-serif}
    .wheel-dim{stroke:#10b981;stroke-width:3;fill:none;stroke-linecap:round}
    .wheel-dim-text{fill:#344054;font:600 14px system-ui,sans-serif}
    .wheel-shell{fill:#1f2933;stroke:#0f1720;stroke-width:2}
    .wheel-cassette-slot svg{overflow:visible}
  </style><rect x="0" y="0" width="720" height="380" class="wheel-bg"/><line x1="360" y1="24" x2="360" y2="356" class="wheel-guide" stroke-dasharray="8 8"/><path d="M 341.475 44 L 378.525 44 L 373.525 92.048 L 346.475 92.048 Z" class="wheel-rim side-rim"/><line x1="341.475" y1="92.048" x2="251.746" y2="258.4" class="wheel-spoke left"/><line x1="378.525" y1="92.048" x2="428.915" y2="258.4" class="wheel-spoke right"/><line x1="378.525" y1="92.048" x2="251.746" y2="337.6" class="wheel-spoke left trailing"/><line x1="341.475" y1="92.048" x2="428.915" y2="337.6" class="wheel-spoke right trailing"/><rect x="116" y="291" width="488" height="14" class="wheel-shell" rx="4"/><path d="M 186 258.4 L 239.74647887323943 246.51999999999998 L 267.7464788732394 273.448 L 412.9154929577465 273.448 L 440.9154929577465 246.51999999999998 L 534 258.4 L 534 337.6 L 440.9154929577465 349.48 L 412.9154929577465 322.552 L 267.7464788732394 322.552 L 239.74647887323943 349.48 L 186 337.6 Z" class="wheel-shell"/><line x1="251.746" y1="228" x2="251.746" y2="368" class="wheel-dim"/><line x1="428.915" y1="228" x2="428.915" y2="368" class="wheel-dim"/><line x1="341.475" y1="30" x2="378.525" y2="30" class="wheel-dim"/><text x="360" y="22" class="wheel-dim-text" text-anchor="middle">25.0mm rim</text><text x="360" y="350" class="wheel-dim-text" text-anchor="middle">Bracing angles L 19.5deg / R 11.2deg</text></svg>
