<svg xmlns="http://www.w3.org/2000/svg" width="700" height="700" viewBox="0 0 700 700" preserveAspectRatio="xMidYMid meet" class="wheel-svg"><style>.wheel-svg,.hub-svg{background:var(--wheel-svg-background, #ffffff)}.rim-body{fill:var(--wheel-rim-side-fill, #ffffff);stroke:var(--wheel-rim-stroke, #111111);stroke-width:1;fill-rule:evenodd}.rim-outline{fill:none;stroke:var(--wheel-rim-outline-stroke, #111111);stroke-width:1.5}.rim-highlight{fill:none;stroke:var(--wheel-rim-highlight-stroke, rgba(255,255,255,.15));stroke-width:1}.rim-hole{fill:var(--wheel-rim-hole-fill, #111111);stroke:var(--wheel-rim-hole-stroke, #343a40);stroke-width:0.5}.valve-hole-marker{fill:var(--wheel-valve-fill, #ffffff)}.valve-hole-line{stroke:var(--wheel-valve-stroke, #111111);stroke-width:2.5;stroke-linecap:round}.valve-label{font-family:sans-serif;font-size:14px;fill:var(--wheel-valve-label-fill, #495057);font-weight:bold}.wheel-valve-part{fill:var(--wheel-valve-fill, #ffffff);stroke:var(--wheel-valve-stroke, #111111);stroke-width:1}.spoke-nipple{stroke-width:5;stroke-linecap:butt}.spoke-nipple-dot{fill:var(--wheel-nipple-dot-fill, #ffffff);stroke:var(--wheel-nipple-dot-stroke, #111111);stroke-width:1}.nipple-theme-silver .spoke-nipple{stroke:var(--wheel-nipple-silver, #111111)}.nipple-theme-black .spoke-nipple{stroke:var(--wheel-nipple-black, #111111)}.spoke{stroke-width:1.5;stroke-linecap:round}.spoke-theme-color .spoke-left.spoke-pulling{stroke:var(--wheel-spoke-left-pulling, #111111)}.spoke-theme-color .spoke-left.spoke-trailing{stroke:var(--wheel-spoke-left-trailing, #111111)}.spoke-theme-color .spoke-right.spoke-pulling{stroke:var(--wheel-spoke-right-pulling, #111111);stroke-dasharray:4 4}.spoke-theme-color .spoke-right.spoke-trailing{stroke:var(--wheel-spoke-right-trailing, #111111);stroke-dasharray:4 4}.spoke-theme-black .spoke{stroke:var(--wheel-spoke-black, #111111)}.spoke-theme-silver .spoke{stroke:var(--wheel-spoke-silver, #ced4da)}.hub-axle,.hub-axle-tip{fill:var(--wheel-hub-axle-fill, #ffffff);stroke:var(--wheel-hub-axle-stroke, #111111);stroke-width:0.8}.hub-endcap{fill:var(--wheel-hub-endcap-fill, #ffffff);stroke:var(--wheel-hub-endcap-stroke, #111111);stroke-width:1}.hub-cylinder,.hub-shell-body{fill:var(--wheel-hub-shell-fill, #ffffff);stroke:var(--wheel-hub-shell-stroke, #111111);stroke-width:1.2;fill-rule:evenodd}.hub-brand-dt-swiss .hub-shell-body{fill:var(--wheel-hub-shell-dt-swiss-fill, #ffffff)}.hub-brand-industry-nine .hub-shell-body{fill:var(--wheel-hub-shell-industry-nine-fill, #ffffff)}.hub-flange-left{fill:var(--wheel-hub-flange-left-fill, #ffffff);stroke:var(--wheel-hub-flange-left-stroke, #111111);stroke-width:1;fill-rule:evenodd}.hub-flange-right{fill:var(--wheel-hub-flange-right-fill, #ffffff);stroke:var(--wheel-hub-flange-right-stroke, #111111);stroke-width:1;fill-rule:evenodd}.hub-flange-plate{stroke-width:1.1}.hub-brake-mount,.hub-centerlock-side,.hub-sixbolt-side{fill:var(--wheel-hub-mount-fill, #ffffff);stroke:var(--wheel-hub-mount-stroke, #111111);stroke-width:1;fill-rule:evenodd}.hub-cylinder-freehub{fill:var(--wheel-hub-freehub-fill, #ffffff);stroke:var(--wheel-hub-freehub-stroke, #111111);stroke-width:1;fill-rule:evenodd}.hub-cylinder-dark,.hub-bearing-ring,.hub-freehub-inner-shoulder,.hub-freehub-thread-step{fill:var(--wheel-hub-bearing-fill, #ffffff);stroke:var(--wheel-hub-bearing-stroke, #111111);stroke-width:1}.hub-flange-cutout,.hub-flange-scallop{fill:var(--wheel-hub-cutout-fill, #ffffff);stroke:var(--wheel-hub-cutout-stroke, #111111);stroke-width:0.7}.hub-spoke-hole-side{fill:var(--wheel-hub-hole-fill, #111111);stroke:none}.hub-bolt-head-side{fill:var(--wheel-hub-cutout-fill, #ffffff);stroke:var(--wheel-hub-detail-stroke, #111111);stroke-width:0.6}.hub-spline-line,.hub-freehub-spline,.hub-centerlock-tooth,.hub-sixbolt-side-line,.hub-freehub-thread-line,.hub-freehub-final-step-line,.hub-straightpull-slot-side{stroke:var(--wheel-hub-detail-stroke, #111111);stroke-width:1;stroke-linecap:round;fill:none}.hub-blueprint-line{stroke:var(--wheel-hub-blueprint-stroke, #6b7280);stroke-width:0.7;stroke-dasharray:3 3;fill:none;opacity:0.9}.hub-shell-flute{stroke:var(--wheel-hub-flute-stroke, #111111);stroke-width:0.9;stroke-linecap:round;fill:none}.hub-shell-highlight{stroke:var(--wheel-hub-highlight-stroke, #111111);stroke-width:1;stroke-linecap:round}.hub-centerlock-solid-ring,.hub-freehub-xd-center-ring{fill:none;stroke:var(--wheel-hub-detail-stroke, #111111);stroke-width:1}.hub-centerlock-dashed-ring,.hub-freehub-xd-middle-ring{fill:none;stroke:var(--wheel-hub-detail-stroke, #111111);stroke-width:1;stroke-dasharray:1 1}</style><g class="spoke-theme-silver wheel-back-spokes"><line x1="358.036" y1="330.599" x2="457.151" y2="91.314" class="spoke spoke-right spoke-pulling" data-rim-index="1" data-hub-index="0"/><line x1="366.66" y1="337.216" x2="572.139" y2="179.547" class="spoke spoke-right spoke-trailing" data-rim-index="3" data-hub-index="1"/><line x1="370.82" y1="347.259" x2="627.605" y2="313.453" class="spoke spoke-right spoke-pulling" data-rim-index="5" data-hub-index="2"/><line x1="369.401" y1="358.036" x2="608.686" y2="457.151" class="spoke spoke-right spoke-trailing" data-rim-index="7" data-hub-index="3"/><line x1="362.784" y1="366.66" x2="520.453" y2="572.139" class="spoke spoke-right spoke-pulling" data-rim-index="9" data-hub-index="4"/><line x1="352.741" y1="370.82" x2="386.547" y2="627.605" class="spoke spoke-right spoke-trailing" data-rim-index="11" data-hub-index="5"/><line x1="341.964" y1="369.401" x2="242.849" y2="608.686" class="spoke spoke-right spoke-pulling" data-rim-index="13" data-hub-index="6"/><line x1="333.34" y1="362.784" x2="127.861" y2="520.453" class="spoke spoke-right spoke-trailing" data-rim-index="15" data-hub-index="7"/><line x1="329.18" y1="352.741" x2="72.395" y2="386.547" class="spoke spoke-right spoke-pulling" data-rim-index="17" data-hub-index="8"/><line x1="330.599" y1="341.964" x2="91.314" y2="242.849" class="spoke spoke-right spoke-trailing" data-rim-index="19" data-hub-index="9"/><line x1="337.216" y1="333.34" x2="179.547" y2="127.861" class="spoke spoke-right spoke-pulling" data-rim-index="21" data-hub-index="10"/><line x1="347.259" y1="329.18" x2="313.453" y2="72.395" class="spoke spoke-right spoke-trailing" data-rim-index="23" data-hub-index="11"/></g><g class="nipple-theme-black wheel-back-nipples"><line x1="457.151" y1="91.314" x2="453.325" y2="100.553" class="spoke-nipple"/><line x1="572.139" y1="179.547" x2="564.205" y2="185.634" class="spoke-nipple"/><line x1="627.605" y1="313.453" x2="617.69" y2="314.758" class="spoke-nipple"/><line x1="608.686" y1="457.151" x2="599.447" y2="453.325" class="spoke-nipple"/><line x1="520.453" y1="572.139" x2="514.366" y2="564.205" class="spoke-nipple"/><line x1="386.547" y1="627.605" x2="385.242" y2="617.69" class="spoke-nipple"/><line x1="242.849" y1="608.686" x2="246.675" y2="599.447" class="spoke-nipple"/><line x1="127.861" y1="520.453" x2="135.795" y2="514.366" class="spoke-nipple"/><line x1="72.395" y1="386.547" x2="82.31" y2="385.242" class="spoke-nipple"/><line x1="91.314" y1="242.849" x2="100.553" y2="246.675" class="spoke-nipple"/><line x1="179.547" y1="127.861" x2="185.634" y2="135.795" class="spoke-nipple"/><line x1="313.453" y1="72.395" x2="314.758" y2="82.31" class="spoke-nipple"/></g><g class="wheel-hub-face-group"><path d="M 352.731 336.269 L 357.744 324.134 A 27 27 0 0 1 372.98 335.826 L 362.556 343.808 Q 359.239 346.173 363.257 345.5 L 376.272 343.773 A 27 27 0 0 1 373.765 362.814 L 361.641 357.778 Q 357.934 356.088 360.526 359.231 L 368.529 369.639 A 27 27 0 0 1 350.785 376.989 L 349.084 363.97 Q 348.695 359.914 347.269 363.731 L 342.256 375.866 A 27 27 0 0 1 327.02 364.174 L 337.444 356.192 Q 340.761 353.827 336.743 354.5 L 323.728 356.227 A 27 27 0 0 1 326.235 337.186 L 338.359 342.222 Q 342.066 343.912 339.474 340.769 L 331.471 330.361 A 27 27 0 0 1 349.215 323.011 L 350.916 336.03 Q 351.305 340.086 352.731 336.269 Z M 350 344 A 6 6 0 0 0 350 356 A 6 6 0 0 0 350 344 Z " class="hub-flange-right"/><path d="M 349.084 336.03 L 350.785 323.011 A 27 27 0 0 1 368.529 330.361 L 360.526 340.769 Q 357.934 343.912 361.641 342.222 L 373.765 337.186 A 27 27 0 0 1 376.272 356.227 L 363.257 354.5 Q 359.239 353.827 362.556 356.192 L 372.98 364.174 A 27 27 0 0 1 357.744 375.866 L 352.731 363.731 Q 351.305 359.914 350.916 363.97 L 349.215 376.989 A 27 27 0 0 1 331.471 369.639 L 339.474 359.231 Q 342.066 356.088 338.359 357.778 L 326.235 362.814 A 27 27 0 0 1 323.728 343.773 L 336.743 345.5 Q 340.761 346.173 337.444 343.808 L 327.02 335.826 A 27 27 0 0 1 342.256 324.134 L 347.269 336.269 Q 348.695 340.086 349.084 336.03 Z M 350 344 A 6 6 0 0 0 350 356 A 6 6 0 0 0 350 344 Z " class="hub-flange-left"/><circle cx="350" cy="350" r="17" class="hub-centerlock-solid-ring" fill="none" stroke="var(--wheel-hub-detail-stroke, #111111)" stroke-width="1"/><circle cx="350" cy="350" r="17.5" class="hub-centerlock-dashed-ring" fill="none" stroke="var(--wheel-hub-detail-stroke, #111111)" stroke-width="1" stroke-dasharray="1 1"/><circle cx="350" cy="350" r="9" fill="none" stroke="var(--wheel-hub-detail-stroke, #111111)" stroke-width="6"/></g><g class="spoke-theme-silver wheel-front-spokes"><line x1="352.741" y1="329.18" x2="386.547" y2="72.395" class="spoke spoke-left spoke-pulling" data-rim-index="0" data-hub-index="0"/><line x1="362.784" y1="333.34" x2="520.453" y2="127.861" class="spoke spoke-left spoke-trailing" data-rim-index="2" data-hub-index="1"/><line x1="369.401" y1="341.964" x2="608.686" y2="242.849" class="spoke spoke-left spoke-pulling" data-rim-index="4" data-hub-index="2"/><line x1="370.82" y1="352.741" x2="627.605" y2="386.547" class="spoke spoke-left spoke-trailing" data-rim-index="6" data-hub-index="3"/><line x1="366.66" y1="362.784" x2="572.139" y2="520.453" class="spoke spoke-left spoke-pulling" data-rim-index="8" data-hub-index="4"/><line x1="358.036" y1="369.401" x2="457.151" y2="608.686" class="spoke spoke-left spoke-trailing" data-rim-index="10" data-hub-index="5"/><line x1="347.259" y1="370.82" x2="313.453" y2="627.605" class="spoke spoke-left spoke-pulling" data-rim-index="12" data-hub-index="6"/><line x1="337.216" y1="366.66" x2="179.547" y2="572.139" class="spoke spoke-left spoke-trailing" data-rim-index="14" data-hub-index="7"/><line x1="330.599" y1="358.036" x2="91.314" y2="457.151" class="spoke spoke-left spoke-pulling" data-rim-index="16" data-hub-index="8"/><line x1="329.18" y1="347.259" x2="72.395" y2="313.453" class="spoke spoke-left spoke-trailing" data-rim-index="18" data-hub-index="9"/><line x1="333.34" y1="337.216" x2="127.861" y2="179.547" class="spoke spoke-left spoke-pulling" data-rim-index="20" data-hub-index="10"/><line x1="341.964" y1="330.599" x2="242.849" y2="91.314" class="spoke spoke-left spoke-trailing" data-rim-index="22" data-hub-index="11"/></g><g class="nipple-theme-black wheel-front-nipples"><line x1="386.547" y1="72.395" x2="385.242" y2="82.31" class="spoke-nipple"/><line x1="520.453" y1="127.861" x2="514.366" y2="135.795" class="spoke-nipple"/><line x1="608.686" y1="242.849" x2="599.447" y2="246.675" class="spoke-nipple"/><line x1="627.605" y1="386.547" x2="617.69" y2="385.242" class="spoke-nipple"/><line x1="572.139" y1="520.453" x2="564.205" y2="514.366" class="spoke-nipple"/><line x1="457.151" y1="608.686" x2="453.325" y2="599.447" class="spoke-nipple"/><line x1="313.453" y1="627.605" x2="314.758" y2="617.69" class="spoke-nipple"/><line x1="179.547" y1="572.139" x2="185.634" y2="564.205" class="spoke-nipple"/><line x1="91.314" y1="457.151" x2="100.553" y2="453.325" class="spoke-nipple"/><line x1="72.395" y1="313.453" x2="82.31" y2="314.758" class="spoke-nipple"/><line x1="127.861" y1="179.547" x2="135.795" y2="185.634" class="spoke-nipple"/><line x1="242.849" y1="91.314" x2="246.675" y2="100.553" class="spoke-nipple"/></g><g id="rimGroup"><circle cx="350" cy="350" r="289" fill="transparent" stroke="var(--wheel-rim-face-fill, #e9ecef)" stroke-width="18"/><circle cx="350" cy="350" r="298" class="rim-outline"/><circle cx="350" cy="350" r="280" class="rim-outline"/><circle cx="350" cy="350" r="281" class="rim-highlight"/></g><g class="wheel-back-nipple-dots"></g><g class="wheel-front-nipple-dots"></g><g class="rim-holes-group"><circle cx="386.547" cy="72.395" r="2.2" class="rim-hole"/><circle cx="457.151" cy="91.314" r="2.2" class="rim-hole"/><circle cx="520.453" cy="127.861" r="2.2" class="rim-hole"/><circle cx="572.139" cy="179.547" r="2.2" class="rim-hole"/><circle cx="608.686" cy="242.849" r="2.2" class="rim-hole"/><circle cx="627.605" cy="313.453" r="2.2" class="rim-hole"/><circle cx="627.605" cy="386.547" r="2.2" class="rim-hole"/><circle cx="608.686" cy="457.151" r="2.2" class="rim-hole"/><circle cx="572.139" cy="520.453" r="2.2" class="rim-hole"/><circle cx="520.453" cy="572.139" r="2.2" class="rim-hole"/><circle cx="457.151" cy="608.686" r="2.2" class="rim-hole"/><circle cx="386.547" cy="627.605" r="2.2" class="rim-hole"/><circle cx="313.453" cy="627.605" r="2.2" class="rim-hole"/><circle cx="242.849" cy="608.686" r="2.2" class="rim-hole"/><circle cx="179.547" cy="572.139" r="2.2" class="rim-hole"/><circle cx="127.861" cy="520.453" r="2.2" class="rim-hole"/><circle cx="91.314" cy="457.151" r="2.2" class="rim-hole"/><circle cx="72.395" cy="386.547" r="2.2" class="rim-hole"/><circle cx="72.395" cy="313.453" r="2.2" class="rim-hole"/><circle cx="91.314" cy="242.849" r="2.2" class="rim-hole"/><circle cx="127.861" cy="179.547" r="2.2" class="rim-hole"/><circle cx="179.547" cy="127.861" r="2.2" class="rim-hole"/><circle cx="242.849" cy="91.314" r="2.2" class="rim-hole"/><circle cx="313.453" cy="72.395" r="2.2" class="rim-hole"/></g><g class="wheel-valve-group" transform="translate(350 70) rotate(0)"><rect x="-4" y="0" width="8" height="30" class="wheel-valve-part wheel-valve-stem" rx="1"/><rect x="-5" y="0" width="10" height="3" class="wheel-valve-part wheel-valve-base" rx="0.5"/><rect x="-4.5" y="22" width="9" height="8" class="wheel-valve-part wheel-valve-cap" rx="1"/></g></svg>
