<svg xmlns="http://www.w3.org/2000/svg" width="650" height="650" viewBox="0 0 650 650"><style>
    .wheel-bg{fill:#ffffff}
    .wheel-guide{stroke:#e5e7eb;stroke-width:1}
    .wheel-rim{fill:#111827;stroke:#030712;stroke-width:2}
    .wheel-rim-inner{fill:#ffffff;stroke:#030712;stroke-width:1}
    .wheel-spoke{fill:none;stroke-linecap:round;stroke-width:2.2}
    .wheel-spoke.left{stroke:#71717a}
    .wheel-spoke.right{stroke:#3f3f46}
    .wheel-spoke.muted{stroke:#a1a1aa;opacity:.42}
    .wheel-spoke.trailing{stroke-dasharray:7 5}
    .wheel-hub{fill:#27272a;stroke:#09090b;stroke-width:2}
    .wheel-hole{fill:#f8fafc;stroke:#ef4444;stroke-width:2}
    .wheel-marker{fill:#ef4444;stroke:#f8fafc;stroke-width:3}
    .wheel-label{fill:#27272a;font:600 16px system-ui,sans-serif}
    .wheel-dim{stroke:#84cc16;stroke-width:3;fill:none;stroke-linecap:round}
    .wheel-dim-text{fill:#27272a;font:600 14px system-ui,sans-serif}
    .wheel-shell{fill:#27272a;stroke:#09090b;stroke-width:2}
    .wheel-cassette-slot svg{overflow:visible}
  </style><rect class="wheel-bg" x="0" y="0" width="650" height="650"/><g class="wheel-rim-group"><circle cx="325" cy="325" r="290" class="wheel-rim"/><circle cx="325" cy="325" r="225.2" class="wheel-rim-inner"/></g><g class="wheel-spokes-group"><line x1="327.554" y1="299.069" x2="583.374" y2="246.623" class="wheel-spoke left pulling muted" data-side="left" data-rim-index="6" data-hub-index="0"/><line x1="337.283" y1="302.02" x2="153.714" y2="116.287" class="wheel-spoke left trailing muted" data-side="left" data-rim-index="28" data-hub-index="1"/><line x1="345.142" y1="308.47" x2="563.119" y2="452.277" class="wheel-spoke left pulling muted" data-side="left" data-rim-index="10" data-hub-index="2"/><line x1="349.935" y1="317.436" x2="351.465" y2="56.3" class="wheel-spoke left trailing muted" data-side="left" data-rim-index="0" data-hub-index="3"/><line x1="350.931" y1="327.554" x2="403.377" y2="583.374" class="wheel-spoke left pulling muted" data-side="left" data-rim-index="14" data-hub-index="4"/><line x1="347.98" y1="337.283" x2="533.713" y2="153.714" class="wheel-spoke left trailing muted" data-side="left" data-rim-index="4" data-hub-index="5"/><line x1="341.53" y1="345.142" x2="197.723" y2="563.119" class="wheel-spoke left pulling muted" data-side="left" data-rim-index="18" data-hub-index="6"/><line x1="332.564" y1="349.935" x2="593.7" y2="351.465" class="wheel-spoke left trailing muted" data-side="left" data-rim-index="8" data-hub-index="7"/><line x1="322.446" y1="350.931" x2="66.626" y2="403.377" class="wheel-spoke left pulling muted" data-side="left" data-rim-index="22" data-hub-index="8"/><line x1="312.717" y1="347.98" x2="496.286" y2="533.713" class="wheel-spoke left trailing muted" data-side="left" data-rim-index="12" data-hub-index="9"/><line x1="304.858" y1="341.53" x2="86.881" y2="197.723" class="wheel-spoke left pulling muted" data-side="left" data-rim-index="26" data-hub-index="10"/><line x1="300.065" y1="332.564" x2="298.535" y2="593.7" class="wheel-spoke left trailing muted" data-side="left" data-rim-index="16" data-hub-index="11"/><line x1="299.069" y1="322.446" x2="246.623" y2="66.626" class="wheel-spoke left pulling muted" data-side="left" data-rim-index="30" data-hub-index="12"/><line x1="302.02" y1="312.717" x2="116.287" y2="496.286" class="wheel-spoke left trailing muted" data-side="left" data-rim-index="20" data-hub-index="13"/><line x1="308.47" y1="304.858" x2="452.277" y2="86.881" class="wheel-spoke left pulling muted" data-side="left" data-rim-index="2" data-hub-index="14"/><line x1="317.436" y1="300.065" x2="56.3" y2="298.535" class="wheel-spoke left trailing muted" data-side="left" data-rim-index="24" data-hub-index="15"/><line x1="331.781" y1="302.645" x2="593.7" y2="298.535" class="wheel-spoke right pulling" data-side="right" data-rim-index="7" data-hub-index="0"/><line x1="339.82" y1="306.942" x2="197.723" y2="86.881" class="wheel-spoke right trailing" data-side="right" data-rim-index="29" data-hub-index="1"/><line x1="345.603" y1="313.988" x2="533.713" y2="496.286" class="wheel-spoke right pulling" data-side="right" data-rim-index="11" data-hub-index="2"/><line x1="348.249" y1="322.71" x2="403.377" y2="66.626" class="wheel-spoke right trailing" data-side="right" data-rim-index="1" data-hub-index="3"/><line x1="347.355" y1="331.781" x2="351.465" y2="593.7" class="wheel-spoke right pulling" data-side="right" data-rim-index="15" data-hub-index="4"/><line x1="343.058" y1="339.82" x2="563.119" y2="197.723" class="wheel-spoke right trailing" data-side="right" data-rim-index="5" data-hub-index="5"/><line x1="336.012" y1="345.603" x2="153.714" y2="533.713" class="wheel-spoke right pulling" data-side="right" data-rim-index="19" data-hub-index="6"/><line x1="327.29" y1="348.249" x2="583.374" y2="403.377" class="wheel-spoke right trailing" data-side="right" data-rim-index="9" data-hub-index="7"/><line x1="318.219" y1="347.355" x2="56.3" y2="351.465" class="wheel-spoke right pulling" data-side="right" data-rim-index="23" data-hub-index="8"/><line x1="310.18" y1="343.058" x2="452.277" y2="563.119" class="wheel-spoke right trailing" data-side="right" data-rim-index="13" data-hub-index="9"/><line x1="304.397" y1="336.012" x2="116.287" y2="153.714" class="wheel-spoke right pulling" data-side="right" data-rim-index="27" data-hub-index="10"/><line x1="301.751" y1="327.29" x2="246.623" y2="583.374" class="wheel-spoke right trailing" data-side="right" data-rim-index="17" data-hub-index="11"/><line x1="302.645" y1="318.219" x2="298.535" y2="56.3" class="wheel-spoke right pulling" data-side="right" data-rim-index="31" data-hub-index="12"/><line x1="306.942" y1="310.18" x2="86.881" y2="452.277" class="wheel-spoke right trailing" data-side="right" data-rim-index="21" data-hub-index="13"/><line x1="313.988" y1="304.397" x2="496.286" y2="116.287" class="wheel-spoke right pulling" data-side="right" data-rim-index="3" data-hub-index="14"/><line x1="322.71" y1="301.751" x2="66.626" y2="246.623" class="wheel-spoke right trailing" data-side="right" data-rim-index="25" data-hub-index="15"/></g><g class="wheel-hub-face-group"><circle cx="325" cy="325" r="26.057" class="wheel-hub left muted"/><circle cx="325" cy="325" r="23.361" class="wheel-hub right" opacity="0.72"/><circle cx="325" cy="325" r="25.2" class="wheel-hub shell"/></g><g class="wheel-rim-holes-group"><circle cx="351.465" cy="56.3" r="2.8" class="wheel-hole"/><circle cx="403.377" cy="66.626" r="2.8" class="wheel-hole"/><circle cx="452.277" cy="86.881" r="2.8" class="wheel-hole"/><circle cx="496.286" cy="116.287" r="2.8" class="wheel-hole"/><circle cx="533.713" cy="153.714" r="2.8" class="wheel-hole"/><circle cx="563.119" cy="197.723" r="2.8" class="wheel-hole"/><circle cx="583.374" cy="246.623" r="2.8" class="wheel-hole"/><circle cx="593.7" cy="298.535" r="2.8" class="wheel-hole"/><circle cx="593.7" cy="351.465" r="2.8" class="wheel-hole"/><circle cx="583.374" cy="403.377" r="2.8" class="wheel-hole"/><circle cx="563.119" cy="452.277" r="2.8" class="wheel-hole"/><circle cx="533.713" cy="496.286" r="2.8" class="wheel-hole"/><circle cx="496.286" cy="533.713" r="2.8" class="wheel-hole"/><circle cx="452.277" cy="563.119" r="2.8" class="wheel-hole"/><circle cx="403.377" cy="583.374" r="2.8" class="wheel-hole"/><circle cx="351.465" cy="593.7" r="2.8" class="wheel-hole"/><circle cx="298.535" cy="593.7" r="2.8" class="wheel-hole"/><circle cx="246.623" cy="583.374" r="2.8" class="wheel-hole"/><circle cx="197.723" cy="563.119" r="2.8" class="wheel-hole"/><circle cx="153.714" cy="533.713" r="2.8" class="wheel-hole"/><circle cx="116.287" cy="496.286" r="2.8" class="wheel-hole"/><circle cx="86.881" cy="452.277" r="2.8" class="wheel-hole"/><circle cx="66.626" cy="403.377" r="2.8" class="wheel-hole"/><circle cx="56.3" cy="351.465" r="2.8" class="wheel-hole"/><circle cx="56.3" cy="298.535" r="2.8" class="wheel-hole"/><circle cx="66.626" cy="246.623" r="2.8" class="wheel-hole"/><circle cx="86.881" cy="197.723" r="2.8" class="wheel-hole"/><circle cx="116.287" cy="153.714" r="2.8" class="wheel-hole"/><circle cx="153.714" cy="116.287" r="2.8" class="wheel-hole"/><circle cx="197.723" cy="86.881" r="2.8" class="wheel-hole"/><circle cx="246.623" cy="66.626" r="2.8" class="wheel-hole"/><circle cx="298.535" cy="56.3" r="2.8" class="wheel-hole"/></g><g class="wheel-hub-holes-group"><circle cx="327.554" cy="299.069" r="3.2" class="wheel-hole hub-hole"/><circle cx="337.283" cy="302.02" r="3.2" class="wheel-hole hub-hole"/><circle cx="345.142" cy="308.47" r="3.2" class="wheel-hole hub-hole"/><circle cx="349.935" cy="317.436" r="3.2" class="wheel-hole hub-hole"/><circle cx="350.931" cy="327.554" r="3.2" class="wheel-hole hub-hole"/><circle cx="347.98" cy="337.283" r="3.2" class="wheel-hole hub-hole"/><circle cx="341.53" cy="345.142" r="3.2" class="wheel-hole hub-hole"/><circle cx="332.564" cy="349.935" r="3.2" class="wheel-hole hub-hole"/><circle cx="322.446" cy="350.931" r="3.2" class="wheel-hole hub-hole"/><circle cx="312.717" cy="347.98" r="3.2" class="wheel-hole hub-hole"/><circle cx="304.858" cy="341.53" r="3.2" class="wheel-hole hub-hole"/><circle cx="300.065" cy="332.564" r="3.2" class="wheel-hole hub-hole"/><circle cx="299.069" cy="322.446" r="3.2" class="wheel-hole hub-hole"/><circle cx="302.02" cy="312.717" r="3.2" class="wheel-hole hub-hole"/><circle cx="308.47" cy="304.858" r="3.2" class="wheel-hole hub-hole"/><circle cx="317.436" cy="300.065" r="3.2" class="wheel-hole hub-hole"/><circle cx="331.781" cy="302.645" r="3.2" class="wheel-hole hub-hole"/><circle cx="339.82" cy="306.942" r="3.2" class="wheel-hole hub-hole"/><circle cx="345.603" cy="313.988" r="3.2" class="wheel-hole hub-hole"/><circle cx="348.249" cy="322.71" r="3.2" class="wheel-hole hub-hole"/><circle cx="347.355" cy="331.781" r="3.2" class="wheel-hole hub-hole"/><circle cx="343.058" cy="339.82" r="3.2" class="wheel-hole hub-hole"/><circle cx="336.012" cy="345.603" r="3.2" class="wheel-hole hub-hole"/><circle cx="327.29" cy="348.249" r="3.2" class="wheel-hole hub-hole"/><circle cx="318.219" cy="347.355" r="3.2" class="wheel-hole hub-hole"/><circle cx="310.18" cy="343.058" r="3.2" class="wheel-hole hub-hole"/><circle cx="304.397" cy="336.012" r="3.2" class="wheel-hole hub-hole"/><circle cx="301.751" cy="327.29" r="3.2" class="wheel-hole hub-hole"/><circle cx="302.645" cy="318.219" r="3.2" class="wheel-hole hub-hole"/><circle cx="306.942" cy="310.18" r="3.2" class="wheel-hole hub-hole"/><circle cx="313.988" cy="304.397" r="3.2" class="wheel-hole hub-hole"/><circle cx="322.71" cy="301.751" r="3.2" class="wheel-hole hub-hole"/></g><g class="wheel-valve-group"><line x1="325" y1="325" x2="351.465" y2="56.3" class="wheel-dim valve-line"/><circle cx="351.465" cy="56.3" r="7" class="wheel-marker"/><text x="351.465" y="39.3" class="wheel-label" text-anchor="middle">Valve</text></g><g class="wheel-cassette-slot" transform="translate(325 325) scale(.36) translate(-160 -160)"><svg xmlns="http://www.w3.org/2000/svg" viewBox="0 0 320 320"><circle cx="160" cy="160" r="26" fill="none" stroke="#64748b" stroke-width="3" opacity=".55"><title>52T</title></circle><circle cx="160" cy="160" r="31.5" fill="none" stroke="#64748b" stroke-width="3" opacity=".55"><title>42T</title></circle><circle cx="160" cy="160" r="37" fill="none" stroke="#64748b" stroke-width="3" opacity=".55"><title>36T</title></circle><circle cx="160" cy="160" r="42.5" fill="none" stroke="#64748b" stroke-width="3" opacity=".55"><title>32T</title></circle><circle cx="160" cy="160" r="48" fill="none" stroke="#64748b" stroke-width="3" opacity=".55"><title>28T</title></circle><circle cx="160" cy="160" r="53.5" fill="none" stroke="#64748b" stroke-width="3" opacity=".55"><title>24T</title></circle><circle cx="160" cy="160" r="59" fill="none" stroke="#64748b" stroke-width="3" opacity=".55"><title>21T</title></circle><circle cx="160" cy="160" r="64.5" fill="none" stroke="#64748b" stroke-width="3" opacity=".55"><title>18T</title></circle><circle cx="160" cy="160" r="70" fill="none" stroke="#64748b" stroke-width="3" opacity=".55"><title>16T</title></circle><circle cx="160" cy="160" r="75.5" fill="none" stroke="#64748b" stroke-width="3" opacity=".55"><title>14T</title></circle><circle cx="160" cy="160" r="81" fill="none" stroke="#64748b" stroke-width="3" opacity=".55"><title>12T</title></circle><circle cx="160" cy="160" r="86.5" fill="none" stroke="#64748b" stroke-width="3" opacity=".55"><title>10T</title></circle></svg></g></svg>
