<svg xmlns="http://www.w3.org/2000/svg" width="200" height="750" viewBox="0 0 200 750" preserveAspectRatio="xMidYMid meet" class="wheel-svg"><style>
    :root{--rim-color:#343a40;--spoke-left-pulling:#0d6efd;--spoke-left-trailing:#0dcaf0;--spoke-right-pulling:#fd7e14;--spoke-right-trailing:#ffc107}
    .wheel-svg,.hub-svg{background:#fff}
    .rim-body{fill:#343a40;stroke:#212529;stroke-width:1;fill-rule:evenodd}
    .rim-outline{fill:none;stroke:#111;stroke-width:1.5}
    .rim-highlight{fill:none;stroke:rgba(255,255,255,.15);stroke-width:1}
    .hub-flange-right{fill:#212529;stroke:#111;stroke-width:1;fill-rule:evenodd}
    .hub-flange-left{fill:#343a40;stroke:#1a1e21;stroke-width:1;fill-rule:evenodd}
    .hub-brake-mount{fill:#212529;stroke:#111;stroke-width:1;fill-rule:evenodd}
    .hub-cylinder{fill:#343a40;stroke:#1a1e21;stroke-width:1;fill-rule:evenodd}
    .hub-cylinder-dark{fill:#212529;stroke:#111;stroke-width:1;fill-rule:evenodd}
    .hub-cylinder-freehub{fill:#6c757d;stroke:#343a40;stroke-width:1;fill-rule:evenodd}
    .rim-hole{fill:#111;stroke:#343a40;stroke-width:.5}
    .valve-hole-marker{fill:#dc3545}
    .valve-hole-line{stroke:#dc3545;stroke-width:2.5;stroke-linecap:round}
    .valve-label{font-family:sans-serif;font-size:14px;fill:#495057;font-weight:bold}
    .spoke-nipple{stroke-width:5;stroke-linecap:butt}
    .nipple-theme-silver .spoke-nipple{stroke:#adb5bd}
    .nipple-theme-black .spoke-nipple{stroke:#212529}
    .spoke{stroke-width:1.5;stroke-linecap:round}
    .spoke-theme-color .spoke-left.spoke-pulling{stroke:#0d6efd}
    .spoke-theme-color .spoke-left.spoke-trailing{stroke:#0dcaf0}
    .spoke-theme-color .spoke-right.spoke-pulling{stroke:#fd7e14;stroke-dasharray:4 4}
    .spoke-theme-color .spoke-right.spoke-trailing{stroke:#ffc107;stroke-dasharray:4 4}
    .spoke-theme-black .spoke{stroke:#212529}
    .spoke-theme-silver .spoke{stroke:#ced4da}
  </style><g class="spoke-theme-color"><line x1="63.4" y1="346" x2="100" y2="74.5" class="spoke spoke-left spoke-pulling"/><line x1="123.3" y1="349" x2="100" y2="74.5" class="spoke spoke-right spoke-pulling"/><line x1="63.4" y1="404" x2="100" y2="675.5" class="spoke spoke-left spoke-pulling"/><line x1="123.3" y1="401" x2="100" y2="675.5" class="spoke spoke-right spoke-pulling"/></g><g class="hub-side-group"><rect x="29" y="370" width="142" height="10" class="hub-cylinder-dark"/><rect x="25" y="366" width="8" height="18" class="hub-cylinder"/><rect x="167" y="366" width="8" height="18" class="hub-cylinder"/><rect x="35" y="353" width="6" height="44" class="hub-brake-mount"/><rect x="165" y="357.5" width="0" height="35" class="hub-cylinder-freehub"/><line x1="169" y1="363" x2="161" y2="363" stroke="#343a40" stroke-width="1"/><line x1="169" y1="368" x2="161" y2="368" stroke="#343a40" stroke-width="1"/><line x1="169" y1="373" x2="161" y2="373" stroke="#343a40" stroke-width="1"/><line x1="169" y1="378" x2="161" y2="378" stroke="#343a40" stroke-width="1"/><line x1="169" y1="383" x2="161" y2="383" stroke="#343a40" stroke-width="1"/><line x1="169" y1="388" x2="161" y2="388" stroke="#343a40" stroke-width="1"/><path d="M 43 363 L 60.4 348 L 66.4 348 L 71.4 363 L 115.3 363 L 120.3 351 L 126.3 351 L 163 363 L 163 387 L 126.3 399 L 120.3 399 L 115.3 387 L 71.4 387 L 66.4 402 L 60.4 402 L 43 387 Z" class="hub-cylinder"/><path d="M 63.4 342 L 66.4 342 L 66.4 408 L 63.4 408 Z M 63.4 345.85 L 63.4 346.15000000000003 L 66.4 346.15000000000003 L 66.4 345.85 Z M 63.4 347.7865417815711 L 63.4 348.6284453327743 L 66.4 348.6284453327743 L 66.4 347.7865417815711 Z M 63.4 353.71608588628493 L 63.4 355.2717208048953 L 66.4 355.2717208048953 L 66.4 353.71608588628493 Z M 63.4 362.88591297565 L 63.4 364.91844794717485 L 66.4 364.91844794717485 L 66.4 362.88591297565 Z M 63.4 373.9 L 63.4 376.09999999999997 L 66.4 376.09999999999997 L 66.4 373.9 Z M 63.4 385.0815520528252 L 63.4 387.11408702435006 L 66.4 387.11408702435006 L 66.4 385.0815520528252 Z M 63.4 394.7282791951047 L 63.4 396.28391411371507 L 66.4 396.28391411371507 L 66.4 394.7282791951047 Z M 63.4 401.37155466722567 L 63.4 402.21345821842885 L 66.4 402.21345821842885 L 66.4 401.37155466722567 Z M 63.4 403.85 L 63.4 404.15000000000003 L 66.4 404.15000000000003 L 66.4 403.85 Z M 63.4 401.37155466722567 L 63.4 402.21345821842885 L 66.4 402.21345821842885 L 66.4 401.37155466722567 Z M 63.4 394.7282791951047 L 63.4 396.28391411371507 L 66.4 396.28391411371507 L 66.4 394.7282791951047 Z M 63.4 385.0815520528252 L 63.4 387.11408702435006 L 66.4 387.11408702435006 L 66.4 385.0815520528252 Z M 63.4 373.9 L 63.4 376.09999999999997 L 66.4 376.09999999999997 L 66.4 373.9 Z M 63.4 362.88591297565 L 63.4 364.91844794717485 L 66.4 364.91844794717485 L 66.4 362.88591297565 Z M 63.4 353.71608588628493 L 63.4 355.2717208048953 L 66.4 355.2717208048953 L 66.4 353.71608588628493 Z M 63.4 347.7865417815711 L 63.4 348.6284453327743 L 66.4 348.6284453327743 L 66.4 347.7865417815711 Z " class="hub-flange-left"/><path d="M 123.3 345 L 126.3 345 L 126.3 405 L 123.3 405 Z M 123.3 349.28498335529827 L 123.3 349.71418206373374 L 126.3 349.71418206373374 L 126.3 349.28498335529827 Z M 123.3 352.7706628238123 L 123.3 353.99291733645543 L 126.3 353.99291733645543 L 126.3 352.7706628238123 Z M 123.3 359.64055736795757 L 123.3 361.4697905150232 L 126.3 361.4697905150232 L 126.3 359.64055736795757 Z M 123.3 368.8487878191371 L 123.3 371.0065154360242 L 126.3 371.0065154360242 L 126.3 368.8487878191371 Z M 123.3 378.9934845639758 L 123.3 381.1512121808629 L 126.3 381.1512121808629 L 126.3 378.9934845639758 Z M 123.3 388.53020948497687 L 123.3 390.3594426320425 L 126.3 390.3594426320425 L 126.3 388.53020948497687 Z M 123.3 396.0070826635446 L 123.3 397.22933717618776 L 126.3 397.22933717618776 L 126.3 396.0070826635446 Z M 123.3 400.28581793626626 L 123.3 400.71501664470173 L 126.3 400.71501664470173 L 126.3 400.28581793626626 Z M 123.3 400.28581793626626 L 123.3 400.71501664470173 L 126.3 400.71501664470173 L 126.3 400.28581793626626 Z M 123.3 396.0070826635446 L 123.3 397.22933717618776 L 126.3 397.22933717618776 L 126.3 396.0070826635446 Z M 123.3 388.53020948497687 L 123.3 390.3594426320425 L 126.3 390.3594426320425 L 126.3 388.53020948497687 Z M 123.3 378.9934845639758 L 123.3 381.1512121808629 L 126.3 381.1512121808629 L 126.3 378.9934845639758 Z M 123.3 368.8487878191371 L 123.3 371.0065154360242 L 126.3 371.0065154360242 L 126.3 368.8487878191371 Z M 123.3 359.64055736795757 L 123.3 361.4697905150232 L 126.3 361.4697905150232 L 126.3 359.64055736795757 Z M 123.3 352.7706628238123 L 123.3 353.99291733645543 L 126.3 353.99291733645543 L 126.3 352.7706628238123 Z M 123.3 349.28498335529827 L 123.3 349.71418206373374 L 126.3 349.71418206373374 L 126.3 349.28498335529827 Z " class="hub-flange-right"/></g><g class="nipple-theme-silver"><line x1="100" y1="74.5" x2="98.664" y2="84.41" class="spoke-nipple"/><line x1="100" y1="74.5" x2="100.846" y2="84.464" class="spoke-nipple"/><line x1="100" y1="675.5" x2="98.664" y2="665.59" class="spoke-nipple"/><line x1="100" y1="675.5" x2="100.846" y2="665.536" class="spoke-nipple"/></g><g id="rimGroup"><path d="M 87.5 58 L 112.5 58 L 112.5 66.25 L 104.16666666666667 74.5 L 95.83333333333333 74.5 L 87.5 66.25 Z" class="rim-body"/><path d="M 95.83333333333333 675.5 L 104.16666666666667 675.5 L 112.5 683.75 L 112.5 692 L 87.5 692 L 87.5 683.75 Z" class="rim-body"/></g></svg>
