<svg xmlns="http://www.w3.org/2000/svg" width="700" height="700" viewBox="0 0 700 700" preserveAspectRatio="xMidYMid meet" class="wheel-svg"><style>.wheel-svg,.hub-svg{background:var(--wheel-svg-background, #ffffff)}.rim-body{fill:var(--wheel-rim-side-fill, #ffffff);stroke:var(--wheel-rim-stroke, #111111);stroke-width:1;fill-rule:evenodd}.rim-outline{fill:none;stroke:var(--wheel-rim-outline-stroke, #111111);stroke-width:1.5}.rim-highlight{fill:none;stroke:var(--wheel-rim-highlight-stroke, rgba(255,255,255,.15));stroke-width:1}.rim-hole{fill:var(--wheel-rim-hole-fill, #111111);stroke:var(--wheel-rim-hole-stroke, #343a40);stroke-width:0.5}.valve-hole-marker{fill:var(--wheel-valve-fill, #ffffff)}.valve-hole-line{stroke:var(--wheel-valve-stroke, #111111);stroke-width:2.5;stroke-linecap:round}.valve-label{font-family:sans-serif;font-size:14px;fill:var(--wheel-valve-label-fill, #495057);font-weight:bold}.wheel-valve-part{fill:var(--wheel-valve-fill, #ffffff);stroke:var(--wheel-valve-stroke, #111111);stroke-width:1}.spoke-nipple{stroke-width:5;stroke-linecap:butt}.spoke-nipple-dot{fill:var(--wheel-nipple-dot-fill, #ffffff);stroke:var(--wheel-nipple-dot-stroke, #111111);stroke-width:1}.nipple-theme-silver .spoke-nipple{stroke:var(--wheel-nipple-silver, #111111)}.nipple-theme-black .spoke-nipple{stroke:var(--wheel-nipple-black, #111111)}.spoke{stroke-width:1.5;stroke-linecap:round}.spoke-theme-color .spoke-left.spoke-pulling{stroke:var(--wheel-spoke-left-pulling, #111111)}.spoke-theme-color .spoke-left.spoke-trailing{stroke:var(--wheel-spoke-left-trailing, #111111)}.spoke-theme-color .spoke-right.spoke-pulling{stroke:var(--wheel-spoke-right-pulling, #111111);stroke-dasharray:4 4}.spoke-theme-color .spoke-right.spoke-trailing{stroke:var(--wheel-spoke-right-trailing, #111111);stroke-dasharray:4 4}.spoke-theme-black .spoke{stroke:var(--wheel-spoke-black, #111111)}.spoke-theme-silver .spoke{stroke:var(--wheel-spoke-silver, #ced4da)}.straight-pull-wheel-spoke{stroke-width:2;stroke-linecap:butt}.straight-pull-spoke-head,.spoke-theme-color .straight-pull-spoke-head,.spoke-theme-black .straight-pull-spoke-head,.spoke-theme-silver .straight-pull-spoke-head{stroke:none !important;stroke-width:0 !important}.spoke-theme-color .straight-pull-spoke-head.spoke-left.spoke-pulling{fill:var(--wheel-spoke-left-pulling, #111111)}.spoke-theme-color .straight-pull-spoke-head.spoke-left.spoke-trailing{fill:var(--wheel-spoke-left-trailing, #111111)}.spoke-theme-color .straight-pull-spoke-head.spoke-right.spoke-pulling{fill:var(--wheel-spoke-right-pulling, #111111)}.spoke-theme-color .straight-pull-spoke-head.spoke-right.spoke-trailing{fill:var(--wheel-spoke-right-trailing, #111111)}.spoke-theme-black .straight-pull-spoke-head{fill:var(--wheel-spoke-black, #111111)}.spoke-theme-silver .straight-pull-spoke-head{fill:var(--wheel-spoke-silver, #ced4da)}.hub-axle,.hub-axle-tip{fill:var(--wheel-hub-axle-fill, #ffffff);stroke:var(--wheel-hub-axle-stroke, #111111);stroke-width:0.8}.hub-endcap{fill:var(--wheel-hub-endcap-fill, #ffffff);stroke:var(--wheel-hub-endcap-stroke, #111111);stroke-width:1}.hub-cylinder,.hub-shell-body{fill:var(--wheel-hub-shell-fill, #ffffff);stroke:var(--wheel-hub-shell-stroke, #111111);stroke-width:1.2;fill-rule:evenodd}.hub-brand-dt-swiss .hub-shell-body{fill:var(--wheel-hub-shell-dt-swiss-fill, #ffffff)}.hub-brand-industry-nine .hub-shell-body{fill:var(--wheel-hub-shell-industry-nine-fill, #ffffff)}.hub-flange-left{fill:var(--wheel-hub-flange-left-fill, #ffffff);stroke:var(--wheel-hub-flange-left-stroke, #111111);stroke-width:1;fill-rule:evenodd}.hub-flange-right{fill:var(--wheel-hub-flange-right-fill, #ffffff);stroke:var(--wheel-hub-flange-right-stroke, #111111);stroke-width:1;fill-rule:evenodd}.hub-flange-plate{stroke-width:1.1}.hub-brake-mount,.hub-centerlock-side,.hub-sixbolt-side{fill:var(--wheel-hub-mount-fill, #ffffff);stroke:var(--wheel-hub-mount-stroke, #111111);stroke-width:1;fill-rule:evenodd}.hub-cylinder-freehub{fill:var(--wheel-hub-freehub-fill, #ffffff);stroke:var(--wheel-hub-freehub-stroke, #111111);stroke-width:1;fill-rule:evenodd}.hub-cylinder-dark,.hub-bearing-ring,.hub-freehub-inner-shoulder,.hub-freehub-thread-step{fill:var(--wheel-hub-bearing-fill, #ffffff);stroke:var(--wheel-hub-bearing-stroke, #111111);stroke-width:1}.hub-flange-cutout,.hub-flange-scallop{fill:var(--wheel-hub-cutout-fill, #ffffff);stroke:var(--wheel-hub-cutout-stroke, #111111);stroke-width:0.7}.hub-spoke-hole-side{fill:var(--wheel-hub-hole-fill, #111111);stroke:none}.hub-spoke-hole-face{fill:var(--wheel-hub-hole-fill, #111111);stroke:none}.hub-bolt-head-side{fill:var(--wheel-hub-cutout-fill, #ffffff);stroke:var(--wheel-hub-detail-stroke, #111111);stroke-width:0.6}.hub-spline-line,.hub-freehub-spline,.hub-centerlock-tooth,.hub-sixbolt-side-line,.hub-freehub-thread-line,.hub-freehub-final-step-line,.hub-straightpull-slot-side{stroke:var(--wheel-hub-detail-stroke, #111111);stroke-width:1;stroke-linecap:round;fill:none}.hub-blueprint-line{stroke:var(--wheel-hub-blueprint-stroke, #6b7280);stroke-width:0.7;stroke-dasharray:3 3;fill:none;opacity:0.9}.hub-measure-guide{stroke:var(--wheel-hub-blueprint-stroke, #6b7280);stroke-width:1.1;fill:none}.hub-measure-dashed{stroke-dasharray:3 3}.hub-shell-flute{stroke:var(--wheel-hub-flute-stroke, #111111);stroke-width:0.9;stroke-linecap:round;fill:none}.hub-shell-highlight{stroke:var(--wheel-hub-highlight-stroke, #111111);stroke-width:1;stroke-linecap:round}.hub-centerlock-solid-ring,.hub-freehub-xd-center-ring{fill:none;stroke:var(--wheel-hub-detail-stroke, #111111);stroke-width:1}.hub-centerlock-dashed-ring,.hub-freehub-xd-middle-ring{fill:none;stroke:var(--wheel-hub-detail-stroke, #111111);stroke-width:1;stroke-dasharray:1 1}</style><g class="spoke-theme-silver wheel-back-spokes"><line x1="358.036" y1="330.599" x2="457.151" y2="91.314" class="spoke wheel-spoke spoke-right spoke-pulling straight-pull-wheel-spoke" data-wheel-component="spoke" data-spoke-number="13" data-spoke-side="right" data-spoke-type="pulling" data-rim-index="1" data-hub-index="0"/><line x1="366.66" y1="337.216" x2="572.139" y2="179.547" class="spoke wheel-spoke spoke-right spoke-trailing straight-pull-wheel-spoke" data-wheel-component="spoke" data-spoke-number="14" data-spoke-side="right" data-spoke-type="trailing" data-rim-index="3" data-hub-index="1"/><line x1="370.82" y1="347.259" x2="627.605" y2="313.453" class="spoke wheel-spoke spoke-right spoke-pulling straight-pull-wheel-spoke" data-wheel-component="spoke" data-spoke-number="15" data-spoke-side="right" data-spoke-type="pulling" data-rim-index="5" data-hub-index="2"/><line x1="369.401" y1="358.036" x2="608.686" y2="457.151" class="spoke wheel-spoke spoke-right spoke-trailing straight-pull-wheel-spoke" data-wheel-component="spoke" data-spoke-number="16" data-spoke-side="right" data-spoke-type="trailing" data-rim-index="7" data-hub-index="3"/><line x1="362.784" y1="366.66" x2="520.453" y2="572.139" class="spoke wheel-spoke spoke-right spoke-pulling straight-pull-wheel-spoke" data-wheel-component="spoke" data-spoke-number="17" data-spoke-side="right" data-spoke-type="pulling" data-rim-index="9" data-hub-index="4"/><line x1="352.741" y1="370.82" x2="386.547" y2="627.605" class="spoke wheel-spoke spoke-right spoke-trailing straight-pull-wheel-spoke" data-wheel-component="spoke" data-spoke-number="18" data-spoke-side="right" data-spoke-type="trailing" data-rim-index="11" data-hub-index="5"/><line x1="341.964" y1="369.401" x2="242.849" y2="608.686" class="spoke wheel-spoke spoke-right spoke-pulling straight-pull-wheel-spoke" data-wheel-component="spoke" data-spoke-number="19" data-spoke-side="right" data-spoke-type="pulling" data-rim-index="13" data-hub-index="6"/><line x1="333.34" y1="362.784" x2="127.861" y2="520.453" class="spoke wheel-spoke spoke-right spoke-trailing straight-pull-wheel-spoke" data-wheel-component="spoke" data-spoke-number="20" data-spoke-side="right" data-spoke-type="trailing" data-rim-index="15" data-hub-index="7"/><line x1="329.18" y1="352.741" x2="72.395" y2="386.547" class="spoke wheel-spoke spoke-right spoke-pulling straight-pull-wheel-spoke" data-wheel-component="spoke" data-spoke-number="21" data-spoke-side="right" data-spoke-type="pulling" data-rim-index="17" data-hub-index="8"/><line x1="330.599" y1="341.964" x2="91.314" y2="242.849" class="spoke wheel-spoke spoke-right spoke-trailing straight-pull-wheel-spoke" data-wheel-component="spoke" data-spoke-number="22" data-spoke-side="right" data-spoke-type="trailing" data-rim-index="19" data-hub-index="9"/><line x1="337.216" y1="333.34" x2="179.547" y2="127.861" class="spoke wheel-spoke spoke-right spoke-pulling straight-pull-wheel-spoke" data-wheel-component="spoke" data-spoke-number="23" data-spoke-side="right" data-spoke-type="pulling" data-rim-index="21" data-hub-index="10"/><line x1="347.259" y1="329.18" x2="313.453" y2="72.395" class="spoke wheel-spoke spoke-right spoke-trailing straight-pull-wheel-spoke" data-wheel-component="spoke" data-spoke-number="24" data-spoke-side="right" data-spoke-type="trailing" data-rim-index="23" data-hub-index="11"/></g><g class="spoke-theme-silver straight-pull-spoke-heads straight-pull-back-heads"><path d="M 0 -1 L 1.293 -0.707 A 1 1 0 0 1 1.293 0.707 L 0 1 Z" class="straight-pull-spoke-head spoke-right spoke-pulling" transform="translate(358.036 330.599) rotate(112.5)" style="stroke: transparent; stroke-width: 0;" data-wheel-component="straight-pull-spoke-head" data-spoke-side="right" data-spoke-type="pulling" data-rim-index="1" data-hub-index="0"/><path d="M 0 -1 L 1.293 -0.707 A 1 1 0 0 1 1.293 0.707 L 0 1 Z" class="straight-pull-spoke-head spoke-right spoke-trailing" transform="translate(366.66 337.216) rotate(142.5)" style="stroke: transparent; stroke-width: 0;" data-wheel-component="straight-pull-spoke-head" data-spoke-side="right" data-spoke-type="trailing" data-rim-index="3" data-hub-index="1"/><path d="M 0 -1 L 1.293 -0.707 A 1 1 0 0 1 1.293 0.707 L 0 1 Z" class="straight-pull-spoke-head spoke-right spoke-pulling" transform="translate(370.82 347.259) rotate(172.5)" style="stroke: transparent; stroke-width: 0;" data-wheel-component="straight-pull-spoke-head" data-spoke-side="right" data-spoke-type="pulling" data-rim-index="5" data-hub-index="2"/><path d="M 0 -1 L 1.293 -0.707 A 1 1 0 0 1 1.293 0.707 L 0 1 Z" class="straight-pull-spoke-head spoke-right spoke-trailing" transform="translate(369.401 358.036) rotate(-157.5)" style="stroke: transparent; stroke-width: 0;" data-wheel-component="straight-pull-spoke-head" data-spoke-side="right" data-spoke-type="trailing" data-rim-index="7" data-hub-index="3"/><path d="M 0 -1 L 1.293 -0.707 A 1 1 0 0 1 1.293 0.707 L 0 1 Z" class="straight-pull-spoke-head spoke-right spoke-pulling" transform="translate(362.784 366.66) rotate(-127.5)" style="stroke: transparent; stroke-width: 0;" data-wheel-component="straight-pull-spoke-head" data-spoke-side="right" data-spoke-type="pulling" data-rim-index="9" data-hub-index="4"/><path d="M 0 -1 L 1.293 -0.707 A 1 1 0 0 1 1.293 0.707 L 0 1 Z" class="straight-pull-spoke-head spoke-right spoke-trailing" transform="translate(352.741 370.82) rotate(-97.5)" style="stroke: transparent; stroke-width: 0;" data-wheel-component="straight-pull-spoke-head" data-spoke-side="right" data-spoke-type="trailing" data-rim-index="11" data-hub-index="5"/><path d="M 0 -1 L 1.293 -0.707 A 1 1 0 0 1 1.293 0.707 L 0 1 Z" class="straight-pull-spoke-head spoke-right spoke-pulling" transform="translate(341.964 369.401) rotate(-67.5)" style="stroke: transparent; stroke-width: 0;" data-wheel-component="straight-pull-spoke-head" data-spoke-side="right" data-spoke-type="pulling" data-rim-index="13" data-hub-index="6"/><path d="M 0 -1 L 1.293 -0.707 A 1 1 0 0 1 1.293 0.707 L 0 1 Z" class="straight-pull-spoke-head spoke-right spoke-trailing" transform="translate(333.34 362.784) rotate(-37.5)" style="stroke: transparent; stroke-width: 0;" data-wheel-component="straight-pull-spoke-head" data-spoke-side="right" data-spoke-type="trailing" data-rim-index="15" data-hub-index="7"/><path d="M 0 -1 L 1.293 -0.707 A 1 1 0 0 1 1.293 0.707 L 0 1 Z" class="straight-pull-spoke-head spoke-right spoke-pulling" transform="translate(329.18 352.741) rotate(-7.5)" style="stroke: transparent; stroke-width: 0;" data-wheel-component="straight-pull-spoke-head" data-spoke-side="right" data-spoke-type="pulling" data-rim-index="17" data-hub-index="8"/><path d="M 0 -1 L 1.293 -0.707 A 1 1 0 0 1 1.293 0.707 L 0 1 Z" class="straight-pull-spoke-head spoke-right spoke-trailing" transform="translate(330.599 341.964) rotate(22.5)" style="stroke: transparent; stroke-width: 0;" data-wheel-component="straight-pull-spoke-head" data-spoke-side="right" data-spoke-type="trailing" data-rim-index="19" data-hub-index="9"/><path d="M 0 -1 L 1.293 -0.707 A 1 1 0 0 1 1.293 0.707 L 0 1 Z" class="straight-pull-spoke-head spoke-right spoke-pulling" transform="translate(337.216 333.34) rotate(52.5)" style="stroke: transparent; stroke-width: 0;" data-wheel-component="straight-pull-spoke-head" data-spoke-side="right" data-spoke-type="pulling" data-rim-index="21" data-hub-index="10"/><path d="M 0 -1 L 1.293 -0.707 A 1 1 0 0 1 1.293 0.707 L 0 1 Z" class="straight-pull-spoke-head spoke-right spoke-trailing" transform="translate(347.259 329.18) rotate(82.5)" style="stroke: transparent; stroke-width: 0;" data-wheel-component="straight-pull-spoke-head" data-spoke-side="right" data-spoke-type="trailing" data-rim-index="23" data-hub-index="11"/></g><g class="nipple-theme-black wheel-back-nipples"><line x1="457.151" y1="91.314" x2="453.325" y2="100.553" class="spoke-nipple"/><line x1="572.139" y1="179.547" x2="564.205" y2="185.634" class="spoke-nipple"/><line x1="627.605" y1="313.453" x2="617.69" y2="314.758" class="spoke-nipple"/><line x1="608.686" y1="457.151" x2="599.447" y2="453.325" class="spoke-nipple"/><line x1="520.453" y1="572.139" x2="514.366" y2="564.205" class="spoke-nipple"/><line x1="386.547" y1="627.605" x2="385.242" y2="617.69" class="spoke-nipple"/><line x1="242.849" y1="608.686" x2="246.675" y2="599.447" class="spoke-nipple"/><line x1="127.861" y1="520.453" x2="135.795" y2="514.366" class="spoke-nipple"/><line x1="72.395" y1="386.547" x2="82.31" y2="385.242" class="spoke-nipple"/><line x1="91.314" y1="242.849" x2="100.553" y2="246.675" class="spoke-nipple"/><line x1="179.547" y1="127.861" x2="185.634" y2="135.795" class="spoke-nipple"/><line x1="313.453" y1="72.395" x2="314.758" y2="82.31" class="spoke-nipple"/></g><g class="wheel-hub-face-group" data-hub-component="hub-face"><path d="M 357.223 329.219 C 358.542 328.809 359.044 328.652 360.363 328.242 C 361.672 328.537 362.171 328.65 363.48 328.946 C 364.895 330.031 365.434 330.445 366.848 331.53 C 367.472 332.718 367.71 333.171 368.335 334.359 C 368.279 335.739 368.258 336.265 368.203 337.645 C 369.633 341.097 370.178 342.412 371.608 345.865 C 372.623 346.802 373.01 347.159 374.025 348.096 C 374.423 349.377 374.575 349.865 374.974 351.147 C 374.741 352.915 374.652 353.588 374.42 355.356 C 373.703 356.49 373.43 356.923 372.713 358.057 C 371.49 358.7 371.024 358.945 369.801 359.587 C 367.527 362.551 366.66 363.681 364.385 366.645 C 364.081 367.993 363.966 368.506 363.662 369.854 C 362.751 370.84 362.404 371.215 361.493 372.201 C 359.846 372.884 359.219 373.144 357.572 373.826 C 356.231 373.773 355.72 373.752 354.379 373.699 C 353.211 372.961 352.766 372.68 351.598 371.942 C 347.893 371.454 346.482 371.268 342.777 370.781 C 341.458 371.191 340.956 371.348 339.637 371.758 C 338.328 371.463 337.829 371.35 336.52 371.054 C 335.105 369.969 334.566 369.555 333.152 368.47 C 332.528 367.282 332.29 366.829 331.665 365.641 C 331.721 364.261 331.742 363.735 331.797 362.355 C 330.367 358.903 329.822 357.588 328.392 354.135 C 327.377 353.198 326.99 352.841 325.975 351.904 C 325.577 350.623 325.425 350.135 325.026 348.853 C 325.259 347.085 325.348 346.412 325.58 344.644 C 326.297 343.51 326.57 343.077 327.287 341.943 C 328.51 341.3 328.976 341.055 330.199 340.413 C 332.473 337.449 333.34 336.319 335.615 333.355 C 335.919 332.007 336.034 331.494 336.338 330.146 C 337.249 329.16 337.596 328.785 338.507 327.799 C 340.154 327.116 340.781 326.856 342.428 326.174 C 343.769 326.227 344.28 326.248 345.621 326.301 C 346.789 327.039 347.234 327.32 348.402 328.058 C 352.107 328.546 353.518 328.732 357.223 329.219 Z M 350 344 A 6 6 0 0 0 350 356 A 6 6 0 0 0 350 344 Z " class="hub-flange-right" data-hub-component="right-flange"/><path d="M 351.598 328.058 C 352.766 327.32 353.211 327.039 354.379 326.301 C 355.72 326.248 356.231 326.227 357.572 326.174 C 359.219 326.856 359.846 327.116 361.493 327.799 C 362.404 328.785 362.751 329.16 363.662 330.146 C 363.966 331.494 364.081 332.007 364.385 333.355 C 366.66 336.319 367.527 337.449 369.801 340.413 C 371.024 341.055 371.49 341.3 372.713 341.943 C 373.43 343.077 373.703 343.51 374.42 344.644 C 374.652 346.412 374.741 347.085 374.974 348.853 C 374.575 350.135 374.423 350.623 374.025 351.904 C 373.01 352.841 372.623 353.198 371.608 354.135 C 370.178 357.588 369.633 358.903 368.203 362.355 C 368.258 363.735 368.279 364.261 368.335 365.641 C 367.71 366.829 367.472 367.282 366.848 368.47 C 365.434 369.555 364.895 369.969 363.48 371.054 C 362.171 371.35 361.672 371.463 360.363 371.758 C 359.044 371.348 358.542 371.191 357.223 370.781 C 353.518 371.268 352.107 371.454 348.402 371.942 C 347.234 372.68 346.789 372.961 345.621 373.699 C 344.28 373.752 343.769 373.773 342.428 373.826 C 340.781 373.144 340.154 372.884 338.507 372.201 C 337.596 371.215 337.249 370.84 336.338 369.854 C 336.034 368.506 335.919 367.993 335.615 366.645 C 333.34 363.681 332.473 362.551 330.199 359.587 C 328.976 358.945 328.51 358.7 327.287 358.057 C 326.57 356.923 326.297 356.49 325.58 355.356 C 325.348 353.588 325.259 352.915 325.026 351.147 C 325.425 349.865 325.577 349.377 325.975 348.096 C 326.99 347.159 327.377 346.802 328.392 345.865 C 329.822 342.412 330.367 341.097 331.797 337.645 C 331.742 336.265 331.721 335.739 331.665 334.359 C 332.29 333.171 332.528 332.718 333.152 331.53 C 334.566 330.445 335.105 330.031 336.52 328.946 C 337.829 328.65 338.328 328.537 339.637 328.242 C 340.956 328.652 341.458 328.809 342.777 329.219 C 346.482 328.732 347.893 328.546 351.598 328.058 Z M 350 344 A 6 6 0 0 0 350 356 A 6 6 0 0 0 350 344 Z " class="hub-flange-left" data-hub-component="left-flange"/><g data-hub-component="brake-mount"><circle cx="350" cy="350" r="17" class="hub-centerlock-solid-ring" fill="none" stroke="var(--wheel-hub-detail-stroke, #111111)" stroke-width="1"/><circle cx="350" cy="350" r="17.5" class="hub-centerlock-dashed-ring" fill="none" stroke="var(--wheel-hub-detail-stroke, #111111)" stroke-width="1" stroke-dasharray="1 1"/></g><circle cx="350" cy="350" r="9" fill="none" stroke="var(--wheel-hub-detail-stroke, #111111)" stroke-width="6" data-hub-component="axle"/></g><g class="spoke-theme-silver wheel-front-spokes"><line x1="352.741" y1="329.18" x2="386.547" y2="72.395" class="spoke wheel-spoke spoke-left spoke-pulling straight-pull-wheel-spoke" data-wheel-component="spoke" data-spoke-number="1" data-spoke-side="left" data-spoke-type="pulling" data-rim-index="0" data-hub-index="0"/><line x1="362.784" y1="333.34" x2="520.453" y2="127.861" class="spoke wheel-spoke spoke-left spoke-trailing straight-pull-wheel-spoke" data-wheel-component="spoke" data-spoke-number="2" data-spoke-side="left" data-spoke-type="trailing" data-rim-index="2" data-hub-index="1"/><line x1="369.401" y1="341.964" x2="608.686" y2="242.849" class="spoke wheel-spoke spoke-left spoke-pulling straight-pull-wheel-spoke" data-wheel-component="spoke" data-spoke-number="3" data-spoke-side="left" data-spoke-type="pulling" data-rim-index="4" data-hub-index="2"/><line x1="370.82" y1="352.741" x2="627.605" y2="386.547" class="spoke wheel-spoke spoke-left spoke-trailing straight-pull-wheel-spoke" data-wheel-component="spoke" data-spoke-number="4" data-spoke-side="left" data-spoke-type="trailing" data-rim-index="6" data-hub-index="3"/><line x1="366.66" y1="362.784" x2="572.139" y2="520.453" class="spoke wheel-spoke spoke-left spoke-pulling straight-pull-wheel-spoke" data-wheel-component="spoke" data-spoke-number="5" data-spoke-side="left" data-spoke-type="pulling" data-rim-index="8" data-hub-index="4"/><line x1="358.036" y1="369.401" x2="457.151" y2="608.686" class="spoke wheel-spoke spoke-left spoke-trailing straight-pull-wheel-spoke" data-wheel-component="spoke" data-spoke-number="6" data-spoke-side="left" data-spoke-type="trailing" data-rim-index="10" data-hub-index="5"/><line x1="347.259" y1="370.82" x2="313.453" y2="627.605" class="spoke wheel-spoke spoke-left spoke-pulling straight-pull-wheel-spoke" data-wheel-component="spoke" data-spoke-number="7" data-spoke-side="left" data-spoke-type="pulling" data-rim-index="12" data-hub-index="6"/><line x1="337.216" y1="366.66" x2="179.547" y2="572.139" class="spoke wheel-spoke spoke-left spoke-trailing straight-pull-wheel-spoke" data-wheel-component="spoke" data-spoke-number="8" data-spoke-side="left" data-spoke-type="trailing" data-rim-index="14" data-hub-index="7"/><line x1="330.599" y1="358.036" x2="91.314" y2="457.151" class="spoke wheel-spoke spoke-left spoke-pulling straight-pull-wheel-spoke" data-wheel-component="spoke" data-spoke-number="9" data-spoke-side="left" data-spoke-type="pulling" data-rim-index="16" data-hub-index="8"/><line x1="329.18" y1="347.259" x2="72.395" y2="313.453" class="spoke wheel-spoke spoke-left spoke-trailing straight-pull-wheel-spoke" data-wheel-component="spoke" data-spoke-number="10" data-spoke-side="left" data-spoke-type="trailing" data-rim-index="18" data-hub-index="9"/><line x1="333.34" y1="337.216" x2="127.861" y2="179.547" class="spoke wheel-spoke spoke-left spoke-pulling straight-pull-wheel-spoke" data-wheel-component="spoke" data-spoke-number="11" data-spoke-side="left" data-spoke-type="pulling" data-rim-index="20" data-hub-index="10"/><line x1="341.964" y1="330.599" x2="242.849" y2="91.314" class="spoke wheel-spoke spoke-left spoke-trailing straight-pull-wheel-spoke" data-wheel-component="spoke" data-spoke-number="12" data-spoke-side="left" data-spoke-type="trailing" data-rim-index="22" data-hub-index="11"/></g><g class="spoke-theme-silver straight-pull-spoke-heads straight-pull-front-heads"><path d="M 0 -1 L 1.293 -0.707 A 1 1 0 0 1 1.293 0.707 L 0 1 Z" class="straight-pull-spoke-head spoke-left spoke-pulling" transform="translate(352.741 329.18) rotate(97.5)" style="stroke: transparent; stroke-width: 0;" data-wheel-component="straight-pull-spoke-head" data-spoke-side="left" data-spoke-type="pulling" data-rim-index="0" data-hub-index="0"/><path d="M 0 -1 L 1.293 -0.707 A 1 1 0 0 1 1.293 0.707 L 0 1 Z" class="straight-pull-spoke-head spoke-left spoke-trailing" transform="translate(362.784 333.34) rotate(127.5)" style="stroke: transparent; stroke-width: 0;" data-wheel-component="straight-pull-spoke-head" data-spoke-side="left" data-spoke-type="trailing" data-rim-index="2" data-hub-index="1"/><path d="M 0 -1 L 1.293 -0.707 A 1 1 0 0 1 1.293 0.707 L 0 1 Z" class="straight-pull-spoke-head spoke-left spoke-pulling" transform="translate(369.401 341.964) rotate(157.5)" style="stroke: transparent; stroke-width: 0;" data-wheel-component="straight-pull-spoke-head" data-spoke-side="left" data-spoke-type="pulling" data-rim-index="4" data-hub-index="2"/><path d="M 0 -1 L 1.293 -0.707 A 1 1 0 0 1 1.293 0.707 L 0 1 Z" class="straight-pull-spoke-head spoke-left spoke-trailing" transform="translate(370.82 352.741) rotate(-172.5)" style="stroke: transparent; stroke-width: 0;" data-wheel-component="straight-pull-spoke-head" data-spoke-side="left" data-spoke-type="trailing" data-rim-index="6" data-hub-index="3"/><path d="M 0 -1 L 1.293 -0.707 A 1 1 0 0 1 1.293 0.707 L 0 1 Z" class="straight-pull-spoke-head spoke-left spoke-pulling" transform="translate(366.66 362.784) rotate(-142.5)" style="stroke: transparent; stroke-width: 0;" data-wheel-component="straight-pull-spoke-head" data-spoke-side="left" data-spoke-type="pulling" data-rim-index="8" data-hub-index="4"/><path d="M 0 -1 L 1.293 -0.707 A 1 1 0 0 1 1.293 0.707 L 0 1 Z" class="straight-pull-spoke-head spoke-left spoke-trailing" transform="translate(358.036 369.401) rotate(-112.5)" style="stroke: transparent; stroke-width: 0;" data-wheel-component="straight-pull-spoke-head" data-spoke-side="left" data-spoke-type="trailing" data-rim-index="10" data-hub-index="5"/><path d="M 0 -1 L 1.293 -0.707 A 1 1 0 0 1 1.293 0.707 L 0 1 Z" class="straight-pull-spoke-head spoke-left spoke-pulling" transform="translate(347.259 370.82) rotate(-82.5)" style="stroke: transparent; stroke-width: 0;" data-wheel-component="straight-pull-spoke-head" data-spoke-side="left" data-spoke-type="pulling" data-rim-index="12" data-hub-index="6"/><path d="M 0 -1 L 1.293 -0.707 A 1 1 0 0 1 1.293 0.707 L 0 1 Z" class="straight-pull-spoke-head spoke-left spoke-trailing" transform="translate(337.216 366.66) rotate(-52.5)" style="stroke: transparent; stroke-width: 0;" data-wheel-component="straight-pull-spoke-head" data-spoke-side="left" data-spoke-type="trailing" data-rim-index="14" data-hub-index="7"/><path d="M 0 -1 L 1.293 -0.707 A 1 1 0 0 1 1.293 0.707 L 0 1 Z" class="straight-pull-spoke-head spoke-left spoke-pulling" transform="translate(330.599 358.036) rotate(-22.5)" style="stroke: transparent; stroke-width: 0;" data-wheel-component="straight-pull-spoke-head" data-spoke-side="left" data-spoke-type="pulling" data-rim-index="16" data-hub-index="8"/><path d="M 0 -1 L 1.293 -0.707 A 1 1 0 0 1 1.293 0.707 L 0 1 Z" class="straight-pull-spoke-head spoke-left spoke-trailing" transform="translate(329.18 347.259) rotate(7.5)" style="stroke: transparent; stroke-width: 0;" data-wheel-component="straight-pull-spoke-head" data-spoke-side="left" data-spoke-type="trailing" data-rim-index="18" data-hub-index="9"/><path d="M 0 -1 L 1.293 -0.707 A 1 1 0 0 1 1.293 0.707 L 0 1 Z" class="straight-pull-spoke-head spoke-left spoke-pulling" transform="translate(333.34 337.216) rotate(37.5)" style="stroke: transparent; stroke-width: 0;" data-wheel-component="straight-pull-spoke-head" data-spoke-side="left" data-spoke-type="pulling" data-rim-index="20" data-hub-index="10"/><path d="M 0 -1 L 1.293 -0.707 A 1 1 0 0 1 1.293 0.707 L 0 1 Z" class="straight-pull-spoke-head spoke-left spoke-trailing" transform="translate(341.964 330.599) rotate(67.5)" style="stroke: transparent; stroke-width: 0;" data-wheel-component="straight-pull-spoke-head" data-spoke-side="left" data-spoke-type="trailing" data-rim-index="22" data-hub-index="11"/></g><g class="nipple-theme-black wheel-front-nipples"><line x1="386.547" y1="72.395" x2="385.242" y2="82.31" class="spoke-nipple"/><line x1="520.453" y1="127.861" x2="514.366" y2="135.795" class="spoke-nipple"/><line x1="608.686" y1="242.849" x2="599.447" y2="246.675" class="spoke-nipple"/><line x1="627.605" y1="386.547" x2="617.69" y2="385.242" class="spoke-nipple"/><line x1="572.139" y1="520.453" x2="564.205" y2="514.366" class="spoke-nipple"/><line x1="457.151" y1="608.686" x2="453.325" y2="599.447" class="spoke-nipple"/><line x1="313.453" y1="627.605" x2="314.758" y2="617.69" class="spoke-nipple"/><line x1="179.547" y1="572.139" x2="185.634" y2="564.205" class="spoke-nipple"/><line x1="91.314" y1="457.151" x2="100.553" y2="453.325" class="spoke-nipple"/><line x1="72.395" y1="313.453" x2="82.31" y2="314.758" class="spoke-nipple"/><line x1="127.861" y1="179.547" x2="135.795" y2="185.634" class="spoke-nipple"/><line x1="242.849" y1="91.314" x2="246.675" y2="100.553" class="spoke-nipple"/></g><g id="rimGroup"><circle cx="350" cy="350" r="289" fill="transparent" stroke="var(--wheel-rim-face-fill, #e9ecef)" stroke-width="18"/><circle cx="350" cy="350" r="298" class="rim-outline"/><circle cx="350" cy="350" r="280" class="rim-outline"/><circle cx="350" cy="350" r="281" class="rim-highlight"/></g><g class="wheel-back-nipple-dots"></g><g class="wheel-front-nipple-dots"></g><g class="rim-holes-group"><circle cx="386.547" cy="72.395" r="2.2" class="rim-hole"/><circle cx="457.151" cy="91.314" r="2.2" class="rim-hole"/><circle cx="520.453" cy="127.861" r="2.2" class="rim-hole"/><circle cx="572.139" cy="179.547" r="2.2" class="rim-hole"/><circle cx="608.686" cy="242.849" r="2.2" class="rim-hole"/><circle cx="627.605" cy="313.453" r="2.2" class="rim-hole"/><circle cx="627.605" cy="386.547" r="2.2" class="rim-hole"/><circle cx="608.686" cy="457.151" r="2.2" class="rim-hole"/><circle cx="572.139" cy="520.453" r="2.2" class="rim-hole"/><circle cx="520.453" cy="572.139" r="2.2" class="rim-hole"/><circle cx="457.151" cy="608.686" r="2.2" class="rim-hole"/><circle cx="386.547" cy="627.605" r="2.2" class="rim-hole"/><circle cx="313.453" cy="627.605" r="2.2" class="rim-hole"/><circle cx="242.849" cy="608.686" r="2.2" class="rim-hole"/><circle cx="179.547" cy="572.139" r="2.2" class="rim-hole"/><circle cx="127.861" cy="520.453" r="2.2" class="rim-hole"/><circle cx="91.314" cy="457.151" r="2.2" class="rim-hole"/><circle cx="72.395" cy="386.547" r="2.2" class="rim-hole"/><circle cx="72.395" cy="313.453" r="2.2" class="rim-hole"/><circle cx="91.314" cy="242.849" r="2.2" class="rim-hole"/><circle cx="127.861" cy="179.547" r="2.2" class="rim-hole"/><circle cx="179.547" cy="127.861" r="2.2" class="rim-hole"/><circle cx="242.849" cy="91.314" r="2.2" class="rim-hole"/><circle cx="313.453" cy="72.395" r="2.2" class="rim-hole"/></g><g class="wheel-valve-group" transform="translate(350 70) rotate(0)"><rect x="-4" y="0" width="8" height="30" class="wheel-valve-part wheel-valve-stem" rx="1"/><rect x="-5" y="0" width="10" height="3" class="wheel-valve-part wheel-valve-base" rx="0.5"/><rect x="-4.5" y="22" width="9" height="8" class="wheel-valve-part wheel-valve-cap" rx="1"/></g></svg>
