<svg xmlns="http://www.w3.org/2000/svg" width="650" height="650" viewBox="0 0 650 650"><style>
    .wheel-bg{fill:#f7fbff}
    .wheel-guide{stroke:#bfdbfe;stroke-width:1}
    .wheel-rim{fill:#dbeafe;stroke:#1e40af;stroke-width:2}
    .wheel-rim-inner{fill:#f7fbff;stroke:#1e40af;stroke-width:1}
    .wheel-spoke{fill:none;stroke-linecap:round;stroke-width:2.2}
    .wheel-spoke.left{stroke:#2563eb}
    .wheel-spoke.right{stroke:#0f766e}
    .wheel-spoke.muted{stroke:#93c5fd;opacity:.42}
    .wheel-spoke.trailing{stroke-dasharray:7 5}
    .wheel-hub{fill:#bfdbfe;stroke:#1d4ed8;stroke-width:2}
    .wheel-hole{fill:#ffffff;stroke:#dc2626;stroke-width:2}
    .wheel-marker{fill:#dc2626;stroke:#ffffff;stroke-width:3}
    .wheel-label{fill:#1e3a8a;font:600 16px system-ui,sans-serif}
    .wheel-dim{stroke:#0891b2;stroke-width:3;fill:none;stroke-linecap:round}
    .wheel-dim-text{fill:#1e3a8a;font:600 14px system-ui,sans-serif}
    .wheel-shell{fill:#bfdbfe;stroke:#1d4ed8;stroke-width:2}
    .wheel-cassette-slot svg{overflow:visible}
  </style><rect class="wheel-bg" x="0" y="0" width="650" height="650"/><g class="wheel-rim-group"><circle cx="325" cy="325" r="290" class="wheel-rim"/><circle cx="325" cy="325" r="218.8" class="wheel-rim-inner"/></g><g class="wheel-spokes-group"><line x1="327.467" y1="306.262" x2="360.242" y2="57.31" class="wheel-spoke left pulling" data-side="left" data-rim-index="0" data-hub-index="0"/><line x1="336.506" y1="310.006" x2="489.366" y2="110.795" class="wheel-spoke left trailing" data-side="left" data-rim-index="2" data-hub-index="1"/><line x1="342.461" y1="317.767" x2="574.447" y2="221.675" class="wheel-spoke left pulling" data-side="left" data-rim-index="4" data-hub-index="2"/><line x1="343.738" y1="327.467" x2="592.69" y2="360.242" class="wheel-spoke left trailing" data-side="left" data-rim-index="6" data-hub-index="3"/><line x1="339.994" y1="336.506" x2="539.205" y2="489.366" class="wheel-spoke left pulling" data-side="left" data-rim-index="8" data-hub-index="4"/><line x1="332.233" y1="342.461" x2="428.325" y2="574.447" class="wheel-spoke left trailing" data-side="left" data-rim-index="10" data-hub-index="5"/><line x1="322.533" y1="343.738" x2="289.758" y2="592.69" class="wheel-spoke left pulling" data-side="left" data-rim-index="12" data-hub-index="6"/><line x1="313.494" y1="339.994" x2="160.634" y2="539.205" class="wheel-spoke left trailing" data-side="left" data-rim-index="14" data-hub-index="7"/><line x1="307.539" y1="332.233" x2="75.553" y2="428.325" class="wheel-spoke left pulling" data-side="left" data-rim-index="16" data-hub-index="8"/><line x1="306.262" y1="322.533" x2="57.31" y2="289.758" class="wheel-spoke left trailing" data-side="left" data-rim-index="18" data-hub-index="9"/><line x1="310.006" y1="313.494" x2="110.795" y2="160.634" class="wheel-spoke left pulling" data-side="left" data-rim-index="20" data-hub-index="10"/><line x1="317.767" y1="307.539" x2="221.675" y2="75.553" class="wheel-spoke left trailing" data-side="left" data-rim-index="22" data-hub-index="11"/><line x1="332.233" y1="307.539" x2="428.325" y2="75.553" class="wheel-spoke right pulling" data-side="right" data-rim-index="1" data-hub-index="0"/><line x1="339.994" y1="313.494" x2="539.205" y2="160.634" class="wheel-spoke right trailing" data-side="right" data-rim-index="3" data-hub-index="1"/><line x1="343.738" y1="322.533" x2="592.69" y2="289.758" class="wheel-spoke right pulling" data-side="right" data-rim-index="5" data-hub-index="2"/><line x1="342.461" y1="332.233" x2="574.447" y2="428.325" class="wheel-spoke right trailing" data-side="right" data-rim-index="7" data-hub-index="3"/><line x1="336.506" y1="339.994" x2="489.366" y2="539.205" class="wheel-spoke right pulling" data-side="right" data-rim-index="9" data-hub-index="4"/><line x1="327.467" y1="343.738" x2="360.242" y2="592.69" class="wheel-spoke right trailing" data-side="right" data-rim-index="11" data-hub-index="5"/><line x1="317.767" y1="342.461" x2="221.675" y2="574.447" class="wheel-spoke right pulling" data-side="right" data-rim-index="13" data-hub-index="6"/><line x1="310.006" y1="336.506" x2="110.795" y2="489.366" class="wheel-spoke right trailing" data-side="right" data-rim-index="15" data-hub-index="7"/><line x1="306.262" y1="327.467" x2="57.31" y2="360.242" class="wheel-spoke right pulling" data-side="right" data-rim-index="17" data-hub-index="8"/><line x1="307.539" y1="317.767" x2="75.553" y2="221.675" class="wheel-spoke right trailing" data-side="right" data-rim-index="19" data-hub-index="9"/><line x1="313.494" y1="310.006" x2="160.634" y2="110.795" class="wheel-spoke right pulling" data-side="right" data-rim-index="21" data-hub-index="10"/><line x1="322.533" y1="306.262" x2="289.758" y2="57.31" class="wheel-spoke right trailing" data-side="right" data-rim-index="23" data-hub-index="11"/></g><g class="wheel-hub-face-group"><circle cx="325" cy="325" r="18.9" class="wheel-hub left"/><circle cx="325" cy="325" r="18.9" class="wheel-hub right" opacity="0.72"/><circle cx="325" cy="325" r="21" class="wheel-hub shell"/></g><g class="wheel-rim-holes-group"><circle cx="360.242" cy="57.31" r="2.8" class="wheel-hole"/><circle cx="428.325" cy="75.553" r="2.8" class="wheel-hole"/><circle cx="489.366" cy="110.795" r="2.8" class="wheel-hole"/><circle cx="539.205" cy="160.634" r="2.8" class="wheel-hole"/><circle cx="574.447" cy="221.675" r="2.8" class="wheel-hole"/><circle cx="592.69" cy="289.758" r="2.8" class="wheel-hole"/><circle cx="592.69" cy="360.242" r="2.8" class="wheel-hole"/><circle cx="574.447" cy="428.325" r="2.8" class="wheel-hole"/><circle cx="539.205" cy="489.366" r="2.8" class="wheel-hole"/><circle cx="489.366" cy="539.205" r="2.8" class="wheel-hole"/><circle cx="428.325" cy="574.447" r="2.8" class="wheel-hole"/><circle cx="360.242" cy="592.69" r="2.8" class="wheel-hole"/><circle cx="289.758" cy="592.69" r="2.8" class="wheel-hole"/><circle cx="221.675" cy="574.447" r="2.8" class="wheel-hole"/><circle cx="160.634" cy="539.205" r="2.8" class="wheel-hole"/><circle cx="110.795" cy="489.366" r="2.8" class="wheel-hole"/><circle cx="75.553" cy="428.325" r="2.8" class="wheel-hole"/><circle cx="57.31" cy="360.242" r="2.8" class="wheel-hole"/><circle cx="57.31" cy="289.758" r="2.8" class="wheel-hole"/><circle cx="75.553" cy="221.675" r="2.8" class="wheel-hole"/><circle cx="110.795" cy="160.634" r="2.8" class="wheel-hole"/><circle cx="160.634" cy="110.795" r="2.8" class="wheel-hole"/><circle cx="221.675" cy="75.553" r="2.8" class="wheel-hole"/><circle cx="289.758" cy="57.31" r="2.8" class="wheel-hole"/></g><g class="wheel-hub-holes-group"><circle cx="327.467" cy="306.262" r="3.2" class="wheel-hole hub-hole"/><circle cx="336.506" cy="310.006" r="3.2" class="wheel-hole hub-hole"/><circle cx="342.461" cy="317.767" r="3.2" class="wheel-hole hub-hole"/><circle cx="343.738" cy="327.467" r="3.2" class="wheel-hole hub-hole"/><circle cx="339.994" cy="336.506" r="3.2" class="wheel-hole hub-hole"/><circle cx="332.233" cy="342.461" r="3.2" class="wheel-hole hub-hole"/><circle cx="322.533" cy="343.738" r="3.2" class="wheel-hole hub-hole"/><circle cx="313.494" cy="339.994" r="3.2" class="wheel-hole hub-hole"/><circle cx="307.539" cy="332.233" r="3.2" class="wheel-hole hub-hole"/><circle cx="306.262" cy="322.533" r="3.2" class="wheel-hole hub-hole"/><circle cx="310.006" cy="313.494" r="3.2" class="wheel-hole hub-hole"/><circle cx="317.767" cy="307.539" r="3.2" class="wheel-hole hub-hole"/><circle cx="332.233" cy="307.539" r="3.2" class="wheel-hole hub-hole"/><circle cx="339.994" cy="313.494" r="3.2" class="wheel-hole hub-hole"/><circle cx="343.738" cy="322.533" r="3.2" class="wheel-hole hub-hole"/><circle cx="342.461" cy="332.233" r="3.2" class="wheel-hole hub-hole"/><circle cx="336.506" cy="339.994" r="3.2" class="wheel-hole hub-hole"/><circle cx="327.467" cy="343.738" r="3.2" class="wheel-hole hub-hole"/><circle cx="317.767" cy="342.461" r="3.2" class="wheel-hole hub-hole"/><circle cx="310.006" cy="336.506" r="3.2" class="wheel-hole hub-hole"/><circle cx="306.262" cy="327.467" r="3.2" class="wheel-hole hub-hole"/><circle cx="307.539" cy="317.767" r="3.2" class="wheel-hole hub-hole"/><circle cx="313.494" cy="310.006" r="3.2" class="wheel-hole hub-hole"/><circle cx="322.533" cy="306.262" r="3.2" class="wheel-hole hub-hole"/></g><g class="wheel-valve-group"><line x1="325" y1="325" x2="360.242" y2="57.31" class="wheel-dim valve-line"/><circle cx="360.242" cy="57.31" r="7" class="wheel-marker"/><text x="360.242" y="40.31" class="wheel-label" text-anchor="middle">Valve</text></g></svg>
