<svg xmlns="http://www.w3.org/2000/svg" width="700" height="700" viewBox="0 0 700 700" preserveAspectRatio="xMidYMid meet" class="wheel-svg"><style>
    :root{--rim-color:#343a40;--spoke-left-pulling:#0d6efd;--spoke-left-trailing:#0dcaf0;--spoke-right-pulling:#fd7e14;--spoke-right-trailing:#ffc107}
    .wheel-svg,.hub-svg{background:#fff}
    .rim-body{fill:#343a40;stroke:#212529;stroke-width:1;fill-rule:evenodd}
    .rim-outline{fill:none;stroke:#111;stroke-width:1.5}
    .rim-highlight{fill:none;stroke:rgba(255,255,255,.15);stroke-width:1}
    .hub-flange-right{fill:#212529;stroke:#111;stroke-width:1;fill-rule:evenodd}
    .hub-flange-left{fill:#343a40;stroke:#1a1e21;stroke-width:1;fill-rule:evenodd}
    .hub-brake-mount{fill:#212529;stroke:#111;stroke-width:1;fill-rule:evenodd}
    .hub-cylinder{fill:#343a40;stroke:#1a1e21;stroke-width:1;fill-rule:evenodd}
    .hub-cylinder-dark{fill:#212529;stroke:#111;stroke-width:1;fill-rule:evenodd}
    .hub-cylinder-freehub{fill:#6c757d;stroke:#343a40;stroke-width:1;fill-rule:evenodd}
    .rim-hole{fill:#111;stroke:#343a40;stroke-width:.5}
    .valve-hole-marker{fill:#dc3545}
    .valve-hole-line{stroke:#dc3545;stroke-width:2.5;stroke-linecap:round}
    .valve-label{font-family:sans-serif;font-size:14px;fill:#495057;font-weight:bold}
    .spoke-nipple{stroke-width:5;stroke-linecap:butt}
    .nipple-theme-silver .spoke-nipple{stroke:#adb5bd}
    .nipple-theme-black .spoke-nipple{stroke:#212529}
    .spoke{stroke-width:1.5;stroke-linecap:round}
    .spoke-theme-color .spoke-left.spoke-pulling{stroke:#0d6efd}
    .spoke-theme-color .spoke-left.spoke-trailing{stroke:#0dcaf0}
    .spoke-theme-color .spoke-right.spoke-pulling{stroke:#fd7e14;stroke-dasharray:4 4}
    .spoke-theme-color .spoke-right.spoke-trailing{stroke:#ffc107;stroke-dasharray:4 4}
    .spoke-theme-black .spoke{stroke:#212529}
    .spoke-theme-silver .spoke{stroke:#ced4da}
  </style><g id="rimGroup"><circle cx="350" cy="350" r="289" fill="transparent" stroke="#343a40" stroke-width="18"/><circle cx="350" cy="350" r="298" class="rim-outline"/><circle cx="350" cy="350" r="280" class="rim-outline"/><circle cx="350" cy="350" r="281" class="rim-highlight"/></g><g class="spoke-theme-silver wheel-back-spokes"><line x1="358.036" y1="330.599" x2="457.151" y2="91.314" class="spoke spoke-right spoke-pulling" data-rim-index="1" data-hub-index="0"/><line x1="366.66" y1="337.216" x2="572.139" y2="179.547" class="spoke spoke-right spoke-trailing" data-rim-index="3" data-hub-index="1"/><line x1="370.82" y1="347.259" x2="627.605" y2="313.453" class="spoke spoke-right spoke-pulling" data-rim-index="5" data-hub-index="2"/><line x1="369.401" y1="358.036" x2="608.686" y2="457.151" class="spoke spoke-right spoke-trailing" data-rim-index="7" data-hub-index="3"/><line x1="362.784" y1="366.66" x2="520.453" y2="572.139" class="spoke spoke-right spoke-pulling" data-rim-index="9" data-hub-index="4"/><line x1="352.741" y1="370.82" x2="386.547" y2="627.605" class="spoke spoke-right spoke-trailing" data-rim-index="11" data-hub-index="5"/><line x1="341.964" y1="369.401" x2="242.849" y2="608.686" class="spoke spoke-right spoke-pulling" data-rim-index="13" data-hub-index="6"/><line x1="333.34" y1="362.784" x2="127.861" y2="520.453" class="spoke spoke-right spoke-trailing" data-rim-index="15" data-hub-index="7"/><line x1="329.18" y1="352.741" x2="72.395" y2="386.547" class="spoke spoke-right spoke-pulling" data-rim-index="17" data-hub-index="8"/><line x1="330.599" y1="341.964" x2="91.314" y2="242.849" class="spoke spoke-right spoke-trailing" data-rim-index="19" data-hub-index="9"/><line x1="337.216" y1="333.34" x2="179.547" y2="127.861" class="spoke spoke-right spoke-pulling" data-rim-index="21" data-hub-index="10"/><line x1="347.259" y1="329.18" x2="313.453" y2="72.395" class="spoke spoke-right spoke-trailing" data-rim-index="23" data-hub-index="11"/></g><g class="nipple-theme-black wheel-back-nipples"><line x1="457.151" y1="91.314" x2="453.325" y2="100.553" class="spoke-nipple"/><line x1="572.139" y1="179.547" x2="564.205" y2="185.634" class="spoke-nipple"/><line x1="627.605" y1="313.453" x2="617.69" y2="314.758" class="spoke-nipple"/><line x1="608.686" y1="457.151" x2="599.447" y2="453.325" class="spoke-nipple"/><line x1="520.453" y1="572.139" x2="514.366" y2="564.205" class="spoke-nipple"/><line x1="386.547" y1="627.605" x2="385.242" y2="617.69" class="spoke-nipple"/><line x1="242.849" y1="608.686" x2="246.675" y2="599.447" class="spoke-nipple"/><line x1="127.861" y1="520.453" x2="135.795" y2="514.366" class="spoke-nipple"/><line x1="72.395" y1="386.547" x2="82.31" y2="385.242" class="spoke-nipple"/><line x1="91.314" y1="242.849" x2="100.553" y2="246.675" class="spoke-nipple"/><line x1="179.547" y1="127.861" x2="185.634" y2="135.795" class="spoke-nipple"/><line x1="313.453" y1="72.395" x2="314.758" y2="82.31" class="spoke-nipple"/></g><g class="wheel-hub-face-group"><path d="M 352.73126450822576 336.26900607435476 L 357.7436872831994 324.1342831674818 A 27 27 0 0 1 372.980150155799 335.82563233096687 L 362.55621838145765 343.807958336934 Q 359.23879532511285 346.17316567634913 363.2570218129315 345.49984748575577 L 376.27221150565526 343.7733714899541 A 27 27 0 0 1 373.765437561863 362.8142099831863 L 361.64057457223566 357.7779832622744 Q 357.93353340291236 356.08761429008723 360.5257573047057 359.23084141140095 L 368.5285242224558 369.63908832247233 A 27 27 0 0 1 350.78528740606407 376.9885776522194 L 349.084356190778 363.97002492534045 Q 348.6947380777995 359.9144486137381 347.2687354917742 363.73099392564524 L 342.25631271680055 375.8657168325182 A 27 27 0 0 1 327.019849844201 364.17436766903313 L 337.44378161854235 356.192041663066 Q 340.76120467488715 353.8268343236509 336.7429781870685 354.5001525142443 L 323.72778849434474 356.22662851004594 A 27 27 0 0 1 326.234562438137 337.1857900168137 L 338.35942542776434 342.2220167377256 Q 342.06646659708764 343.91238570991277 339.4742426952943 340.76915858859905 L 331.4714757775442 330.36091167752767 A 27 27 0 0 1 349.21471259393593 323.0114223477806 L 350.915643809222 336.02997507465955 Q 351.3052619222005 340.0855513862619 352.73126450822576 336.26900607435476 Z M 350 344 A 6 6 0 0 0 350 356 A 6 6 0 0 0 350 344 Z " class="hub-flange-right"/><path d="M 349.084356190778 336.02997507465955 L 350.78528740606396 323.0114223477806 A 27 27 0 0 1 368.5285242224558 330.36091167752767 L 360.5257573047057 340.76915858859905 Q 357.93353340291236 343.91238570991277 361.64057457223566 342.2220167377256 L 373.765437561863 337.1857900168137 A 27 27 0 0 1 376.27221150565526 356.2266285100459 L 363.2570218129315 354.50015251424423 Q 359.23879532511285 353.82683432365087 362.55621838145765 356.192041663066 L 372.980150155799 364.17436766903313 A 27 27 0 0 1 357.74368728319945 375.8657168325182 L 352.7312645082258 363.73099392564524 Q 351.30526192220054 359.9144486137381 350.915643809222 363.97002492534045 L 349.214712593936 376.9885776522194 A 27 27 0 0 1 331.4714757775442 369.63908832247233 L 339.4742426952943 359.230841411401 Q 342.06646659708764 356.08761429008723 338.35942542776434 357.7779832622744 L 326.234562438137 362.8142099831863 A 27 27 0 0 1 323.72778849434474 343.7733714899542 L 336.7429781870685 345.49984748575577 Q 340.76120467488715 346.17316567634913 337.44378161854235 343.807958336934 L 327.019849844201 335.82563233096687 A 27 27 0 0 1 342.2563127168005 324.13428316748184 L 347.2687354917742 336.26900607435476 Q 348.69473807779946 340.0855513862619 349.084356190778 336.02997507465955 Z M 350 344 A 6 6 0 0 0 350 356 A 6 6 0 0 0 350 344 Z " class="hub-flange-left"/><path d="M 350 329 A 21 21 0 0 1 350 371 A 21 21 0 0 1 350 329 Z M 350 344 A 6 6 0 0 0 350 356 A 6 6 0 0 0 350 344 Z " class="hub-brake-mount"/><circle cx="350" cy="350" r="18" fill="none" stroke="#6c757d" stroke-width="4" stroke-dasharray="2 2"/><circle cx="350" cy="350" r="16" fill="none" stroke="#212529" stroke-width="1"/><circle cx="350" cy="350" r="9" fill="none" stroke="#212529" stroke-width="6"/></g><g class="spoke-theme-silver wheel-front-spokes"><line x1="352.741" y1="329.18" x2="386.547" y2="72.395" class="spoke spoke-left spoke-pulling" data-rim-index="0" data-hub-index="0"/><line x1="362.784" y1="333.34" x2="520.453" y2="127.861" class="spoke spoke-left spoke-trailing" data-rim-index="2" data-hub-index="1"/><line x1="369.401" y1="341.964" x2="608.686" y2="242.849" class="spoke spoke-left spoke-pulling" data-rim-index="4" data-hub-index="2"/><line x1="370.82" y1="352.741" x2="627.605" y2="386.547" class="spoke spoke-left spoke-trailing" data-rim-index="6" data-hub-index="3"/><line x1="366.66" y1="362.784" x2="572.139" y2="520.453" class="spoke spoke-left spoke-pulling" data-rim-index="8" data-hub-index="4"/><line x1="358.036" y1="369.401" x2="457.151" y2="608.686" class="spoke spoke-left spoke-trailing" data-rim-index="10" data-hub-index="5"/><line x1="347.259" y1="370.82" x2="313.453" y2="627.605" class="spoke spoke-left spoke-pulling" data-rim-index="12" data-hub-index="6"/><line x1="337.216" y1="366.66" x2="179.547" y2="572.139" class="spoke spoke-left spoke-trailing" data-rim-index="14" data-hub-index="7"/><line x1="330.599" y1="358.036" x2="91.314" y2="457.151" class="spoke spoke-left spoke-pulling" data-rim-index="16" data-hub-index="8"/><line x1="329.18" y1="347.259" x2="72.395" y2="313.453" class="spoke spoke-left spoke-trailing" data-rim-index="18" data-hub-index="9"/><line x1="333.34" y1="337.216" x2="127.861" y2="179.547" class="spoke spoke-left spoke-pulling" data-rim-index="20" data-hub-index="10"/><line x1="341.964" y1="330.599" x2="242.849" y2="91.314" class="spoke spoke-left spoke-trailing" data-rim-index="22" data-hub-index="11"/></g><g class="nipple-theme-black wheel-front-nipples"><line x1="386.547" y1="72.395" x2="385.242" y2="82.31" class="spoke-nipple"/><line x1="520.453" y1="127.861" x2="514.366" y2="135.795" class="spoke-nipple"/><line x1="608.686" y1="242.849" x2="599.447" y2="246.675" class="spoke-nipple"/><line x1="627.605" y1="386.547" x2="617.69" y2="385.242" class="spoke-nipple"/><line x1="572.139" y1="520.453" x2="564.205" y2="514.366" class="spoke-nipple"/><line x1="457.151" y1="608.686" x2="453.325" y2="599.447" class="spoke-nipple"/><line x1="313.453" y1="627.605" x2="314.758" y2="617.69" class="spoke-nipple"/><line x1="179.547" y1="572.139" x2="185.634" y2="564.205" class="spoke-nipple"/><line x1="91.314" y1="457.151" x2="100.553" y2="453.325" class="spoke-nipple"/><line x1="72.395" y1="313.453" x2="82.31" y2="314.758" class="spoke-nipple"/><line x1="127.861" y1="179.547" x2="135.795" y2="185.634" class="spoke-nipple"/><line x1="242.849" y1="91.314" x2="246.675" y2="100.553" class="spoke-nipple"/></g><g class="rim-holes-group"><circle cx="386.547" cy="72.395" r="2.2" class="rim-hole"/><circle cx="457.151" cy="91.314" r="2.2" class="rim-hole"/><circle cx="520.453" cy="127.861" r="2.2" class="rim-hole"/><circle cx="572.139" cy="179.547" r="2.2" class="rim-hole"/><circle cx="608.686" cy="242.849" r="2.2" class="rim-hole"/><circle cx="627.605" cy="313.453" r="2.2" class="rim-hole"/><circle cx="627.605" cy="386.547" r="2.2" class="rim-hole"/><circle cx="608.686" cy="457.151" r="2.2" class="rim-hole"/><circle cx="572.139" cy="520.453" r="2.2" class="rim-hole"/><circle cx="520.453" cy="572.139" r="2.2" class="rim-hole"/><circle cx="457.151" cy="608.686" r="2.2" class="rim-hole"/><circle cx="386.547" cy="627.605" r="2.2" class="rim-hole"/><circle cx="313.453" cy="627.605" r="2.2" class="rim-hole"/><circle cx="242.849" cy="608.686" r="2.2" class="rim-hole"/><circle cx="179.547" cy="572.139" r="2.2" class="rim-hole"/><circle cx="127.861" cy="520.453" r="2.2" class="rim-hole"/><circle cx="91.314" cy="457.151" r="2.2" class="rim-hole"/><circle cx="72.395" cy="386.547" r="2.2" class="rim-hole"/><circle cx="72.395" cy="313.453" r="2.2" class="rim-hole"/><circle cx="91.314" cy="242.849" r="2.2" class="rim-hole"/><circle cx="127.861" cy="179.547" r="2.2" class="rim-hole"/><circle cx="179.547" cy="127.861" r="2.2" class="rim-hole"/><circle cx="242.849" cy="91.314" r="2.2" class="rim-hole"/><circle cx="313.453" cy="72.395" r="2.2" class="rim-hole"/></g><g class="wheel-valve-group" transform="translate(350 70) rotate(0)"><rect x="-4" y="0" width="8" height="30" fill="#343a40" rx="1"/><rect x="-5" y="0" width="10" height="3" fill="#6c757d" rx="0.5"/><rect x="-4.5" y="22" width="9" height="8" fill="#212529" rx="1"/></g></svg>
