<svg xmlns="http://www.w3.org/2000/svg" width="700" height="700" viewBox="0 0 700 700" preserveAspectRatio="xMidYMid meet" class="wheel-svg"><style>
    :root{--rim-color:#343a40;--spoke-left-pulling:#0d6efd;--spoke-left-trailing:#0dcaf0;--spoke-right-pulling:#fd7e14;--spoke-right-trailing:#ffc107}
    .wheel-svg,.hub-svg{background:#fff}
    .rim-body{fill:#343a40;stroke:#212529;stroke-width:1;fill-rule:evenodd}
    .rim-outline{fill:none;stroke:#111;stroke-width:1.5}
    .rim-highlight{fill:none;stroke:rgba(255,255,255,.15);stroke-width:1}
    .hub-flange-right{fill:#212529;stroke:#111;stroke-width:1;fill-rule:evenodd}
    .hub-flange-left{fill:#343a40;stroke:#1a1e21;stroke-width:1;fill-rule:evenodd}
    .hub-brake-mount{fill:#212529;stroke:#111;stroke-width:1;fill-rule:evenodd}
    .hub-cylinder{fill:#343a40;stroke:#1a1e21;stroke-width:1;fill-rule:evenodd}
    .hub-cylinder-dark{fill:#212529;stroke:#111;stroke-width:1;fill-rule:evenodd}
    .hub-cylinder-freehub{fill:#6c757d;stroke:#343a40;stroke-width:1;fill-rule:evenodd}
    .rim-hole{fill:#111;stroke:#343a40;stroke-width:.5}
    .valve-hole-marker{fill:#dc3545}
    .valve-hole-line{stroke:#dc3545;stroke-width:2.5;stroke-linecap:round}
    .valve-label{font-family:sans-serif;font-size:14px;fill:#495057;font-weight:bold}
    .spoke-nipple{stroke-width:5;stroke-linecap:butt}
    .nipple-theme-silver .spoke-nipple{stroke:#adb5bd}
    .nipple-theme-black .spoke-nipple{stroke:#212529}
    .spoke{stroke-width:1.5;stroke-linecap:round}
    .spoke-theme-color .spoke-left.spoke-pulling{stroke:#0d6efd}
    .spoke-theme-color .spoke-left.spoke-trailing{stroke:#0dcaf0}
    .spoke-theme-color .spoke-right.spoke-pulling{stroke:#fd7e14;stroke-dasharray:4 4}
    .spoke-theme-color .spoke-right.spoke-trailing{stroke:#ffc107;stroke-dasharray:4 4}
    .spoke-theme-black .spoke{stroke:#212529}
    .spoke-theme-silver .spoke{stroke:#ced4da}
  </style><g id="rimGroup"><circle cx="350" cy="350" r="308.75" fill="transparent" stroke="#343a40" stroke-width="16.5"/><circle cx="350" cy="350" r="317" class="rim-outline"/><circle cx="350" cy="350" r="300.5" class="rim-outline"/><circle cx="350" cy="350" r="301.5" class="rim-highlight"/></g><g class="spoke-theme-color wheel-back-spokes"><line x1="352.842" y1="321.14" x2="637.561" y2="262.769" class="spoke spoke-left spoke-pulling" data-rim-index="6" data-hub-index="0"/><line x1="363.671" y1="324.424" x2="159.365" y2="117.71" class="spoke spoke-left spoke-trailing" data-rim-index="28" data-hub-index="1"/><line x1="372.417" y1="331.603" x2="615.017" y2="491.655" class="spoke spoke-left spoke-pulling" data-rim-index="10" data-hub-index="2"/><line x1="377.751" y1="341.582" x2="379.454" y2="50.947" class="spoke spoke-left spoke-trailing" data-rim-index="0" data-hub-index="3"/><line x1="378.86" y1="352.842" x2="437.231" y2="637.561" class="spoke spoke-left spoke-pulling" data-rim-index="14" data-hub-index="4"/><line x1="375.576" y1="363.671" x2="582.29" y2="159.365" class="spoke spoke-left spoke-trailing" data-rim-index="4" data-hub-index="5"/><line x1="368.397" y1="372.417" x2="208.345" y2="615.017" class="spoke spoke-left spoke-pulling" data-rim-index="18" data-hub-index="6"/><line x1="358.418" y1="377.751" x2="649.053" y2="379.454" class="spoke spoke-left spoke-trailing" data-rim-index="8" data-hub-index="7"/><line x1="347.158" y1="378.86" x2="62.439" y2="437.231" class="spoke spoke-left spoke-pulling" data-rim-index="22" data-hub-index="8"/><line x1="336.329" y1="375.576" x2="540.635" y2="582.29" class="spoke spoke-left spoke-trailing" data-rim-index="12" data-hub-index="9"/><line x1="327.583" y1="368.397" x2="84.983" y2="208.345" class="spoke spoke-left spoke-pulling" data-rim-index="26" data-hub-index="10"/><line x1="322.249" y1="358.418" x2="320.546" y2="649.053" class="spoke spoke-left spoke-trailing" data-rim-index="16" data-hub-index="11"/><line x1="321.14" y1="347.158" x2="262.769" y2="62.439" class="spoke spoke-left spoke-pulling" data-rim-index="30" data-hub-index="12"/><line x1="324.424" y1="336.329" x2="117.71" y2="540.635" class="spoke spoke-left spoke-trailing" data-rim-index="20" data-hub-index="13"/><line x1="331.603" y1="327.583" x2="491.655" y2="84.983" class="spoke spoke-left spoke-pulling" data-rim-index="2" data-hub-index="14"/><line x1="341.582" y1="322.249" x2="50.947" y2="320.546" class="spoke spoke-left spoke-trailing" data-rim-index="24" data-hub-index="15"/></g><g class="nipple-theme-silver wheel-back-nipples"><line x1="637.561" y1="262.769" x2="627.764" y2="264.778" class="spoke-nipple"/><line x1="159.365" y1="117.71" x2="166.394" y2="124.823" class="spoke-nipple"/><line x1="615.017" y1="491.655" x2="606.67" y2="486.148" class="spoke-nipple"/><line x1="379.454" y1="50.947" x2="379.396" y2="60.947" class="spoke-nipple"/><line x1="437.231" y1="637.561" x2="435.222" y2="627.764" class="spoke-nipple"/><line x1="582.29" y1="159.365" x2="575.177" y2="166.394" class="spoke-nipple"/><line x1="208.345" y1="615.017" x2="213.852" y2="606.67" class="spoke-nipple"/><line x1="649.053" y1="379.454" x2="639.053" y2="379.396" class="spoke-nipple"/><line x1="62.439" y1="437.231" x2="72.236" y2="435.222" class="spoke-nipple"/><line x1="540.635" y1="582.29" x2="533.606" y2="575.177" class="spoke-nipple"/><line x1="84.983" y1="208.345" x2="93.33" y2="213.852" class="spoke-nipple"/><line x1="320.546" y1="649.053" x2="320.604" y2="639.053" class="spoke-nipple"/><line x1="262.769" y1="62.439" x2="264.778" y2="72.236" class="spoke-nipple"/><line x1="117.71" y1="540.635" x2="124.823" y2="533.606" class="spoke-nipple"/><line x1="491.655" y1="84.983" x2="486.148" y2="93.33" class="spoke-nipple"/><line x1="50.947" y1="320.546" x2="60.947" y2="320.604" class="spoke-nipple"/></g><g class="wheel-hub-face-group"><path d="M 372 344 A 6 6 0 0 1 372 356 Q 362.9903810567666 357.5 366.19615242270663 366.05255888325763 A 6 6 0 0 1 355.80384757729337 372.05255888325763 Q 350 365 344.19615242270663 372.05255888325763 A 6 6 0 0 1 333.80384757729337 366.05255888325763 Q 337.0096189432334 357.5 328 356 A 6 6 0 0 1 328 344 Q 337.0096189432334 342.5 333.80384757729337 333.94744111674237 A 6 6 0 0 1 344.19615242270663 327.94744111674237 Q 350 335 355.80384757729337 327.9474411167423 A 6 6 0 0 1 366.19615242270663 333.9474411167423 Q 362.9903810567666 342.5 372 344 Z M 372 347.5 A 2.5 2.5 0 0 0 372 352.5 A 2.5 2.5 0 0 0 372 347.5 Z M 361 366.55255888325763 A 2.5 2.5 0 0 0 361 371.55255888325763 A 2.5 2.5 0 0 0 361 366.55255888325763 Z M 339 366.55255888325763 A 2.5 2.5 0 0 0 339 371.55255888325763 A 2.5 2.5 0 0 0 339 366.55255888325763 Z M 328 347.5 A 2.5 2.5 0 0 0 328 352.5 A 2.5 2.5 0 0 0 328 347.5 Z M 339 328.44744111674237 A 2.5 2.5 0 0 0 339 333.44744111674237 A 2.5 2.5 0 0 0 339 328.44744111674237 Z M 361 328.4474411167423 A 2.5 2.5 0 0 0 361 333.4474411167423 A 2.5 2.5 0 0 0 361 328.4474411167423 Z M 350 344 A 6 6 0 0 0 350 356 A 6 6 0 0 0 350 344 Z " class="hub-brake-mount"/><path d="M 350 317 A 33 33 0 0 1 350 383 A 33 33 0 0 1 350 317 Z M 352.8424970695573 319.33964292650626 A 1.8 1.8 0 0 0 352.8424970695573 322.9396429265063 A 1.8 1.8 0 0 0 352.8424970695573 319.33964292650626 Z M 363.6705053679539 322.6242833338977 A 1.8 1.8 0 0 0 363.6705053679539 326.22428333389774 A 1.8 1.8 0 0 0 363.6705053679539 322.6242833338977 Z M 372.41730314751936 329.80259475925425 A 1.8 1.8 0 0 0 372.41730314751936 333.40259475925427 A 1.8 1.8 0 0 0 372.41730314751936 329.80259475925425 Z M 377.75126973623406 339.7817443596206 A 1.8 1.8 0 0 0 377.75126973623406 343.3817443596206 A 1.8 1.8 0 0 0 377.75126973623406 339.7817443596206 Z M 378.86035707349373 351.04249706955727 A 1.8 1.8 0 0 0 378.86035707349373 354.6424970695573 A 1.8 1.8 0 0 0 378.86035707349373 351.04249706955727 Z M 375.57571666610227 361.8705053679539 A 1.8 1.8 0 0 0 375.57571666610227 365.47050536795393 A 1.8 1.8 0 0 0 375.57571666610227 361.8705053679539 Z M 368.39740524074574 370.61730314751935 A 1.8 1.8 0 0 0 368.39740524074574 374.2173031475194 A 1.8 1.8 0 0 0 368.39740524074574 370.61730314751935 Z M 358.4182556403794 375.95126973623405 A 1.8 1.8 0 0 0 358.4182556403794 379.5512697362341 A 1.8 1.8 0 0 0 358.4182556403794 375.95126973623405 Z M 347.1575029304427 377.0603570734937 A 1.8 1.8 0 0 0 347.1575029304427 380.66035707349374 A 1.8 1.8 0 0 0 347.1575029304427 377.0603570734937 Z M 336.3294946320461 373.77571666610226 A 1.8 1.8 0 0 0 336.3294946320461 377.3757166661023 A 1.8 1.8 0 0 0 336.3294946320461 373.77571666610226 Z M 327.58269685248064 366.59740524074573 A 1.8 1.8 0 0 0 327.58269685248064 370.19740524074575 A 1.8 1.8 0 0 0 327.58269685248064 366.59740524074573 Z M 322.24873026376594 356.6182556403794 A 1.8 1.8 0 0 0 322.24873026376594 360.2182556403794 A 1.8 1.8 0 0 0 322.24873026376594 356.6182556403794 Z M 321.13964292650627 345.3575029304427 A 1.8 1.8 0 0 0 321.13964292650627 348.95750293044273 A 1.8 1.8 0 0 0 321.13964292650627 345.3575029304427 Z M 324.42428333389773 334.52949463204607 A 1.8 1.8 0 0 0 324.42428333389773 338.1294946320461 A 1.8 1.8 0 0 0 324.42428333389773 334.52949463204607 Z M 331.6025947592543 325.7826968524806 A 1.8 1.8 0 0 0 331.6025947592543 329.38269685248065 A 1.8 1.8 0 0 0 331.6025947592543 325.7826968524806 Z M 341.5817443596206 320.4487302637659 A 1.8 1.8 0 0 0 341.5817443596206 324.04873026376595 A 1.8 1.8 0 0 0 341.5817443596206 320.4487302637659 Z M 350 344 A 6 6 0 0 0 350 356 A 6 6 0 0 0 350 344 Z " class="hub-flange-right"/><circle cx="353.242" cy="321.54" r="1.4" fill="#ced4da"/><circle cx="364.071" cy="324.824" r="1.4" fill="#ced4da"/><circle cx="372.817" cy="332.003" r="1.4" fill="#ced4da"/><circle cx="378.151" cy="341.982" r="1.4" fill="#ced4da"/><circle cx="379.26" cy="353.242" r="1.4" fill="#ced4da"/><circle cx="375.976" cy="364.071" r="1.4" fill="#ced4da"/><circle cx="368.797" cy="372.817" r="1.4" fill="#ced4da"/><circle cx="358.818" cy="378.151" r="1.4" fill="#ced4da"/><circle cx="347.558" cy="379.26" r="1.4" fill="#ced4da"/><circle cx="336.729" cy="375.976" r="1.4" fill="#ced4da"/><circle cx="327.983" cy="368.797" r="1.4" fill="#ced4da"/><circle cx="322.649" cy="358.818" r="1.4" fill="#ced4da"/><circle cx="321.54" cy="347.558" r="1.4" fill="#ced4da"/><circle cx="324.824" cy="336.729" r="1.4" fill="#ced4da"/><circle cx="332.003" cy="327.983" r="1.4" fill="#ced4da"/><circle cx="341.982" cy="322.649" r="1.4" fill="#ced4da"/><path d="M 350 320 A 30 30 0 0 1 350 380 A 30 30 0 0 1 350 320 Z M 357.54740160861604 323.31955127096256 A 1.8 1.8 0 0 0 357.54740160861604 326.9195512709626 A 1.8 1.8 0 0 0 357.54740160861604 323.31955127096256 Z M 366.4942253882548 328.10172821256884 A 1.8 1.8 0 0 0 366.4942253882548 331.70172821256887 A 1.8 1.8 0 0 0 366.4942253882548 328.10172821256884 Z M 372.92995287305723 335.9436848425241 A 1.8 1.8 0 0 0 372.92995287305723 339.5436848425241 A 1.8 1.8 0 0 0 372.92995287305723 335.9436848425241 Z M 375.8748028934771 345.6515543514314 A 1.8 1.8 0 0 0 375.8748028934771 349.2515543514314 A 1.8 1.8 0 0 0 375.8748028934771 345.6515543514314 Z M 374.8804487290374 355.74740160861603 A 1.8 1.8 0 0 0 374.8804487290374 359.34740160861605 A 1.8 1.8 0 0 0 374.8804487290374 355.74740160861603 Z M 370.09827178743114 364.6942253882548 A 1.8 1.8 0 0 0 370.09827178743114 368.2942253882548 A 1.8 1.8 0 0 0 370.09827178743114 364.6942253882548 Z M 362.2563151574759 371.1299528730572 A 1.8 1.8 0 0 0 362.2563151574759 374.72995287305724 A 1.8 1.8 0 0 0 362.2563151574759 371.1299528730572 Z M 352.5484456485686 374.0748028934771 A 1.8 1.8 0 0 0 352.5484456485686 377.67480289347714 A 1.8 1.8 0 0 0 352.5484456485686 374.0748028934771 Z M 342.45259839138396 373.0804487290374 A 1.8 1.8 0 0 0 342.45259839138396 376.68044872903744 A 1.8 1.8 0 0 0 342.45259839138396 373.0804487290374 Z M 333.5057746117452 368.29827178743113 A 1.8 1.8 0 0 0 333.5057746117452 371.89827178743116 A 1.8 1.8 0 0 0 333.5057746117452 368.29827178743113 Z M 327.07004712694277 360.45631515747596 A 1.8 1.8 0 0 0 327.07004712694277 364.056315157476 A 1.8 1.8 0 0 0 327.07004712694277 360.45631515747596 Z M 324.1251971065229 350.7484456485686 A 1.8 1.8 0 0 0 324.1251971065229 354.3484456485686 A 1.8 1.8 0 0 0 324.1251971065229 350.7484456485686 Z M 325.1195512709626 340.65259839138395 A 1.8 1.8 0 0 0 325.1195512709626 344.25259839138397 A 1.8 1.8 0 0 0 325.1195512709626 340.65259839138395 Z M 329.90172821256886 331.7057746117452 A 1.8 1.8 0 0 0 329.90172821256886 335.3057746117452 A 1.8 1.8 0 0 0 329.90172821256886 331.7057746117452 Z M 337.7436848425241 325.27004712694276 A 1.8 1.8 0 0 0 337.7436848425241 328.8700471269428 A 1.8 1.8 0 0 0 337.7436848425241 325.27004712694276 Z M 347.4515543514314 322.32519710652286 A 1.8 1.8 0 0 0 347.4515543514314 325.9251971065229 A 1.8 1.8 0 0 0 347.4515543514314 322.32519710652286 Z M 350 344 A 6 6 0 0 0 350 356 A 6 6 0 0 0 350 344 Z " class="hub-flange-left"/><path d="M 348.41264867531544 334.1794337720794 L 348.2978402461716 333.03517898200965 L 348.69247660809066 332.599055123942 A 17.45 17.45 0 0 1 351.30752339190934 332.599055123942 L 351.7021597538284 333.03517898200965 L 351.58735132468456 334.1794337720794 A 15.9 15.9 0 0 1 354.6987712859153 334.8101498229029 L 355.03861952357585 333.7115128604084 L 355.57193831320467 333.46349482406146 A 17.45 17.45 0 0 1 361.1747259198185 336.5974629037284 L 361.2425086571136 337.18171231814773 L 360.4842162843464 338.04628890665975 A 15.9 15.9 0 0 1 363.5760056047578 341.7234021591246 L 364.55791795981895 341.12478030270904 L 365.12185910138425 341.2918499485894 A 17.45 17.45 0 0 1 367.24752419907855 347.34945118848964 L 366.91163748785516 347.8322782744615 L 365.77096985670954 347.97848824421925 A 15.9 15.9 0 0 1 365.65485430340703 352.7812832899758 L 366.78712363981697 352.9824452889363 L 367.0992852649732 353.48094002060793 A 17.45 17.45 0 0 1 364.6833696136566 359.4287409970126 L 364.11201369293013 359.56836294935306 L 363.16017699223397 358.9229894952911 A 15.9 15.9 0 0 1 359.8943031460923 362.446395673175 L 360.60992884533795 363.34660668098326 L 360.51399140285463 363.92689788792535 A 17.45 17.45 0 0 1 354.7663005006741 366.7864492831949 L 354.24559029913297 366.5129483440089 L 353.9592308361416 365.3991717694864 A 15.9 15.9 0 0 1 349.1790333337812 365.87879131838935 L 349.11965524157046 367.0272573571408 L 348.66366082485894 367.39875563392343 A 17.45 17.45 0 0 1 342.4624359097973 365.73809478895356 L 342.2531247631064 365.1884305991108 L 342.77564127468577 364.16399099858427 A 15.9 15.9 0 0 1 338.87487472315706 361.359647334955 L 338.0702272974735 362.1812570478606 L 337.48252185568197 362.1579291372553 A 17.45 17.45 0 0 1 333.93311803125846 356.8086565343339 L 334.14002159221263 356.25808156742295 L 335.2097562062276 355.83598222416566 A 15.9 15.9 0 0 1 334.141787155582 351.1519919188677 L 332.9948094970235 351.23531208910026 L 332.56969522335265 350.82883978740443 A 17.45 17.45 0 0 1 333.4495289567322 344.46968280783517 L 333.96903720670673 344.1939056225335 L 335.0503044918849 344.5855190262923 A 15.9 15.9 0 0 1 337.34993424142175 340.3674595093689 L 336.43499237837995 339.67076632922897 L 336.38535153357736 339.08469665397536 A 17.45 17.45 0 0 1 341.2538330684422 334.90009721867966 L 341.8257945667983 335.0372173197691 L 342.37713393619316 336.0464372659431 A 15.9 15.9 0 0 1 348.41264867531544 334.1794337720794 Z M 350 340 A 10 10 0 0 0 350 360 A 10 10 0 0 0 350 340 Z " class="hub-cylinder-freehub"/><circle cx="350" cy="350" r="9" fill="none" stroke="#212529" stroke-width="6"/></g><g class="spoke-theme-color wheel-front-spokes"><line x1="357.547" y1="325.12" x2="649.053" y2="320.546" class="spoke spoke-right spoke-pulling" data-rim-index="7" data-hub-index="0"/><line x1="366.494" y1="329.902" x2="208.345" y2="84.983" class="spoke spoke-right spoke-trailing" data-rim-index="29" data-hub-index="1"/><line x1="372.93" y1="337.744" x2="582.29" y2="540.635" class="spoke spoke-right spoke-pulling" data-rim-index="11" data-hub-index="2"/><line x1="375.875" y1="347.452" x2="437.231" y2="62.439" class="spoke spoke-right spoke-trailing" data-rim-index="1" data-hub-index="3"/><line x1="374.88" y1="357.547" x2="379.454" y2="649.053" class="spoke spoke-right spoke-pulling" data-rim-index="15" data-hub-index="4"/><line x1="370.098" y1="366.494" x2="615.017" y2="208.345" class="spoke spoke-right spoke-trailing" data-rim-index="5" data-hub-index="5"/><line x1="362.256" y1="372.93" x2="159.365" y2="582.29" class="spoke spoke-right spoke-pulling" data-rim-index="19" data-hub-index="6"/><line x1="352.548" y1="375.875" x2="637.561" y2="437.231" class="spoke spoke-right spoke-trailing" data-rim-index="9" data-hub-index="7"/><line x1="342.453" y1="374.88" x2="50.947" y2="379.454" class="spoke spoke-right spoke-pulling" data-rim-index="23" data-hub-index="8"/><line x1="333.506" y1="370.098" x2="491.655" y2="615.017" class="spoke spoke-right spoke-trailing" data-rim-index="13" data-hub-index="9"/><line x1="327.07" y1="362.256" x2="117.71" y2="159.365" class="spoke spoke-right spoke-pulling" data-rim-index="27" data-hub-index="10"/><line x1="324.125" y1="352.548" x2="262.769" y2="637.561" class="spoke spoke-right spoke-trailing" data-rim-index="17" data-hub-index="11"/><line x1="325.12" y1="342.453" x2="320.546" y2="50.947" class="spoke spoke-right spoke-pulling" data-rim-index="31" data-hub-index="12"/><line x1="329.902" y1="333.506" x2="84.983" y2="491.655" class="spoke spoke-right spoke-trailing" data-rim-index="21" data-hub-index="13"/><line x1="337.744" y1="327.07" x2="540.635" y2="117.71" class="spoke spoke-right spoke-pulling" data-rim-index="3" data-hub-index="14"/><line x1="347.452" y1="324.125" x2="62.439" y2="262.769" class="spoke spoke-right spoke-trailing" data-rim-index="25" data-hub-index="15"/></g><g class="nipple-theme-silver wheel-front-nipples"><line x1="649.053" y1="320.546" x2="639.054" y2="320.703" class="spoke-nipple"/><line x1="208.345" y1="84.983" x2="213.77" y2="93.383" class="spoke-nipple"/><line x1="582.29" y1="540.635" x2="575.109" y2="533.676" class="spoke-nipple"/><line x1="437.231" y1="62.439" x2="435.126" y2="72.215" class="spoke-nipple"/><line x1="379.454" y1="649.053" x2="379.297" y2="639.054" class="spoke-nipple"/><line x1="615.017" y1="208.345" x2="606.617" y2="213.77" class="spoke-nipple"/><line x1="159.365" y1="582.29" x2="166.324" y2="575.109" class="spoke-nipple"/><line x1="637.561" y1="437.231" x2="627.785" y2="435.126" class="spoke-nipple"/><line x1="50.947" y1="379.454" x2="60.946" y2="379.297" class="spoke-nipple"/><line x1="491.655" y1="615.017" x2="486.23" y2="606.617" class="spoke-nipple"/><line x1="117.71" y1="159.365" x2="124.891" y2="166.324" class="spoke-nipple"/><line x1="262.769" y1="637.561" x2="264.874" y2="627.785" class="spoke-nipple"/><line x1="320.546" y1="50.947" x2="320.703" y2="60.946" class="spoke-nipple"/><line x1="84.983" y1="491.655" x2="93.383" y2="486.23" class="spoke-nipple"/><line x1="540.635" y1="117.71" x2="533.676" y2="124.891" class="spoke-nipple"/><line x1="62.439" y1="262.769" x2="72.215" y2="264.874" class="spoke-nipple"/></g><g class="rim-holes-group"><circle cx="379.454" cy="50.947" r="2.2" class="rim-hole"/><circle cx="437.231" cy="62.439" r="2.2" class="rim-hole"/><circle cx="491.655" cy="84.983" r="2.2" class="rim-hole"/><circle cx="540.635" cy="117.71" r="2.2" class="rim-hole"/><circle cx="582.29" cy="159.365" r="2.2" class="rim-hole"/><circle cx="615.017" cy="208.345" r="2.2" class="rim-hole"/><circle cx="637.561" cy="262.769" r="2.2" class="rim-hole"/><circle cx="649.053" cy="320.546" r="2.2" class="rim-hole"/><circle cx="649.053" cy="379.454" r="2.2" class="rim-hole"/><circle cx="637.561" cy="437.231" r="2.2" class="rim-hole"/><circle cx="615.017" cy="491.655" r="2.2" class="rim-hole"/><circle cx="582.29" cy="540.635" r="2.2" class="rim-hole"/><circle cx="540.635" cy="582.29" r="2.2" class="rim-hole"/><circle cx="491.655" cy="615.017" r="2.2" class="rim-hole"/><circle cx="437.231" cy="637.561" r="2.2" class="rim-hole"/><circle cx="379.454" cy="649.053" r="2.2" class="rim-hole"/><circle cx="320.546" cy="649.053" r="2.2" class="rim-hole"/><circle cx="262.769" cy="637.561" r="2.2" class="rim-hole"/><circle cx="208.345" cy="615.017" r="2.2" class="rim-hole"/><circle cx="159.365" cy="582.29" r="2.2" class="rim-hole"/><circle cx="117.71" cy="540.635" r="2.2" class="rim-hole"/><circle cx="84.983" cy="491.655" r="2.2" class="rim-hole"/><circle cx="62.439" cy="437.231" r="2.2" class="rim-hole"/><circle cx="50.947" cy="379.454" r="2.2" class="rim-hole"/><circle cx="50.947" cy="320.546" r="2.2" class="rim-hole"/><circle cx="62.439" cy="262.769" r="2.2" class="rim-hole"/><circle cx="84.983" cy="208.345" r="2.2" class="rim-hole"/><circle cx="117.71" cy="159.365" r="2.2" class="rim-hole"/><circle cx="159.365" cy="117.71" r="2.2" class="rim-hole"/><circle cx="208.345" cy="84.983" r="2.2" class="rim-hole"/><circle cx="262.769" cy="62.439" r="2.2" class="rim-hole"/><circle cx="320.546" cy="50.947" r="2.2" class="rim-hole"/></g><g class="hub-spoke-heads-group"><circle cx="357.947" cy="325.52" r="1.4" fill="#ced4da"/><circle cx="366.894" cy="330.302" r="1.4" fill="#ced4da"/><circle cx="373.33" cy="338.144" r="1.4" fill="#ced4da"/><circle cx="376.275" cy="347.852" r="1.4" fill="#ced4da"/><circle cx="375.28" cy="357.947" r="1.4" fill="#ced4da"/><circle cx="370.498" cy="366.894" r="1.4" fill="#ced4da"/><circle cx="362.656" cy="373.33" r="1.4" fill="#ced4da"/><circle cx="352.948" cy="376.275" r="1.4" fill="#ced4da"/><circle cx="342.853" cy="375.28" r="1.4" fill="#ced4da"/><circle cx="333.906" cy="370.498" r="1.4" fill="#ced4da"/><circle cx="327.47" cy="362.656" r="1.4" fill="#ced4da"/><circle cx="324.525" cy="352.948" r="1.4" fill="#ced4da"/><circle cx="325.52" cy="342.853" r="1.4" fill="#ced4da"/><circle cx="330.302" cy="333.906" r="1.4" fill="#ced4da"/><circle cx="338.144" cy="327.47" r="1.4" fill="#ced4da"/><circle cx="347.852" cy="324.525" r="1.4" fill="#ced4da"/></g><g class="wheel-valve-group" transform="translate(350 49.5) rotate(0)"><rect x="-3" y="0" width="6" height="48" fill="#adb5bd" rx="1"/><rect x="-5" y="0" width="10" height="3" fill="#6c757d" rx="0.5"/><rect x="-2" y="48" width="4" height="6" fill="#ced4da" rx="0.5"/></g></svg>
