<svg xmlns="http://www.w3.org/2000/svg" width="700" height="700" viewBox="0 0 700 700" preserveAspectRatio="xMidYMid meet" class="wheel-svg"><style>.wheel-svg,.hub-svg{background:var(--wheel-svg-background, #ffffff)}.rim-body{fill:var(--wheel-rim-side-fill, #ffffff);stroke:var(--wheel-rim-stroke, #111111);stroke-width:1;fill-rule:evenodd}.rim-outline{fill:none;stroke:var(--wheel-rim-outline-stroke, #111111);stroke-width:1.5}.rim-highlight{fill:none;stroke:var(--wheel-rim-highlight-stroke, rgba(255,255,255,.15));stroke-width:1}.rim-hole{fill:var(--wheel-rim-hole-fill, #111111);stroke:var(--wheel-rim-hole-stroke, #343a40);stroke-width:0.5}.valve-hole-marker{fill:var(--wheel-valve-fill, #ffffff)}.valve-hole-line{stroke:var(--wheel-valve-stroke, #111111);stroke-width:2.5;stroke-linecap:round}.valve-label{font-family:sans-serif;font-size:14px;fill:var(--wheel-valve-label-fill, #495057);font-weight:bold}.wheel-valve-part{fill:var(--wheel-valve-fill, #ffffff);stroke:var(--wheel-valve-stroke, #111111);stroke-width:1}.spoke-nipple{stroke-width:5;stroke-linecap:butt}.spoke-nipple-dot{fill:var(--wheel-nipple-dot-fill, #ffffff);stroke:var(--wheel-nipple-dot-stroke, #111111);stroke-width:1}.nipple-theme-silver .spoke-nipple{stroke:var(--wheel-nipple-silver, #111111)}.nipple-theme-black .spoke-nipple{stroke:var(--wheel-nipple-black, #111111)}.spoke{stroke-width:1.5;stroke-linecap:round}.spoke-theme-color .spoke-left.spoke-pulling{stroke:var(--wheel-spoke-left-pulling, #111111)}.spoke-theme-color .spoke-left.spoke-trailing{stroke:var(--wheel-spoke-left-trailing, #111111)}.spoke-theme-color .spoke-right.spoke-pulling{stroke:var(--wheel-spoke-right-pulling, #111111);stroke-dasharray:4 4}.spoke-theme-color .spoke-right.spoke-trailing{stroke:var(--wheel-spoke-right-trailing, #111111);stroke-dasharray:4 4}.spoke-theme-black .spoke{stroke:var(--wheel-spoke-black, #111111)}.spoke-theme-silver .spoke{stroke:var(--wheel-spoke-silver, #ced4da)}.hub-axle,.hub-axle-tip{fill:var(--wheel-hub-axle-fill, #ffffff);stroke:var(--wheel-hub-axle-stroke, #111111);stroke-width:0.8}.hub-endcap{fill:var(--wheel-hub-endcap-fill, #ffffff);stroke:var(--wheel-hub-endcap-stroke, #111111);stroke-width:1}.hub-cylinder,.hub-shell-body{fill:var(--wheel-hub-shell-fill, #ffffff);stroke:var(--wheel-hub-shell-stroke, #111111);stroke-width:1.2;fill-rule:evenodd}.hub-brand-dt-swiss .hub-shell-body{fill:var(--wheel-hub-shell-dt-swiss-fill, #ffffff)}.hub-brand-industry-nine .hub-shell-body{fill:var(--wheel-hub-shell-industry-nine-fill, #ffffff)}.hub-flange-left{fill:var(--wheel-hub-flange-left-fill, #ffffff);stroke:var(--wheel-hub-flange-left-stroke, #111111);stroke-width:1;fill-rule:evenodd}.hub-flange-right{fill:var(--wheel-hub-flange-right-fill, #ffffff);stroke:var(--wheel-hub-flange-right-stroke, #111111);stroke-width:1;fill-rule:evenodd}.hub-flange-plate{stroke-width:1.1}.hub-brake-mount,.hub-centerlock-side,.hub-sixbolt-side{fill:var(--wheel-hub-mount-fill, #ffffff);stroke:var(--wheel-hub-mount-stroke, #111111);stroke-width:1;fill-rule:evenodd}.hub-cylinder-freehub{fill:var(--wheel-hub-freehub-fill, #ffffff);stroke:var(--wheel-hub-freehub-stroke, #111111);stroke-width:1;fill-rule:evenodd}.hub-cylinder-dark,.hub-bearing-ring,.hub-freehub-inner-shoulder,.hub-freehub-thread-step{fill:var(--wheel-hub-bearing-fill, #ffffff);stroke:var(--wheel-hub-bearing-stroke, #111111);stroke-width:1}.hub-flange-cutout,.hub-flange-scallop{fill:var(--wheel-hub-cutout-fill, #ffffff);stroke:var(--wheel-hub-cutout-stroke, #111111);stroke-width:0.7}.hub-spoke-hole-side{fill:var(--wheel-hub-hole-fill, #111111);stroke:none}.hub-bolt-head-side{fill:var(--wheel-hub-cutout-fill, #ffffff);stroke:var(--wheel-hub-detail-stroke, #111111);stroke-width:0.6}.hub-spline-line,.hub-freehub-spline,.hub-centerlock-tooth,.hub-sixbolt-side-line,.hub-freehub-thread-line,.hub-freehub-final-step-line,.hub-straightpull-slot-side{stroke:var(--wheel-hub-detail-stroke, #111111);stroke-width:1;stroke-linecap:round;fill:none}.hub-blueprint-line{stroke:var(--wheel-hub-blueprint-stroke, #6b7280);stroke-width:0.7;stroke-dasharray:3 3;fill:none;opacity:0.9}.hub-shell-flute{stroke:var(--wheel-hub-flute-stroke, #111111);stroke-width:0.9;stroke-linecap:round;fill:none}.hub-shell-highlight{stroke:var(--wheel-hub-highlight-stroke, #111111);stroke-width:1;stroke-linecap:round}.hub-centerlock-solid-ring,.hub-freehub-xd-center-ring{fill:none;stroke:var(--wheel-hub-detail-stroke, #111111);stroke-width:1}.hub-centerlock-dashed-ring,.hub-freehub-xd-middle-ring{fill:none;stroke:var(--wheel-hub-detail-stroke, #111111);stroke-width:1;stroke-dasharray:1 1}</style><g class="spoke-theme-color wheel-back-spokes"><line x1="357.547" y1="325.12" x2="649.053" y2="320.546" class="spoke spoke-right spoke-pulling" data-rim-index="7" data-hub-index="0"/><line x1="366.494" y1="329.902" x2="208.345" y2="84.983" class="spoke spoke-right spoke-trailing" data-rim-index="29" data-hub-index="1"/><line x1="372.93" y1="337.744" x2="582.29" y2="540.635" class="spoke spoke-right spoke-pulling" data-rim-index="11" data-hub-index="2"/><line x1="375.875" y1="347.452" x2="437.231" y2="62.439" class="spoke spoke-right spoke-trailing" data-rim-index="1" data-hub-index="3"/><line x1="374.88" y1="357.547" x2="379.454" y2="649.053" class="spoke spoke-right spoke-pulling" data-rim-index="15" data-hub-index="4"/><line x1="370.098" y1="366.494" x2="615.017" y2="208.345" class="spoke spoke-right spoke-trailing" data-rim-index="5" data-hub-index="5"/><line x1="362.256" y1="372.93" x2="159.365" y2="582.29" class="spoke spoke-right spoke-pulling" data-rim-index="19" data-hub-index="6"/><line x1="352.548" y1="375.875" x2="637.561" y2="437.231" class="spoke spoke-right spoke-trailing" data-rim-index="9" data-hub-index="7"/><line x1="342.453" y1="374.88" x2="50.947" y2="379.454" class="spoke spoke-right spoke-pulling" data-rim-index="23" data-hub-index="8"/><line x1="333.506" y1="370.098" x2="491.655" y2="615.017" class="spoke spoke-right spoke-trailing" data-rim-index="13" data-hub-index="9"/><line x1="327.07" y1="362.256" x2="117.71" y2="159.365" class="spoke spoke-right spoke-pulling" data-rim-index="27" data-hub-index="10"/><line x1="324.125" y1="352.548" x2="262.769" y2="637.561" class="spoke spoke-right spoke-trailing" data-rim-index="17" data-hub-index="11"/><line x1="325.12" y1="342.453" x2="320.546" y2="50.947" class="spoke spoke-right spoke-pulling" data-rim-index="31" data-hub-index="12"/><line x1="329.902" y1="333.506" x2="84.983" y2="491.655" class="spoke spoke-right spoke-trailing" data-rim-index="21" data-hub-index="13"/><line x1="337.744" y1="327.07" x2="540.635" y2="117.71" class="spoke spoke-right spoke-pulling" data-rim-index="3" data-hub-index="14"/><line x1="347.452" y1="324.125" x2="62.439" y2="262.769" class="spoke spoke-right spoke-trailing" data-rim-index="25" data-hub-index="15"/></g><g class="nipple-theme-silver wheel-back-nipples"><line x1="649.053" y1="320.546" x2="639.054" y2="320.703" class="spoke-nipple"/><line x1="208.345" y1="84.983" x2="213.77" y2="93.383" class="spoke-nipple"/><line x1="582.29" y1="540.635" x2="575.109" y2="533.676" class="spoke-nipple"/><line x1="437.231" y1="62.439" x2="435.126" y2="72.215" class="spoke-nipple"/><line x1="379.454" y1="649.053" x2="379.297" y2="639.054" class="spoke-nipple"/><line x1="615.017" y1="208.345" x2="606.617" y2="213.77" class="spoke-nipple"/><line x1="159.365" y1="582.29" x2="166.324" y2="575.109" class="spoke-nipple"/><line x1="637.561" y1="437.231" x2="627.785" y2="435.126" class="spoke-nipple"/><line x1="50.947" y1="379.454" x2="60.946" y2="379.297" class="spoke-nipple"/><line x1="491.655" y1="615.017" x2="486.23" y2="606.617" class="spoke-nipple"/><line x1="117.71" y1="159.365" x2="124.891" y2="166.324" class="spoke-nipple"/><line x1="262.769" y1="637.561" x2="264.874" y2="627.785" class="spoke-nipple"/><line x1="320.546" y1="50.947" x2="320.703" y2="60.946" class="spoke-nipple"/><line x1="84.983" y1="491.655" x2="93.383" y2="486.23" class="spoke-nipple"/><line x1="540.635" y1="117.71" x2="533.676" y2="124.891" class="spoke-nipple"/><line x1="62.439" y1="262.769" x2="72.215" y2="264.874" class="spoke-nipple"/></g><g class="wheel-hub-face-group"><path d="M 350 320 A 30 30 0 0 1 350 380 A 30 30 0 0 1 350 320 Z M 357.547 323.32 A 1.8 1.8 0 0 0 357.547 326.92 A 1.8 1.8 0 0 0 357.547 323.32 Z M 366.494 328.102 A 1.8 1.8 0 0 0 366.494 331.702 A 1.8 1.8 0 0 0 366.494 328.102 Z M 372.93 335.944 A 1.8 1.8 0 0 0 372.93 339.544 A 1.8 1.8 0 0 0 372.93 335.944 Z M 375.875 345.652 A 1.8 1.8 0 0 0 375.875 349.252 A 1.8 1.8 0 0 0 375.875 345.652 Z M 374.88 355.747 A 1.8 1.8 0 0 0 374.88 359.347 A 1.8 1.8 0 0 0 374.88 355.747 Z M 370.098 364.694 A 1.8 1.8 0 0 0 370.098 368.294 A 1.8 1.8 0 0 0 370.098 364.694 Z M 362.256 371.13 A 1.8 1.8 0 0 0 362.256 374.73 A 1.8 1.8 0 0 0 362.256 371.13 Z M 352.548 374.075 A 1.8 1.8 0 0 0 352.548 377.675 A 1.8 1.8 0 0 0 352.548 374.075 Z M 342.453 373.08 A 1.8 1.8 0 0 0 342.453 376.68 A 1.8 1.8 0 0 0 342.453 373.08 Z M 333.506 368.298 A 1.8 1.8 0 0 0 333.506 371.898 A 1.8 1.8 0 0 0 333.506 368.298 Z M 327.07 360.456 A 1.8 1.8 0 0 0 327.07 364.056 A 1.8 1.8 0 0 0 327.07 360.456 Z M 324.125 350.748 A 1.8 1.8 0 0 0 324.125 354.348 A 1.8 1.8 0 0 0 324.125 350.748 Z M 325.12 340.653 A 1.8 1.8 0 0 0 325.12 344.253 A 1.8 1.8 0 0 0 325.12 340.653 Z M 329.902 331.706 A 1.8 1.8 0 0 0 329.902 335.306 A 1.8 1.8 0 0 0 329.902 331.706 Z M 337.744 325.27 A 1.8 1.8 0 0 0 337.744 328.87 A 1.8 1.8 0 0 0 337.744 325.27 Z M 347.452 322.325 A 1.8 1.8 0 0 0 347.452 325.925 A 1.8 1.8 0 0 0 347.452 322.325 Z M 350 344 A 6 6 0 0 0 350 356 A 6 6 0 0 0 350 344 Z " class="hub-flange-right"/><circle cx="357.947" cy="325.52" r="1.4" fill="var(--wheel-spoke-silver, #ced4da)"/><circle cx="366.894" cy="330.302" r="1.4" fill="var(--wheel-spoke-silver, #ced4da)"/><circle cx="373.33" cy="338.144" r="1.4" fill="var(--wheel-spoke-silver, #ced4da)"/><circle cx="376.275" cy="347.852" r="1.4" fill="var(--wheel-spoke-silver, #ced4da)"/><circle cx="375.28" cy="357.947" r="1.4" fill="var(--wheel-spoke-silver, #ced4da)"/><circle cx="370.498" cy="366.894" r="1.4" fill="var(--wheel-spoke-silver, #ced4da)"/><circle cx="362.656" cy="373.33" r="1.4" fill="var(--wheel-spoke-silver, #ced4da)"/><circle cx="352.948" cy="376.275" r="1.4" fill="var(--wheel-spoke-silver, #ced4da)"/><circle cx="342.853" cy="375.28" r="1.4" fill="var(--wheel-spoke-silver, #ced4da)"/><circle cx="333.906" cy="370.498" r="1.4" fill="var(--wheel-spoke-silver, #ced4da)"/><circle cx="327.47" cy="362.656" r="1.4" fill="var(--wheel-spoke-silver, #ced4da)"/><circle cx="324.525" cy="352.948" r="1.4" fill="var(--wheel-spoke-silver, #ced4da)"/><circle cx="325.52" cy="342.853" r="1.4" fill="var(--wheel-spoke-silver, #ced4da)"/><circle cx="330.302" cy="333.906" r="1.4" fill="var(--wheel-spoke-silver, #ced4da)"/><circle cx="338.144" cy="327.47" r="1.4" fill="var(--wheel-spoke-silver, #ced4da)"/><circle cx="347.852" cy="324.525" r="1.4" fill="var(--wheel-spoke-silver, #ced4da)"/><path d="M 350 317 A 33 33 0 0 1 350 383 A 33 33 0 0 1 350 317 Z M 352.842 319.34 A 1.8 1.8 0 0 0 352.842 322.94 A 1.8 1.8 0 0 0 352.842 319.34 Z M 363.671 322.624 A 1.8 1.8 0 0 0 363.671 326.224 A 1.8 1.8 0 0 0 363.671 322.624 Z M 372.417 329.803 A 1.8 1.8 0 0 0 372.417 333.403 A 1.8 1.8 0 0 0 372.417 329.803 Z M 377.751 339.782 A 1.8 1.8 0 0 0 377.751 343.382 A 1.8 1.8 0 0 0 377.751 339.782 Z M 378.86 351.042 A 1.8 1.8 0 0 0 378.86 354.642 A 1.8 1.8 0 0 0 378.86 351.042 Z M 375.576 361.871 A 1.8 1.8 0 0 0 375.576 365.471 A 1.8 1.8 0 0 0 375.576 361.871 Z M 368.397 370.617 A 1.8 1.8 0 0 0 368.397 374.217 A 1.8 1.8 0 0 0 368.397 370.617 Z M 358.418 375.951 A 1.8 1.8 0 0 0 358.418 379.551 A 1.8 1.8 0 0 0 358.418 375.951 Z M 347.158 377.06 A 1.8 1.8 0 0 0 347.158 380.66 A 1.8 1.8 0 0 0 347.158 377.06 Z M 336.329 373.776 A 1.8 1.8 0 0 0 336.329 377.376 A 1.8 1.8 0 0 0 336.329 373.776 Z M 327.583 366.597 A 1.8 1.8 0 0 0 327.583 370.197 A 1.8 1.8 0 0 0 327.583 366.597 Z M 322.249 356.618 A 1.8 1.8 0 0 0 322.249 360.218 A 1.8 1.8 0 0 0 322.249 356.618 Z M 321.14 345.358 A 1.8 1.8 0 0 0 321.14 348.958 A 1.8 1.8 0 0 0 321.14 345.358 Z M 324.424 334.529 A 1.8 1.8 0 0 0 324.424 338.129 A 1.8 1.8 0 0 0 324.424 334.529 Z M 331.603 325.783 A 1.8 1.8 0 0 0 331.603 329.383 A 1.8 1.8 0 0 0 331.603 325.783 Z M 341.582 320.449 A 1.8 1.8 0 0 0 341.582 324.049 A 1.8 1.8 0 0 0 341.582 320.449 Z M 350 344 A 6 6 0 0 0 350 356 A 6 6 0 0 0 350 344 Z " class="hub-flange-left"/><path d="M 365.852 344.747 C 366.433 344.657 369.021 342.066 369.701 341.902 C 370.38 341.738 374.253 342.119 374.914 342.565 C 375.576 343.012 378.249 347.139 378.52 347.857 C 378.79 348.575 378.79 351.425 378.52 352.143 C 378.249 352.861 375.576 356.988 374.914 357.435 C 374.253 357.881 370.38 358.262 369.701 358.098 C 369.021 357.934 366.433 355.343 365.852 355.253 C 365.271 355.163 362.204 356.461 361.951 356.9 C 361.698 357.339 362.107 360.643 362.476 361.102 C 362.844 361.56 366.382 362.505 366.863 363.012 C 367.345 363.519 368.952 367.063 368.896 367.859 C 368.84 368.655 366.603 373.034 366.116 373.627 C 365.629 374.221 363.161 375.645 362.404 375.77 C 361.647 375.895 356.736 375.643 356.018 375.294 C 355.301 374.944 353.035 371.781 352.837 371.11 C 352.639 370.44 353.589 366.903 353.377 366.355 C 353.164 365.807 350.506 363.8 350 363.8 C 349.494 363.8 346.836 365.807 346.623 366.355 C 346.411 366.903 347.361 370.44 347.163 371.11 C 346.965 371.781 344.699 374.944 343.982 375.294 C 343.264 375.643 338.353 375.895 337.596 375.77 C 336.839 375.645 334.371 374.221 333.884 373.627 C 333.397 373.034 331.16 368.655 331.104 367.859 C 331.048 367.063 332.655 363.519 333.137 363.012 C 333.618 362.505 337.156 361.56 337.524 361.102 C 337.893 360.643 338.302 357.339 338.049 356.9 C 337.796 356.461 334.729 355.163 334.148 355.253 C 333.567 355.343 330.979 357.934 330.299 358.098 C 329.62 358.262 325.747 357.881 325.086 357.435 C 324.424 356.988 321.751 352.861 321.48 352.143 C 321.21 351.425 321.21 348.575 321.48 347.857 C 321.751 347.139 324.424 343.012 325.086 342.565 C 325.747 342.119 329.62 341.738 330.299 341.902 C 330.979 342.066 333.567 344.657 334.148 344.747 C 334.729 344.837 337.796 343.539 338.049 343.1 C 338.302 342.661 337.893 339.357 337.524 338.898 C 337.156 338.44 333.618 337.495 333.137 336.988 C 332.655 336.481 331.048 332.937 331.104 332.141 C 331.16 331.345 333.397 326.966 333.884 326.373 C 334.371 325.779 336.839 324.355 337.596 324.23 C 338.353 324.105 343.264 324.357 343.982 324.706 C 344.699 325.056 346.965 328.219 347.163 328.89 C 347.361 329.56 346.411 333.097 346.623 333.645 C 346.836 334.193 349.494 336.2 350 336.2 C 350.506 336.2 353.164 334.193 353.377 333.645 C 353.589 333.097 352.639 329.56 352.837 328.89 C 353.035 328.219 355.301 325.056 356.018 324.706 C 356.736 324.357 361.647 324.105 362.404 324.23 C 363.161 324.355 365.629 325.779 366.116 326.373 C 366.603 326.966 368.84 331.345 368.896 332.141 C 368.952 332.937 367.345 336.481 366.863 336.988 C 366.382 337.495 362.844 338.44 362.476 338.898 C 362.107 339.357 361.698 342.661 361.951 343.1 C 362.204 343.539 365.271 344.837 365.852 344.747 Z M 372 347.2 A 2.8 2.8 0 0 0 372 352.8 A 2.8 2.8 0 0 0 372 347.2 Z M 361 366.253 A 2.8 2.8 0 0 0 361 371.853 A 2.8 2.8 0 0 0 361 366.253 Z M 339 366.253 A 2.8 2.8 0 0 0 339 371.853 A 2.8 2.8 0 0 0 339 366.253 Z M 328 347.2 A 2.8 2.8 0 0 0 328 352.8 A 2.8 2.8 0 0 0 328 347.2 Z M 339 328.147 A 2.8 2.8 0 0 0 339 333.747 A 2.8 2.8 0 0 0 339 328.147 Z M 361 328.147 A 2.8 2.8 0 0 0 361 333.747 A 2.8 2.8 0 0 0 361 328.147 Z M 350 344 A 6 6 0 0 0 350 356 A 6 6 0 0 0 350 344 Z " class="hub-brake-mount"/><circle cx="350" cy="350" r="9" fill="none" stroke="var(--wheel-hub-detail-stroke, #111111)" stroke-width="6"/></g><g class="spoke-theme-color wheel-front-spokes"><line x1="352.842" y1="321.14" x2="637.561" y2="262.769" class="spoke spoke-left spoke-pulling" data-rim-index="6" data-hub-index="0"/><line x1="363.671" y1="324.424" x2="159.365" y2="117.71" class="spoke spoke-left spoke-trailing" data-rim-index="28" data-hub-index="1"/><line x1="372.417" y1="331.603" x2="615.017" y2="491.655" class="spoke spoke-left spoke-pulling" data-rim-index="10" data-hub-index="2"/><line x1="377.751" y1="341.582" x2="379.454" y2="50.947" class="spoke spoke-left spoke-trailing" data-rim-index="0" data-hub-index="3"/><line x1="378.86" y1="352.842" x2="437.231" y2="637.561" class="spoke spoke-left spoke-pulling" data-rim-index="14" data-hub-index="4"/><line x1="375.576" y1="363.671" x2="582.29" y2="159.365" class="spoke spoke-left spoke-trailing" data-rim-index="4" data-hub-index="5"/><line x1="368.397" y1="372.417" x2="208.345" y2="615.017" class="spoke spoke-left spoke-pulling" data-rim-index="18" data-hub-index="6"/><line x1="358.418" y1="377.751" x2="649.053" y2="379.454" class="spoke spoke-left spoke-trailing" data-rim-index="8" data-hub-index="7"/><line x1="347.158" y1="378.86" x2="62.439" y2="437.231" class="spoke spoke-left spoke-pulling" data-rim-index="22" data-hub-index="8"/><line x1="336.329" y1="375.576" x2="540.635" y2="582.29" class="spoke spoke-left spoke-trailing" data-rim-index="12" data-hub-index="9"/><line x1="327.583" y1="368.397" x2="84.983" y2="208.345" class="spoke spoke-left spoke-pulling" data-rim-index="26" data-hub-index="10"/><line x1="322.249" y1="358.418" x2="320.546" y2="649.053" class="spoke spoke-left spoke-trailing" data-rim-index="16" data-hub-index="11"/><line x1="321.14" y1="347.158" x2="262.769" y2="62.439" class="spoke spoke-left spoke-pulling" data-rim-index="30" data-hub-index="12"/><line x1="324.424" y1="336.329" x2="117.71" y2="540.635" class="spoke spoke-left spoke-trailing" data-rim-index="20" data-hub-index="13"/><line x1="331.603" y1="327.583" x2="491.655" y2="84.983" class="spoke spoke-left spoke-pulling" data-rim-index="2" data-hub-index="14"/><line x1="341.582" y1="322.249" x2="50.947" y2="320.546" class="spoke spoke-left spoke-trailing" data-rim-index="24" data-hub-index="15"/></g><g class="nipple-theme-silver wheel-front-nipples"><line x1="637.561" y1="262.769" x2="627.764" y2="264.778" class="spoke-nipple"/><line x1="159.365" y1="117.71" x2="166.394" y2="124.823" class="spoke-nipple"/><line x1="615.017" y1="491.655" x2="606.67" y2="486.148" class="spoke-nipple"/><line x1="379.454" y1="50.947" x2="379.396" y2="60.947" class="spoke-nipple"/><line x1="437.231" y1="637.561" x2="435.222" y2="627.764" class="spoke-nipple"/><line x1="582.29" y1="159.365" x2="575.177" y2="166.394" class="spoke-nipple"/><line x1="208.345" y1="615.017" x2="213.852" y2="606.67" class="spoke-nipple"/><line x1="649.053" y1="379.454" x2="639.053" y2="379.396" class="spoke-nipple"/><line x1="62.439" y1="437.231" x2="72.236" y2="435.222" class="spoke-nipple"/><line x1="540.635" y1="582.29" x2="533.606" y2="575.177" class="spoke-nipple"/><line x1="84.983" y1="208.345" x2="93.33" y2="213.852" class="spoke-nipple"/><line x1="320.546" y1="649.053" x2="320.604" y2="639.053" class="spoke-nipple"/><line x1="262.769" y1="62.439" x2="264.778" y2="72.236" class="spoke-nipple"/><line x1="117.71" y1="540.635" x2="124.823" y2="533.606" class="spoke-nipple"/><line x1="491.655" y1="84.983" x2="486.148" y2="93.33" class="spoke-nipple"/><line x1="50.947" y1="320.546" x2="60.947" y2="320.604" class="spoke-nipple"/></g><g id="rimGroup"><circle cx="350" cy="350" r="308.75" fill="transparent" stroke="var(--wheel-rim-face-fill, #e9ecef)" stroke-width="16.5"/><circle cx="350" cy="350" r="317" class="rim-outline"/><circle cx="350" cy="350" r="300.5" class="rim-outline"/><circle cx="350" cy="350" r="301.5" class="rim-highlight"/></g><g class="wheel-back-nipple-dots"></g><g class="wheel-front-nipple-dots"></g><g class="rim-holes-group"><circle cx="379.454" cy="50.947" r="2.2" class="rim-hole"/><circle cx="437.231" cy="62.439" r="2.2" class="rim-hole"/><circle cx="491.655" cy="84.983" r="2.2" class="rim-hole"/><circle cx="540.635" cy="117.71" r="2.2" class="rim-hole"/><circle cx="582.29" cy="159.365" r="2.2" class="rim-hole"/><circle cx="615.017" cy="208.345" r="2.2" class="rim-hole"/><circle cx="637.561" cy="262.769" r="2.2" class="rim-hole"/><circle cx="649.053" cy="320.546" r="2.2" class="rim-hole"/><circle cx="649.053" cy="379.454" r="2.2" class="rim-hole"/><circle cx="637.561" cy="437.231" r="2.2" class="rim-hole"/><circle cx="615.017" cy="491.655" r="2.2" class="rim-hole"/><circle cx="582.29" cy="540.635" r="2.2" class="rim-hole"/><circle cx="540.635" cy="582.29" r="2.2" class="rim-hole"/><circle cx="491.655" cy="615.017" r="2.2" class="rim-hole"/><circle cx="437.231" cy="637.561" r="2.2" class="rim-hole"/><circle cx="379.454" cy="649.053" r="2.2" class="rim-hole"/><circle cx="320.546" cy="649.053" r="2.2" class="rim-hole"/><circle cx="262.769" cy="637.561" r="2.2" class="rim-hole"/><circle cx="208.345" cy="615.017" r="2.2" class="rim-hole"/><circle cx="159.365" cy="582.29" r="2.2" class="rim-hole"/><circle cx="117.71" cy="540.635" r="2.2" class="rim-hole"/><circle cx="84.983" cy="491.655" r="2.2" class="rim-hole"/><circle cx="62.439" cy="437.231" r="2.2" class="rim-hole"/><circle cx="50.947" cy="379.454" r="2.2" class="rim-hole"/><circle cx="50.947" cy="320.546" r="2.2" class="rim-hole"/><circle cx="62.439" cy="262.769" r="2.2" class="rim-hole"/><circle cx="84.983" cy="208.345" r="2.2" class="rim-hole"/><circle cx="117.71" cy="159.365" r="2.2" class="rim-hole"/><circle cx="159.365" cy="117.71" r="2.2" class="rim-hole"/><circle cx="208.345" cy="84.983" r="2.2" class="rim-hole"/><circle cx="262.769" cy="62.439" r="2.2" class="rim-hole"/><circle cx="320.546" cy="50.947" r="2.2" class="rim-hole"/></g><g class="hub-spoke-heads-group"><circle cx="353.242" cy="321.54" r="1.4" fill="var(--wheel-spoke-silver, #ced4da)"/><circle cx="364.071" cy="324.824" r="1.4" fill="var(--wheel-spoke-silver, #ced4da)"/><circle cx="372.817" cy="332.003" r="1.4" fill="var(--wheel-spoke-silver, #ced4da)"/><circle cx="378.151" cy="341.982" r="1.4" fill="var(--wheel-spoke-silver, #ced4da)"/><circle cx="379.26" cy="353.242" r="1.4" fill="var(--wheel-spoke-silver, #ced4da)"/><circle cx="375.976" cy="364.071" r="1.4" fill="var(--wheel-spoke-silver, #ced4da)"/><circle cx="368.797" cy="372.817" r="1.4" fill="var(--wheel-spoke-silver, #ced4da)"/><circle cx="358.818" cy="378.151" r="1.4" fill="var(--wheel-spoke-silver, #ced4da)"/><circle cx="347.558" cy="379.26" r="1.4" fill="var(--wheel-spoke-silver, #ced4da)"/><circle cx="336.729" cy="375.976" r="1.4" fill="var(--wheel-spoke-silver, #ced4da)"/><circle cx="327.983" cy="368.797" r="1.4" fill="var(--wheel-spoke-silver, #ced4da)"/><circle cx="322.649" cy="358.818" r="1.4" fill="var(--wheel-spoke-silver, #ced4da)"/><circle cx="321.54" cy="347.558" r="1.4" fill="var(--wheel-spoke-silver, #ced4da)"/><circle cx="324.824" cy="336.729" r="1.4" fill="var(--wheel-spoke-silver, #ced4da)"/><circle cx="332.003" cy="327.983" r="1.4" fill="var(--wheel-spoke-silver, #ced4da)"/><circle cx="341.982" cy="322.649" r="1.4" fill="var(--wheel-spoke-silver, #ced4da)"/></g><g class="wheel-valve-group" transform="translate(350 49.5) rotate(0)"><rect x="-3" y="0" width="6" height="48" class="wheel-valve-part wheel-valve-stem" rx="1"/><rect x="-5" y="0" width="10" height="3" class="wheel-valve-part wheel-valve-base" rx="0.5"/><rect x="-2" y="48" width="4" height="6" class="wheel-valve-part wheel-valve-cap" rx="0.5"/></g></svg>
