<svg xmlns="http://www.w3.org/2000/svg" width="200" height="750" viewBox="0 0 200 750" preserveAspectRatio="xMidYMid meet" class="wheel-svg"><style>.wheel-svg,.hub-svg{background:var(--wheel-svg-background, #ffffff)}.rim-body{fill:var(--wheel-rim-side-fill, #ffffff);stroke:var(--wheel-rim-stroke, #111111);stroke-width:1;fill-rule:evenodd}.rim-outline{fill:none;stroke:var(--wheel-rim-outline-stroke, #111111);stroke-width:1.5}.rim-highlight{fill:none;stroke:var(--wheel-rim-highlight-stroke, rgba(255,255,255,.15));stroke-width:1}.rim-hole{fill:var(--wheel-rim-hole-fill, #111111);stroke:var(--wheel-rim-hole-stroke, #343a40);stroke-width:0.5}.valve-hole-marker{fill:var(--wheel-valve-fill, #ffffff)}.valve-hole-line{stroke:var(--wheel-valve-stroke, #111111);stroke-width:2.5;stroke-linecap:round}.valve-label{font-family:sans-serif;font-size:14px;fill:var(--wheel-valve-label-fill, #495057);font-weight:bold}.wheel-valve-part{fill:var(--wheel-valve-fill, #ffffff);stroke:var(--wheel-valve-stroke, #111111);stroke-width:1}.spoke-nipple{stroke-width:5;stroke-linecap:butt}.spoke-nipple-dot{fill:var(--wheel-nipple-dot-fill, #ffffff);stroke:var(--wheel-nipple-dot-stroke, #111111);stroke-width:1}.nipple-theme-silver .spoke-nipple{stroke:var(--wheel-nipple-silver, #111111)}.nipple-theme-black .spoke-nipple{stroke:var(--wheel-nipple-black, #111111)}.spoke{stroke-width:1.5;stroke-linecap:round}.spoke-theme-color .spoke-left.spoke-pulling{stroke:var(--wheel-spoke-left-pulling, #111111)}.spoke-theme-color .spoke-left.spoke-trailing{stroke:var(--wheel-spoke-left-trailing, #111111)}.spoke-theme-color .spoke-right.spoke-pulling{stroke:var(--wheel-spoke-right-pulling, #111111);stroke-dasharray:4 4}.spoke-theme-color .spoke-right.spoke-trailing{stroke:var(--wheel-spoke-right-trailing, #111111);stroke-dasharray:4 4}.spoke-theme-black .spoke{stroke:var(--wheel-spoke-black, #111111)}.spoke-theme-silver .spoke{stroke:var(--wheel-spoke-silver, #ced4da)}.straight-pull-wheel-spoke{stroke-width:2;stroke-linecap:butt}.straight-pull-spoke-head,.spoke-theme-color .straight-pull-spoke-head,.spoke-theme-black .straight-pull-spoke-head,.spoke-theme-silver .straight-pull-spoke-head{stroke:none !important;stroke-width:0 !important}.spoke-theme-color .straight-pull-spoke-head.spoke-left.spoke-pulling{fill:var(--wheel-spoke-left-pulling, #111111)}.spoke-theme-color .straight-pull-spoke-head.spoke-left.spoke-trailing{fill:var(--wheel-spoke-left-trailing, #111111)}.spoke-theme-color .straight-pull-spoke-head.spoke-right.spoke-pulling{fill:var(--wheel-spoke-right-pulling, #111111)}.spoke-theme-color .straight-pull-spoke-head.spoke-right.spoke-trailing{fill:var(--wheel-spoke-right-trailing, #111111)}.spoke-theme-black .straight-pull-spoke-head{fill:var(--wheel-spoke-black, #111111)}.spoke-theme-silver .straight-pull-spoke-head{fill:var(--wheel-spoke-silver, #ced4da)}.hub-axle,.hub-axle-tip{fill:var(--wheel-hub-axle-fill, #ffffff);stroke:var(--wheel-hub-axle-stroke, #111111);stroke-width:0.8}.hub-endcap{fill:var(--wheel-hub-endcap-fill, #ffffff);stroke:var(--wheel-hub-endcap-stroke, #111111);stroke-width:1}.hub-cylinder,.hub-shell-body{fill:var(--wheel-hub-shell-fill, #ffffff);stroke:var(--wheel-hub-shell-stroke, #111111);stroke-width:1.2;fill-rule:evenodd}.hub-brand-dt-swiss .hub-shell-body{fill:var(--wheel-hub-shell-dt-swiss-fill, #ffffff)}.hub-brand-industry-nine .hub-shell-body{fill:var(--wheel-hub-shell-industry-nine-fill, #ffffff)}.hub-flange-left{fill:var(--wheel-hub-flange-left-fill, #ffffff);stroke:var(--wheel-hub-flange-left-stroke, #111111);stroke-width:1;fill-rule:evenodd}.hub-flange-right{fill:var(--wheel-hub-flange-right-fill, #ffffff);stroke:var(--wheel-hub-flange-right-stroke, #111111);stroke-width:1;fill-rule:evenodd}.hub-flange-plate{stroke-width:1.1}.hub-brake-mount,.hub-centerlock-side,.hub-sixbolt-side{fill:var(--wheel-hub-mount-fill, #ffffff);stroke:var(--wheel-hub-mount-stroke, #111111);stroke-width:1;fill-rule:evenodd}.hub-cylinder-freehub{fill:var(--wheel-hub-freehub-fill, #ffffff);stroke:var(--wheel-hub-freehub-stroke, #111111);stroke-width:1;fill-rule:evenodd}.hub-cylinder-dark,.hub-bearing-ring,.hub-freehub-inner-shoulder,.hub-freehub-thread-step{fill:var(--wheel-hub-bearing-fill, #ffffff);stroke:var(--wheel-hub-bearing-stroke, #111111);stroke-width:1}.hub-flange-cutout,.hub-flange-scallop{fill:var(--wheel-hub-cutout-fill, #ffffff);stroke:var(--wheel-hub-cutout-stroke, #111111);stroke-width:0.7}.hub-spoke-hole-side{fill:var(--wheel-hub-hole-fill, #111111);stroke:none}.hub-spoke-hole-face{fill:var(--wheel-hub-hole-fill, #111111);stroke:none}.hub-bolt-head-side{fill:var(--wheel-hub-cutout-fill, #ffffff);stroke:var(--wheel-hub-detail-stroke, #111111);stroke-width:0.6}.hub-spline-line,.hub-freehub-spline,.hub-centerlock-tooth,.hub-sixbolt-side-line,.hub-freehub-thread-line,.hub-freehub-final-step-line,.hub-straightpull-slot-side{stroke:var(--wheel-hub-detail-stroke, #111111);stroke-width:1;stroke-linecap:round;fill:none}.hub-blueprint-line{stroke:var(--wheel-hub-blueprint-stroke, #6b7280);stroke-width:0.7;stroke-dasharray:3 3;fill:none;opacity:0.9}.hub-measure-guide{stroke:var(--wheel-hub-blueprint-stroke, #6b7280);stroke-width:1.1;fill:none}.hub-measure-dashed{stroke-dasharray:3 3}.hub-shell-flute{stroke:var(--wheel-hub-flute-stroke, #111111);stroke-width:0.9;stroke-linecap:round;fill:none}.hub-shell-highlight{stroke:var(--wheel-hub-highlight-stroke, #111111);stroke-width:1;stroke-linecap:round}.hub-centerlock-solid-ring,.hub-freehub-xd-center-ring{fill:none;stroke:var(--wheel-hub-detail-stroke, #111111);stroke-width:1}.hub-centerlock-dashed-ring,.hub-freehub-xd-middle-ring{fill:none;stroke:var(--wheel-hub-detail-stroke, #111111);stroke-width:1;stroke-dasharray:1 1}</style><g class="spoke-theme-color wheel-back-spokes"><line x1="63.4" y1="349.424" x2="100" y2="142.71" class="spoke spoke-left spoke-trailing"/><line x1="63.4" y1="397.417" x2="100" y2="640.017" class="spoke spoke-left spoke-pulling"/><line x1="63.4" y1="403.86" x2="100" y2="462.231" class="spoke spoke-left spoke-pulling"/><line x1="63.4" y1="393.397" x2="100" y2="233.345" class="spoke spoke-left spoke-pulling"/><line x1="63.4" y1="383.418" x2="100" y2="674.053" class="spoke spoke-left spoke-trailing"/><line x1="63.4" y1="372.158" x2="100" y2="87.439" class="spoke spoke-left spoke-pulling"/><line x1="63.4" y1="361.329" x2="100" y2="565.635" class="spoke spoke-left spoke-trailing"/><line x1="63.4" y1="347.249" x2="100" y2="345.546" class="spoke spoke-left spoke-trailing"/><line x1="123.3" y1="354.902" x2="100" y2="109.983" class="spoke spoke-right spoke-trailing"/><line x1="123.3" y1="397.93" x2="100" y2="607.29" class="spoke spoke-right spoke-pulling"/><line x1="123.3" y1="399.88" x2="100" y2="404.454" class="spoke spoke-right spoke-pulling"/><line x1="123.3" y1="387.256" x2="100" y2="184.365" class="spoke spoke-right spoke-pulling"/><line x1="123.3" y1="377.548" x2="100" y2="662.561" class="spoke spoke-right spoke-trailing"/><line x1="123.3" y1="367.453" x2="100" y2="75.947" class="spoke spoke-right spoke-pulling"/><line x1="123.3" y1="358.506" x2="100" y2="516.655" class="spoke spoke-right spoke-trailing"/><line x1="123.3" y1="349.125" x2="100" y2="287.769" class="spoke spoke-right spoke-trailing"/></g><g class="nipple-theme-silver wheel-back-nipples"><line x1="100" y1="142.71" x2="98.257" y2="152.557" class="spoke-nipple"/><line x1="100" y1="640.017" x2="98.508" y2="630.129" class="spoke-nipple"/><line x1="100" y1="462.231" x2="94.688" y2="453.758" class="spoke-nipple"/><line x1="100" y1="233.345" x2="97.771" y2="243.094" class="spoke-nipple"/><line x1="100" y1="674.053" x2="98.751" y2="664.131" class="spoke-nipple"/><line x1="100" y1="87.439" x2="98.725" y2="97.358" class="spoke-nipple"/><line x1="100" y1="565.635" x2="98.237" y2="555.792" class="spoke-nipple"/><line x1="100" y1="345.546" x2="90.011" y2="346.011" class="spoke-nipple"/><line x1="100" y1="109.983" x2="100.947" y2="119.938" class="spoke-nipple"/><line x1="100" y1="607.29" x2="101.106" y2="597.351" class="spoke-nipple"/><line x1="100" y1="404.454" x2="109.813" y2="402.528" class="spoke-nipple"/><line x1="100" y1="184.365" x2="101.141" y2="194.3" class="spoke-nipple"/><line x1="100" y1="662.561" x2="100.815" y2="652.594" class="spoke-nipple"/><line x1="100" y1="75.947" x2="100.797" y2="85.915" class="spoke-nipple"/><line x1="100" y1="516.655" x2="101.458" y2="506.762" class="spoke-nipple"/><line x1="100" y1="287.769" x2="103.55" y2="297.118" class="spoke-nipple"/></g><g class="hub-side-group hub-brand-generic hub-shell-tapered hub-render-blueprint" data-hub-component="hub-side"><path d="M 30.5 366 L 37 366 L 37 384 L 30.5 384 L 29 382.5 L 29 367.5 Z" class="hub-endcap" fill="var(--wheel-hub-endcap-fill, #ffffff)" stroke="var(--wheel-hub-endcap-stroke, #111111)" stroke-width="1" data-hub-component="left-endcap"/><path d="M 38.2 357 L 40.8 357 L 42 358.2 L 42 391.8 L 40.8 393 L 38.2 393 L 37 391.8 L 37 358.2 Z" class="hub-brake-mount hub-6bolt-side" fill="var(--wheel-hub-mount-fill, #ffffff)" stroke="var(--wheel-hub-mount-stroke, #111111)" stroke-width="1" data-hub-component="brake-mount"/><path d="M 42 357 C 46 357 56.4 350 61.4 350 L 65.4 350 C 77.51 350 87.89 362.5 100 362.5 C 107.455 362.5 113.845 353 121.3 353 L 125.3 353 C 129.3 349 123.3 357.5 127.3 357.5 L 127.3 392.5 C 123.3 392.5 129.3 401 125.3 397 L 121.3 397 C 113.845 397 107.455 387.5 100 387.5 C 87.89 387.5 77.51 400 65.4 400 L 61.4 400 C 56.4 400 46 393 42 393 Z" class="hub-cylinder hub-shell-body" fill="var(--wheel-hub-shell-fill, #ffffff)" stroke="var(--wheel-hub-shell-stroke, #111111)" stroke-width="1.2" data-hub-component="shell"/><path d="M 62.6 346 L 64.2 346 L 65.4 347.2 L 65.4 402.8 L 64.2 404 L 62.6 404 L 61.4 402.8 L 61.4 347.2 Z" class="hub-flange-left hub-flange-plate" fill="var(--wheel-hub-flange-left-fill, #ffffff)" stroke="var(--wheel-hub-flange-left-stroke, #111111)" stroke-width="1.1" data-hub-component="left-flange"/><path d="M 122.5 349 L 124.1 349 L 125.3 350.2 L 125.3 399.8 L 124.1 401 L 122.5 401 L 121.3 399.8 L 121.3 350.2 Z" class="hub-flange-right hub-flange-plate" fill="var(--wheel-hub-flange-right-fill, #ffffff)" stroke="var(--wheel-hub-flange-right-stroke, #111111)" stroke-width="1.1" data-hub-component="right-flange"/><path d="M 127.3 357.5 L 163 357.5 L 163 392.5 L 127.3 392.5 Z" class="hub-cylinder-freehub hub-freehub-hg" fill="var(--wheel-hub-freehub-fill, #ffffff)" stroke="var(--wheel-hub-freehub-stroke, #111111)" stroke-width="1" data-hub-component="freehub"/><path d="M 163 366 L 169.5 366 L 171 367.5 L 171 382.5 L 169.5 384 L 163 384 Z" class="hub-endcap" fill="var(--wheel-hub-endcap-fill, #ffffff)" stroke="var(--wheel-hub-endcap-stroke, #111111)" stroke-width="1" data-hub-component="right-endcap"/><line x1="29" y1="343.1" x2="29" y2="406.9" class="hub-measure-guide" data-measure="old" data-measure-part="left-locknut" opacity="0"/><line x1="171" y1="343.1" x2="171" y2="406.9" class="hub-measure-guide" data-measure="old" data-measure-part="right-locknut" opacity="0"/><line x1="29" y1="375" x2="171" y2="375" class="hub-measure-guide hub-measure-dashed" data-measure="old" data-measure-part="connector" stroke-dasharray="4 4" opacity="0"/><line x1="29" y1="343.1" x2="29" y2="406.9" class="hub-measure-guide" data-measure="left-ftl" data-measure-part="locknut" opacity="0"/><line x1="63.4" y1="343.1" x2="63.4" y2="406.9" class="hub-measure-guide" data-measure="left-ftl" data-measure-part="flange-center" opacity="0"/><line x1="29" y1="375" x2="63.4" y2="375" class="hub-measure-guide hub-measure-dashed" data-measure="left-ftl" data-measure-part="connector" stroke-dasharray="4 4" opacity="0"/><line x1="171" y1="343.1" x2="171" y2="406.9" class="hub-measure-guide" data-measure="right-ftl" data-measure-part="locknut" opacity="0"/><line x1="123.3" y1="343.1" x2="123.3" y2="406.9" class="hub-measure-guide" data-measure="right-ftl" data-measure-part="flange-center" opacity="0"/><line x1="123.3" y1="375" x2="171" y2="375" class="hub-measure-guide hub-measure-dashed" data-measure="right-ftl" data-measure-part="connector" stroke-dasharray="4 4" opacity="0"/><line x1="100" y1="343.1" x2="100" y2="406.9" class="hub-measure-guide" data-measure="left-ctf" data-measure-part="centerline" opacity="0"/><line x1="63.4" y1="343.1" x2="63.4" y2="406.9" class="hub-measure-guide" data-measure="left-ctf" data-measure-part="flange-center" opacity="0"/><line x1="63.4" y1="375" x2="100" y2="375" class="hub-measure-guide hub-measure-dashed" data-measure="left-ctf" data-measure-part="connector" stroke-dasharray="4 4" opacity="0"/><line x1="100" y1="343.1" x2="100" y2="406.9" class="hub-measure-guide" data-measure="right-ctf" data-measure-part="centerline" opacity="0"/><line x1="123.3" y1="343.1" x2="123.3" y2="406.9" class="hub-measure-guide" data-measure="right-ctf" data-measure-part="flange-center" opacity="0"/><line x1="100" y1="375" x2="123.3" y2="375" class="hub-measure-guide hub-measure-dashed" data-measure="right-ctf" data-measure-part="connector" stroke-dasharray="4 4" opacity="0"/><line x1="37.7" y1="369" x2="41.3" y2="369" class="hub-sixbolt-side-line" stroke="var(--wheel-hub-detail-stroke, #111111)" fill="none" stroke-width="0.75" stroke-linecap="round" opacity="0.65"/><line x1="37.7" y1="381" x2="41.3" y2="381" class="hub-sixbolt-side-line" stroke="var(--wheel-hub-detail-stroke, #111111)" fill="none" stroke-width="0.75" stroke-linecap="round" opacity="0.65"/><line x1="127.3" y1="364.5" x2="162" y2="364.5" class="hub-freehub-spline" stroke="var(--wheel-hub-detail-stroke, #111111)" fill="none" stroke-width="0.75" stroke-linecap="round" opacity="0.7"/><line x1="127.3" y1="371.5" x2="162" y2="371.5" class="hub-freehub-spline" stroke="var(--wheel-hub-detail-stroke, #111111)" fill="none" stroke-width="0.75" stroke-linecap="round" opacity="0.7"/><line x1="127.3" y1="378.5" x2="162" y2="378.5" class="hub-freehub-spline" stroke="var(--wheel-hub-detail-stroke, #111111)" fill="none" stroke-width="0.75" stroke-linecap="round" opacity="0.7"/><line x1="127.3" y1="385.5" x2="162" y2="385.5" class="hub-freehub-spline" stroke="var(--wheel-hub-detail-stroke, #111111)" fill="none" stroke-width="0.75" stroke-linecap="round" opacity="0.7"/></g><g class="spoke-theme-color wheel-front-spokes"><line x1="63.4" y1="346.14" x2="100" y2="287.769" class="spoke spoke-left spoke-pulling"/><line x1="63.4" y1="356.603" x2="100" y2="516.655" class="spoke spoke-left spoke-pulling"/><line x1="63.4" y1="366.582" x2="100" y2="75.947" class="spoke spoke-left spoke-trailing"/><line x1="63.4" y1="377.842" x2="100" y2="662.561" class="spoke spoke-left spoke-pulling"/><line x1="63.4" y1="388.671" x2="100" y2="184.365" class="spoke spoke-left spoke-trailing"/><line x1="63.4" y1="402.751" x2="100" y2="404.454" class="spoke spoke-left spoke-trailing"/><line x1="63.4" y1="400.576" x2="100" y2="607.29" class="spoke spoke-left spoke-trailing"/><line x1="63.4" y1="352.583" x2="100" y2="109.983" class="spoke spoke-left spoke-pulling"/><line x1="123.3" y1="350.12" x2="100" y2="345.546" class="spoke spoke-right spoke-pulling"/><line x1="123.3" y1="362.744" x2="100" y2="565.635" class="spoke spoke-right spoke-pulling"/><line x1="123.3" y1="372.452" x2="100" y2="87.439" class="spoke spoke-right spoke-trailing"/><line x1="123.3" y1="382.547" x2="100" y2="674.053" class="spoke spoke-right spoke-pulling"/><line x1="123.3" y1="391.494" x2="100" y2="233.345" class="spoke spoke-right spoke-trailing"/><line x1="123.3" y1="400.875" x2="100" y2="462.231" class="spoke spoke-right spoke-trailing"/><line x1="123.3" y1="395.098" x2="100" y2="640.017" class="spoke spoke-right spoke-trailing"/><line x1="123.3" y1="352.07" x2="100" y2="142.71" class="spoke spoke-right spoke-pulling"/></g><g class="nipple-theme-silver wheel-front-nipples"><line x1="100" y1="287.769" x2="94.688" y2="296.242" class="spoke-nipple"/><line x1="100" y1="516.655" x2="97.771" y2="506.906" class="spoke-nipple"/><line x1="100" y1="75.947" x2="98.751" y2="85.869" class="spoke-nipple"/><line x1="100" y1="662.561" x2="98.725" y2="652.642" class="spoke-nipple"/><line x1="100" y1="184.365" x2="98.237" y2="194.208" class="spoke-nipple"/><line x1="100" y1="404.454" x2="90.011" y2="403.989" class="spoke-nipple"/><line x1="100" y1="607.29" x2="98.257" y2="597.443" class="spoke-nipple"/><line x1="100" y1="109.983" x2="98.508" y2="119.871" class="spoke-nipple"/><line x1="100" y1="345.546" x2="109.813" y2="347.472" class="spoke-nipple"/><line x1="100" y1="565.635" x2="101.141" y2="555.7" class="spoke-nipple"/><line x1="100" y1="87.439" x2="100.815" y2="97.406" class="spoke-nipple"/><line x1="100" y1="674.053" x2="100.797" y2="664.085" class="spoke-nipple"/><line x1="100" y1="233.345" x2="101.458" y2="243.238" class="spoke-nipple"/><line x1="100" y1="462.231" x2="103.55" y2="452.882" class="spoke-nipple"/><line x1="100" y1="640.017" x2="100.947" y2="630.062" class="spoke-nipple"/><line x1="100" y1="142.71" x2="101.106" y2="152.649" class="spoke-nipple"/></g><g id="rimGroup"><path d="M 87.5 58 L 112.5 58 L 112.5 66.25 L 104.167 74.5 L 95.833 74.5 L 87.5 66.25 Z" class="rim-body"/><path d="M 95.833 675.5 L 104.167 675.5 L 112.5 683.75 L 112.5 692 L 87.5 692 L 87.5 683.75 Z" class="rim-body"/></g><g class="wheel-back-nipple-dots"></g><g class="wheel-front-nipple-dots"></g></svg>
